<?xml version="1.0" encoding="UTF-8"?>
<svg width="204px" height="186px" viewBox="0 0 204 186" version="1.1" xmlns="http://www.w3.org/2000/svg" xmlns:xlink="http://www.w3.org/1999/xlink">
    <!-- Generator: Sketch 46.2 (44496) - http://www.bohemiancoding.com/sketch -->
    <title>Window virtual sensors</title>
    <desc>Created with Sketch.</desc>
    <defs>
        <polygon id="path-1" points="1 -2.27373675e-13 70.3819242 -2.27373675e-13 70.3819242 131.656627 1 131.656627"></polygon>
        <filter x="-5.0%" y="-1.9%" width="110.1%" height="105.3%" filterUnits="objectBoundingBox" id="filter-2">
            <feOffset dx="0" dy="1" in="SourceAlpha" result="shadowOffsetOuter1"></feOffset>
            <feGaussianBlur stdDeviation="1" in="shadowOffsetOuter1" result="shadowBlurOuter1"></feGaussianBlur>
            <feComposite in="shadowBlurOuter1" in2="SourceAlpha" operator="out" result="shadowBlurOuter1"></feComposite>
            <feColorMatrix values="0 0 0 0 0.898251488   0 0 0 0 0.898251488   0 0 0 0 0.898251488  0 0 0 0.5 0" type="matrix" in="shadowBlurOuter1"></feColorMatrix>
        </filter>
        <polygon id="path-3" points="9.51311953 8.06927711 62.2944606 8.06927711 62.2944606 123.587349 9.51311953 123.587349"></polygon>
        <filter x="-2.8%" y="-1.3%" width="105.7%" height="102.6%" filterUnits="objectBoundingBox" id="filter-4">
            <feGaussianBlur stdDeviation="1" in="SourceAlpha" result="shadowBlurInner1"></feGaussianBlur>
            <feOffset dx="0" dy="1" in="shadowBlurInner1" result="shadowOffsetInner1"></feOffset>
            <feComposite in="shadowOffsetInner1" in2="SourceAlpha" operator="arithmetic" k2="-1" k3="1" result="shadowInnerInner1"></feComposite>
            <feColorMatrix values="0 0 0 0 0.380314626   0 0 0 0 0.380314626   0 0 0 0 0.380314626  0 0 0 0.5 0" type="matrix" in="shadowInnerInner1"></feColorMatrix>
        </filter>
        <rect id="path-5" x="0" y="0" width="4.25655977" height="5.94578313" rx="1.7"></rect>
        <linearGradient x1="-59.2773438%" y1="49.9999195%" x2="178.881836%" y2="50%" id="linearGradient-6">
            <stop stop-color="#FFFFFF" stop-opacity="0.5" offset="0%"></stop>
            <stop stop-color="#F4F4F4" stop-opacity="0.5" offset="41.6791867%"></stop>
            <stop stop-color="#000000" stop-opacity="0.5" offset="100%"></stop>
        </linearGradient>
        <rect id="path-7" x="0.851311953" y="0.84939759" width="2.55393586" height="16.563253" rx="1.27696793"></rect>
        <polygon id="path-8" points="1 0 70.3819242 0 70.3819242 131.656627 1 131.656627"></polygon>
        <filter x="-5.0%" y="-1.9%" width="110.1%" height="105.3%" filterUnits="objectBoundingBox" id="filter-9">
            <feOffset dx="0" dy="1" in="SourceAlpha" result="shadowOffsetOuter1"></feOffset>
            <feGaussianBlur stdDeviation="1" in="shadowOffsetOuter1" result="shadowBlurOuter1"></feGaussianBlur>
            <feComposite in="shadowBlurOuter1" in2="SourceAlpha" operator="out" result="shadowBlurOuter1"></feComposite>
            <feColorMatrix values="0 0 0 0 0.898251488   0 0 0 0 0.898251488   0 0 0 0 0.898251488  0 0 0 0.5 0" type="matrix" in="shadowBlurOuter1"></feColorMatrix>
        </filter>
        <polygon id="path-10" points="9.51311953 8.06927711 62.2944606 8.06927711 62.2944606 123.587349 9.51311953 123.587349"></polygon>
        <filter x="-2.8%" y="-1.3%" width="105.7%" height="102.6%" filterUnits="objectBoundingBox" id="filter-11">
            <feGaussianBlur stdDeviation="1" in="SourceAlpha" result="shadowBlurInner1"></feGaussianBlur>
            <feOffset dx="0" dy="1" in="shadowBlurInner1" result="shadowOffsetInner1"></feOffset>
            <feComposite in="shadowOffsetInner1" in2="SourceAlpha" operator="arithmetic" k2="-1" k3="1" result="shadowInnerInner1"></feComposite>
            <feColorMatrix values="0 0 0 0 0.380314626   0 0 0 0 0.380314626   0 0 0 0 0.380314626  0 0 0 0.5 0" type="matrix" in="shadowInnerInner1"></feColorMatrix>
        </filter>
        <rect id="path-12" x="0" y="0" width="4.25655977" height="5.94578313" rx="1.7"></rect>
        <rect id="path-13" x="0.851311953" y="0.84939759" width="2.55393586" height="16.563253" rx="1.27696793"></rect>
        <path d="M3.5,6 C1.84314575,6 0.5,4.65685425 0.5,3 C0.5,1.34314575 1.84314575,0 3.5,0 C5.15685425,0 6.5,1.34314575 6.5,3 C6.5,4.65685425 5.15685425,6 3.5,6 Z M11.5,6 C9.84314575,6 8.5,4.65685425 8.5,3 C8.5,1.34314575 9.84314575,0 11.5,0 C13.1568542,0 14.5,1.34314575 14.5,3 C14.5,4.65685425 13.1568542,6 11.5,6 Z M19.5,6 C17.8431458,6 16.5,4.65685425 16.5,3 C16.5,1.34314575 17.8431458,0 19.5,0 C21.1568542,0 22.5,1.34314575 22.5,3 C22.5,4.65685425 21.1568542,6 19.5,6 Z M27.5,6 C25.8431458,6 24.5,4.65685425 24.5,3 C24.5,1.34314575 25.8431458,0 27.5,0 C29.1568542,0 30.5,1.34314575 30.5,3 C30.5,4.65685425 29.1568542,6 27.5,6 Z M35.5,6 C33.8431458,6 32.5,4.65685425 32.5,3 C32.5,1.34314575 33.8431458,0 35.5,0 C37.1568542,0 38.5,1.34314575 38.5,3 C38.5,4.65685425 37.1568542,6 35.5,6 Z M43.5,6 C41.8431458,6 40.5,4.65685425 40.5,3 C40.5,1.34314575 41.8431458,0 43.5,0 C45.1568542,0 46.5,1.34314575 46.5,3 C46.5,4.65685425 45.1568542,6 43.5,6 Z M3.5,14 C1.84314575,14 0.5,12.6568542 0.5,11 C0.5,9.34314575 1.84314575,8 3.5,8 C5.15685425,8 6.5,9.34314575 6.5,11 C6.5,12.6568542 5.15685425,14 3.5,14 Z M11.5,14 C9.84314575,14 8.5,12.6568542 8.5,11 C8.5,9.34314575 9.84314575,8 11.5,8 C13.1568542,8 14.5,9.34314575 14.5,11 C14.5,12.6568542 13.1568542,14 11.5,14 Z M19.5,14 C17.8431458,14 16.5,12.6568542 16.5,11 C16.5,9.34314575 17.8431458,8 19.5,8 C21.1568542,8 22.5,9.34314575 22.5,11 C22.5,12.6568542 21.1568542,14 19.5,14 Z M27.5,14 C25.8431458,14 24.5,12.6568542 24.5,11 C24.5,9.34314575 25.8431458,8 27.5,8 C29.1568542,8 30.5,9.34314575 30.5,11 C30.5,12.6568542 29.1568542,14 27.5,14 Z M35.5,14 C33.8431458,14 32.5,12.6568542 32.5,11 C32.5,9.34314575 33.8431458,8 35.5,8 C37.1568542,8 38.5,9.34314575 38.5,11 C38.5,12.6568542 37.1568542,14 35.5,14 Z M43.5,14 C41.8431458,14 40.5,12.6568542 40.5,11 C40.5,9.34314575 41.8431458,8 43.5,8 C45.1568542,8 46.5,9.34314575 46.5,11 C46.5,12.6568542 45.1568542,14 43.5,14 Z M3.5,22 C1.84314575,22 0.5,20.6568542 0.5,19 C0.5,17.3431458 1.84314575,16 3.5,16 C5.15685425,16 6.5,17.3431458 6.5,19 C6.5,20.6568542 5.15685425,22 3.5,22 Z M11.5,22 C9.84314575,22 8.5,20.6568542 8.5,19 C8.5,17.3431458 9.84314575,16 11.5,16 C13.1568542,16 14.5,17.3431458 14.5,19 C14.5,20.6568542 13.1568542,22 11.5,22 Z M19.5,22 C17.8431458,22 16.5,20.6568542 16.5,19 C16.5,17.3431458 17.8431458,16 19.5,16 C21.1568542,16 22.5,17.3431458 22.5,19 C22.5,20.6568542 21.1568542,22 19.5,22 Z M27.5,22 C25.8431458,22 24.5,20.6568542 24.5,19 C24.5,17.3431458 25.8431458,16 27.5,16 C29.1568542,16 30.5,17.3431458 30.5,19 C30.5,20.6568542 29.1568542,22 27.5,22 Z M35.5,22 C33.8431458,22 32.5,20.6568542 32.5,19 C32.5,17.3431458 33.8431458,16 35.5,16 C37.1568542,16 38.5,17.3431458 38.5,19 C38.5,20.6568542 37.1568542,22 35.5,22 Z M43.5,22 C41.8431458,22 40.5,20.6568542 40.5,19 C40.5,17.3431458 41.8431458,16 43.5,16 C45.1568542,16 46.5,17.3431458 46.5,19 C46.5,20.6568542 45.1568542,22 43.5,22 Z M3.5,30 C1.84314575,30 0.5,28.6568542 0.5,27 C0.5,25.3431458 1.84314575,24 3.5,24 C5.15685425,24 6.5,25.3431458 6.5,27 C6.5,28.6568542 5.15685425,30 3.5,30 Z M11.5,30 C9.84314575,30 8.5,28.6568542 8.5,27 C8.5,25.3431458 9.84314575,24 11.5,24 C13.1568542,24 14.5,25.3431458 14.5,27 C14.5,28.6568542 13.1568542,30 11.5,30 Z M19.5,30 C17.8431458,30 16.5,28.6568542 16.5,27 C16.5,25.3431458 17.8431458,24 19.5,24 C21.1568542,24 22.5,25.3431458 22.5,27 C22.5,28.6568542 21.1568542,30 19.5,30 Z M27.5,30 C25.8431458,30 24.5,28.6568542 24.5,27 C24.5,25.3431458 25.8431458,24 27.5,24 C29.1568542,24 30.5,25.3431458 30.5,27 C30.5,28.6568542 29.1568542,30 27.5,30 Z M35.5,30 C33.8431458,30 32.5,28.6568542 32.5,27 C32.5,25.3431458 33.8431458,24 35.5,24 C37.1568542,24 38.5,25.3431458 38.5,27 C38.5,28.6568542 37.1568542,30 35.5,30 Z M43.5,30 C41.8431458,30 40.5,28.6568542 40.5,27 C40.5,25.3431458 41.8431458,24 43.5,24 C45.1568542,24 46.5,25.3431458 46.5,27 C46.5,28.6568542 45.1568542,30 43.5,30 Z M3.5,38 C1.84314575,38 0.5,36.6568542 0.5,35 C0.5,33.3431458 1.84314575,32 3.5,32 C5.15685425,32 6.5,33.3431458 6.5,35 C6.5,36.6568542 5.15685425,38 3.5,38 Z M11.5,38 C9.84314575,38 8.5,36.6568542 8.5,35 C8.5,33.3431458 9.84314575,32 11.5,32 C13.1568542,32 14.5,33.3431458 14.5,35 C14.5,36.6568542 13.1568542,38 11.5,38 Z M19.5,38 C17.8431458,38 16.5,36.6568542 16.5,35 C16.5,33.3431458 17.8431458,32 19.5,32 C21.1568542,32 22.5,33.3431458 22.5,35 C22.5,36.6568542 21.1568542,38 19.5,38 Z M27.5,38 C25.8431458,38 24.5,36.6568542 24.5,35 C24.5,33.3431458 25.8431458,32 27.5,32 C29.1568542,32 30.5,33.3431458 30.5,35 C30.5,36.6568542 29.1568542,38 27.5,38 Z M35.5,38 C33.8431458,38 32.5,36.6568542 32.5,35 C32.5,33.3431458 33.8431458,32 35.5,32 C37.1568542,32 38.5,33.3431458 38.5,35 C38.5,36.6568542 37.1568542,38 35.5,38 Z M43.5,38 C41.8431458,38 40.5,36.6568542 40.5,35 C40.5,33.3431458 41.8431458,32 43.5,32 C45.1568542,32 46.5,33.3431458 46.5,35 C46.5,36.6568542 45.1568542,38 43.5,38 Z M3.5,46 C1.84314575,46 0.5,44.6568542 0.5,43 C0.5,41.3431458 1.84314575,40 3.5,40 C5.15685425,40 6.5,41.3431458 6.5,43 C6.5,44.6568542 5.15685425,46 3.5,46 Z M11.5,46 C9.84314575,46 8.5,44.6568542 8.5,43 C8.5,41.3431458 9.84314575,40 11.5,40 C13.1568542,40 14.5,41.3431458 14.5,43 C14.5,44.6568542 13.1568542,46 11.5,46 Z M19.5,46 C17.8431458,46 16.5,44.6568542 16.5,43 C16.5,41.3431458 17.8431458,40 19.5,40 C21.1568542,40 22.5,41.3431458 22.5,43 C22.5,44.6568542 21.1568542,46 19.5,46 Z M27.5,46 C25.8431458,46 24.5,44.6568542 24.5,43 C24.5,41.3431458 25.8431458,40 27.5,40 C29.1568542,40 30.5,41.3431458 30.5,43 C30.5,44.6568542 29.1568542,46 27.5,46 Z M35.5,46 C33.8431458,46 32.5,44.6568542 32.5,43 C32.5,41.3431458 33.8431458,40 35.5,40 C37.1568542,40 38.5,41.3431458 38.5,43 C38.5,44.6568542 37.1568542,46 35.5,46 Z M43.5,46 C41.8431458,46 40.5,44.6568542 40.5,43 C40.5,41.3431458 41.8431458,40 43.5,40 C45.1568542,40 46.5,41.3431458 46.5,43 C46.5,44.6568542 45.1568542,46 43.5,46 Z M3.5,54 C1.84314575,54 0.5,52.6568542 0.5,51 C0.5,49.3431458 1.84314575,48 3.5,48 C5.15685425,48 6.5,49.3431458 6.5,51 C6.5,52.6568542 5.15685425,54 3.5,54 Z M11.5,54 C9.84314575,54 8.5,52.6568542 8.5,51 C8.5,49.3431458 9.84314575,48 11.5,48 C13.1568542,48 14.5,49.3431458 14.5,51 C14.5,52.6568542 13.1568542,54 11.5,54 Z M19.5,54 C17.8431458,54 16.5,52.6568542 16.5,51 C16.5,49.3431458 17.8431458,48 19.5,48 C21.1568542,48 22.5,49.3431458 22.5,51 C22.5,52.6568542 21.1568542,54 19.5,54 Z M27.5,54 C25.8431458,54 24.5,52.6568542 24.5,51 C24.5,49.3431458 25.8431458,48 27.5,48 C29.1568542,48 30.5,49.3431458 30.5,51 C30.5,52.6568542 29.1568542,54 27.5,54 Z M35.5,54 C33.8431458,54 32.5,52.6568542 32.5,51 C32.5,49.3431458 33.8431458,48 35.5,48 C37.1568542,48 38.5,49.3431458 38.5,51 C38.5,52.6568542 37.1568542,54 35.5,54 Z M43.5,54 C41.8431458,54 40.5,52.6568542 40.5,51 C40.5,49.3431458 41.8431458,48 43.5,48 C45.1568542,48 46.5,49.3431458 46.5,51 C46.5,52.6568542 45.1568542,54 43.5,54 Z M3.5,62 C1.84314575,62 0.5,60.6568542 0.5,59 C0.5,57.3431458 1.84314575,56 3.5,56 C5.15685425,56 6.5,57.3431458 6.5,59 C6.5,60.6568542 5.15685425,62 3.5,62 Z M11.5,62 C9.84314575,62 8.5,60.6568542 8.5,59 C8.5,57.3431458 9.84314575,56 11.5,56 C13.1568542,56 14.5,57.3431458 14.5,59 C14.5,60.6568542 13.1568542,62 11.5,62 Z M19.5,62 C17.8431458,62 16.5,60.6568542 16.5,59 C16.5,57.3431458 17.8431458,56 19.5,56 C21.1568542,56 22.5,57.3431458 22.5,59 C22.5,60.6568542 21.1568542,62 19.5,62 Z M27.5,62 C25.8431458,62 24.5,60.6568542 24.5,59 C24.5,57.3431458 25.8431458,56 27.5,56 C29.1568542,56 30.5,57.3431458 30.5,59 C30.5,60.6568542 29.1568542,62 27.5,62 Z M35.5,62 C33.8431458,62 32.5,60.6568542 32.5,59 C32.5,57.3431458 33.8431458,56 35.5,56 C37.1568542,56 38.5,57.3431458 38.5,59 C38.5,60.6568542 37.1568542,62 35.5,62 Z M43.5,62 C41.8431458,62 40.5,60.6568542 40.5,59 C40.5,57.3431458 41.8431458,56 43.5,56 C45.1568542,56 46.5,57.3431458 46.5,59 C46.5,60.6568542 45.1568542,62 43.5,62 Z M3.5,70 C1.84314575,70 0.5,68.6568542 0.5,67 C0.5,65.3431458 1.84314575,64 3.5,64 C5.15685425,64 6.5,65.3431458 6.5,67 C6.5,68.6568542 5.15685425,70 3.5,70 Z M11.5,70 C9.84314575,70 8.5,68.6568542 8.5,67 C8.5,65.3431458 9.84314575,64 11.5,64 C13.1568542,64 14.5,65.3431458 14.5,67 C14.5,68.6568542 13.1568542,70 11.5,70 Z M19.5,70 C17.8431458,70 16.5,68.6568542 16.5,67 C16.5,65.3431458 17.8431458,64 19.5,64 C21.1568542,64 22.5,65.3431458 22.5,67 C22.5,68.6568542 21.1568542,70 19.5,70 Z M27.5,70 C25.8431458,70 24.5,68.6568542 24.5,67 C24.5,65.3431458 25.8431458,64 27.5,64 C29.1568542,64 30.5,65.3431458 30.5,67 C30.5,68.6568542 29.1568542,70 27.5,70 Z M35.5,70 C33.8431458,70 32.5,68.6568542 32.5,67 C32.5,65.3431458 33.8431458,64 35.5,64 C37.1568542,64 38.5,65.3431458 38.5,67 C38.5,68.6568542 37.1568542,70 35.5,70 Z M43.5,70 C41.8431458,70 40.5,68.6568542 40.5,67 C40.5,65.3431458 41.8431458,64 43.5,64 C45.1568542,64 46.5,65.3431458 46.5,67 C46.5,68.6568542 45.1568542,70 43.5,70 Z M3.5,78 C1.84314575,78 0.5,76.6568542 0.5,75 C0.5,73.3431458 1.84314575,72 3.5,72 C5.15685425,72 6.5,73.3431458 6.5,75 C6.5,76.6568542 5.15685425,78 3.5,78 Z M11.5,78 C9.84314575,78 8.5,76.6568542 8.5,75 C8.5,73.3431458 9.84314575,72 11.5,72 C13.1568542,72 14.5,73.3431458 14.5,75 C14.5,76.6568542 13.1568542,78 11.5,78 Z M19.5,78 C17.8431458,78 16.5,76.6568542 16.5,75 C16.5,73.3431458 17.8431458,72 19.5,72 C21.1568542,72 22.5,73.3431458 22.5,75 C22.5,76.6568542 21.1568542,78 19.5,78 Z M27.5,78 C25.8431458,78 24.5,76.6568542 24.5,75 C24.5,73.3431458 25.8431458,72 27.5,72 C29.1568542,72 30.5,73.3431458 30.5,75 C30.5,76.6568542 29.1568542,78 27.5,78 Z M35.5,78 C33.8431458,78 32.5,76.6568542 32.5,75 C32.5,73.3431458 33.8431458,72 35.5,72 C37.1568542,72 38.5,73.3431458 38.5,75 C38.5,76.6568542 37.1568542,78 35.5,78 Z M43.5,78 C41.8431458,78 40.5,76.6568542 40.5,75 C40.5,73.3431458 41.8431458,72 43.5,72 C45.1568542,72 46.5,73.3431458 46.5,75 C46.5,76.6568542 45.1568542,78 43.5,78 Z M3.5,86 C1.84314575,86 0.5,84.6568542 0.5,83 C0.5,81.3431458 1.84314575,80 3.5,80 C5.15685425,80 6.5,81.3431458 6.5,83 C6.5,84.6568542 5.15685425,86 3.5,86 Z M11.5,86 C9.84314575,86 8.5,84.6568542 8.5,83 C8.5,81.3431458 9.84314575,80 11.5,80 C13.1568542,80 14.5,81.3431458 14.5,83 C14.5,84.6568542 13.1568542,86 11.5,86 Z M19.5,86 C17.8431458,86 16.5,84.6568542 16.5,83 C16.5,81.3431458 17.8431458,80 19.5,80 C21.1568542,80 22.5,81.3431458 22.5,83 C22.5,84.6568542 21.1568542,86 19.5,86 Z M27.5,86 C25.8431458,86 24.5,84.6568542 24.5,83 C24.5,81.3431458 25.8431458,80 27.5,80 C29.1568542,80 30.5,81.3431458 30.5,83 C30.5,84.6568542 29.1568542,86 27.5,86 Z M35.5,86 C33.8431458,86 32.5,84.6568542 32.5,83 C32.5,81.3431458 33.8431458,80 35.5,80 C37.1568542,80 38.5,81.3431458 38.5,83 C38.5,84.6568542 37.1568542,86 35.5,86 Z M43.5,86 C41.8431458,86 40.5,84.6568542 40.5,83 C40.5,81.3431458 41.8431458,80 43.5,80 C45.1568542,80 46.5,81.3431458 46.5,83 C46.5,84.6568542 45.1568542,86 43.5,86 Z M3.5,94 C1.84314575,94 0.5,92.6568542 0.5,91 C0.5,89.3431458 1.84314575,88 3.5,88 C5.15685425,88 6.5,89.3431458 6.5,91 C6.5,92.6568542 5.15685425,94 3.5,94 Z M11.5,94 C9.84314575,94 8.5,92.6568542 8.5,91 C8.5,89.3431458 9.84314575,88 11.5,88 C13.1568542,88 14.5,89.3431458 14.5,91 C14.5,92.6568542 13.1568542,94 11.5,94 Z M19.5,94 C17.8431458,94 16.5,92.6568542 16.5,91 C16.5,89.3431458 17.8431458,88 19.5,88 C21.1568542,88 22.5,89.3431458 22.5,91 C22.5,92.6568542 21.1568542,94 19.5,94 Z M27.5,94 C25.8431458,94 24.5,92.6568542 24.5,91 C24.5,89.3431458 25.8431458,88 27.5,88 C29.1568542,88 30.5,89.3431458 30.5,91 C30.5,92.6568542 29.1568542,94 27.5,94 Z M35.5,94 C33.8431458,94 32.5,92.6568542 32.5,91 C32.5,89.3431458 33.8431458,88 35.5,88 C37.1568542,88 38.5,89.3431458 38.5,91 C38.5,92.6568542 37.1568542,94 35.5,94 Z M43.5,94 C41.8431458,94 40.5,92.6568542 40.5,91 C40.5,89.3431458 41.8431458,88 43.5,88 C45.1568542,88 46.5,89.3431458 46.5,91 C46.5,92.6568542 45.1568542,94 43.5,94 Z M3.5,102 C1.84314575,102 0.5,100.656854 0.5,99 C0.5,97.3431458 1.84314575,96 3.5,96 C5.15685425,96 6.5,97.3431458 6.5,99 C6.5,100.656854 5.15685425,102 3.5,102 Z M11.5,102 C9.84314575,102 8.5,100.656854 8.5,99 C8.5,97.3431458 9.84314575,96 11.5,96 C13.1568542,96 14.5,97.3431458 14.5,99 C14.5,100.656854 13.1568542,102 11.5,102 Z M19.5,102 C17.8431458,102 16.5,100.656854 16.5,99 C16.5,97.3431458 17.8431458,96 19.5,96 C21.1568542,96 22.5,97.3431458 22.5,99 C22.5,100.656854 21.1568542,102 19.5,102 Z M27.5,102 C25.8431458,102 24.5,100.656854 24.5,99 C24.5,97.3431458 25.8431458,96 27.5,96 C29.1568542,96 30.5,97.3431458 30.5,99 C30.5,100.656854 29.1568542,102 27.5,102 Z M35.5,102 C33.8431458,102 32.5,100.656854 32.5,99 C32.5,97.3431458 33.8431458,96 35.5,96 C37.1568542,96 38.5,97.3431458 38.5,99 C38.5,100.656854 37.1568542,102 35.5,102 Z M43.5,102 C41.8431458,102 40.5,100.656854 40.5,99 C40.5,97.3431458 41.8431458,96 43.5,96 C45.1568542,96 46.5,97.3431458 46.5,99 C46.5,100.656854 45.1568542,102 43.5,102 Z M3.5,110 C1.84314575,110 0.5,108.656854 0.5,107 C0.5,105.343146 1.84314575,104 3.5,104 C5.15685425,104 6.5,105.343146 6.5,107 C6.5,108.656854 5.15685425,110 3.5,110 Z M11.5,110 C9.84314575,110 8.5,108.656854 8.5,107 C8.5,105.343146 9.84314575,104 11.5,104 C13.1568542,104 14.5,105.343146 14.5,107 C14.5,108.656854 13.1568542,110 11.5,110 Z M19.5,110 C17.8431458,110 16.5,108.656854 16.5,107 C16.5,105.343146 17.8431458,104 19.5,104 C21.1568542,104 22.5,105.343146 22.5,107 C22.5,108.656854 21.1568542,110 19.5,110 Z M27.5,110 C25.8431458,110 24.5,108.656854 24.5,107 C24.5,105.343146 25.8431458,104 27.5,104 C29.1568542,104 30.5,105.343146 30.5,107 C30.5,108.656854 29.1568542,110 27.5,110 Z M35.5,110 C33.8431458,110 32.5,108.656854 32.5,107 C32.5,105.343146 33.8431458,104 35.5,104 C37.1568542,104 38.5,105.343146 38.5,107 C38.5,108.656854 37.1568542,110 35.5,110 Z M43.5,110 C41.8431458,110 40.5,108.656854 40.5,107 C40.5,105.343146 41.8431458,104 43.5,104 C45.1568542,104 46.5,105.343146 46.5,107 C46.5,108.656854 45.1568542,110 43.5,110 Z" id="path-14"></path>
        <path d="M3.5,6 C1.84314575,6 0.5,4.65685425 0.5,3 C0.5,1.34314575 1.84314575,0 3.5,0 C5.15685425,0 6.5,1.34314575 6.5,3 C6.5,4.65685425 5.15685425,6 3.5,6 Z M11.5,6 C9.84314575,6 8.5,4.65685425 8.5,3 C8.5,1.34314575 9.84314575,0 11.5,0 C13.1568542,0 14.5,1.34314575 14.5,3 C14.5,4.65685425 13.1568542,6 11.5,6 Z M19.5,6 C17.8431458,6 16.5,4.65685425 16.5,3 C16.5,1.34314575 17.8431458,0 19.5,0 C21.1568542,0 22.5,1.34314575 22.5,3 C22.5,4.65685425 21.1568542,6 19.5,6 Z M27.5,6 C25.8431458,6 24.5,4.65685425 24.5,3 C24.5,1.34314575 25.8431458,0 27.5,0 C29.1568542,0 30.5,1.34314575 30.5,3 C30.5,4.65685425 29.1568542,6 27.5,6 Z M35.5,6 C33.8431458,6 32.5,4.65685425 32.5,3 C32.5,1.34314575 33.8431458,0 35.5,0 C37.1568542,0 38.5,1.34314575 38.5,3 C38.5,4.65685425 37.1568542,6 35.5,6 Z M43.5,6 C41.8431458,6 40.5,4.65685425 40.5,3 C40.5,1.34314575 41.8431458,0 43.5,0 C45.1568542,0 46.5,1.34314575 46.5,3 C46.5,4.65685425 45.1568542,6 43.5,6 Z M3.5,14 C1.84314575,14 0.5,12.6568542 0.5,11 C0.5,9.34314575 1.84314575,8 3.5,8 C5.15685425,8 6.5,9.34314575 6.5,11 C6.5,12.6568542 5.15685425,14 3.5,14 Z M11.5,14 C9.84314575,14 8.5,12.6568542 8.5,11 C8.5,9.34314575 9.84314575,8 11.5,8 C13.1568542,8 14.5,9.34314575 14.5,11 C14.5,12.6568542 13.1568542,14 11.5,14 Z M19.5,14 C17.8431458,14 16.5,12.6568542 16.5,11 C16.5,9.34314575 17.8431458,8 19.5,8 C21.1568542,8 22.5,9.34314575 22.5,11 C22.5,12.6568542 21.1568542,14 19.5,14 Z M27.5,14 C25.8431458,14 24.5,12.6568542 24.5,11 C24.5,9.34314575 25.8431458,8 27.5,8 C29.1568542,8 30.5,9.34314575 30.5,11 C30.5,12.6568542 29.1568542,14 27.5,14 Z M35.5,14 C33.8431458,14 32.5,12.6568542 32.5,11 C32.5,9.34314575 33.8431458,8 35.5,8 C37.1568542,8 38.5,9.34314575 38.5,11 C38.5,12.6568542 37.1568542,14 35.5,14 Z M43.5,14 C41.8431458,14 40.5,12.6568542 40.5,11 C40.5,9.34314575 41.8431458,8 43.5,8 C45.1568542,8 46.5,9.34314575 46.5,11 C46.5,12.6568542 45.1568542,14 43.5,14 Z M3.5,22 C1.84314575,22 0.5,20.6568542 0.5,19 C0.5,17.3431458 1.84314575,16 3.5,16 C5.15685425,16 6.5,17.3431458 6.5,19 C6.5,20.6568542 5.15685425,22 3.5,22 Z M11.5,22 C9.84314575,22 8.5,20.6568542 8.5,19 C8.5,17.3431458 9.84314575,16 11.5,16 C13.1568542,16 14.5,17.3431458 14.5,19 C14.5,20.6568542 13.1568542,22 11.5,22 Z M19.5,22 C17.8431458,22 16.5,20.6568542 16.5,19 C16.5,17.3431458 17.8431458,16 19.5,16 C21.1568542,16 22.5,17.3431458 22.5,19 C22.5,20.6568542 21.1568542,22 19.5,22 Z M27.5,22 C25.8431458,22 24.5,20.6568542 24.5,19 C24.5,17.3431458 25.8431458,16 27.5,16 C29.1568542,16 30.5,17.3431458 30.5,19 C30.5,20.6568542 29.1568542,22 27.5,22 Z M35.5,22 C33.8431458,22 32.5,20.6568542 32.5,19 C32.5,17.3431458 33.8431458,16 35.5,16 C37.1568542,16 38.5,17.3431458 38.5,19 C38.5,20.6568542 37.1568542,22 35.5,22 Z M43.5,22 C41.8431458,22 40.5,20.6568542 40.5,19 C40.5,17.3431458 41.8431458,16 43.5,16 C45.1568542,16 46.5,17.3431458 46.5,19 C46.5,20.6568542 45.1568542,22 43.5,22 Z M3.5,30 C1.84314575,30 0.5,28.6568542 0.5,27 C0.5,25.3431458 1.84314575,24 3.5,24 C5.15685425,24 6.5,25.3431458 6.5,27 C6.5,28.6568542 5.15685425,30 3.5,30 Z M11.5,30 C9.84314575,30 8.5,28.6568542 8.5,27 C8.5,25.3431458 9.84314575,24 11.5,24 C13.1568542,24 14.5,25.3431458 14.5,27 C14.5,28.6568542 13.1568542,30 11.5,30 Z M19.5,30 C17.8431458,30 16.5,28.6568542 16.5,27 C16.5,25.3431458 17.8431458,24 19.5,24 C21.1568542,24 22.5,25.3431458 22.5,27 C22.5,28.6568542 21.1568542,30 19.5,30 Z M27.5,30 C25.8431458,30 24.5,28.6568542 24.5,27 C24.5,25.3431458 25.8431458,24 27.5,24 C29.1568542,24 30.5,25.3431458 30.5,27 C30.5,28.6568542 29.1568542,30 27.5,30 Z M35.5,30 C33.8431458,30 32.5,28.6568542 32.5,27 C32.5,25.3431458 33.8431458,24 35.5,24 C37.1568542,24 38.5,25.3431458 38.5,27 C38.5,28.6568542 37.1568542,30 35.5,30 Z M43.5,30 C41.8431458,30 40.5,28.6568542 40.5,27 C40.5,25.3431458 41.8431458,24 43.5,24 C45.1568542,24 46.5,25.3431458 46.5,27 C46.5,28.6568542 45.1568542,30 43.5,30 Z M3.5,38 C1.84314575,38 0.5,36.6568542 0.5,35 C0.5,33.3431458 1.84314575,32 3.5,32 C5.15685425,32 6.5,33.3431458 6.5,35 C6.5,36.6568542 5.15685425,38 3.5,38 Z M11.5,38 C9.84314575,38 8.5,36.6568542 8.5,35 C8.5,33.3431458 9.84314575,32 11.5,32 C13.1568542,32 14.5,33.3431458 14.5,35 C14.5,36.6568542 13.1568542,38 11.5,38 Z M19.5,38 C17.8431458,38 16.5,36.6568542 16.5,35 C16.5,33.3431458 17.8431458,32 19.5,32 C21.1568542,32 22.5,33.3431458 22.5,35 C22.5,36.6568542 21.1568542,38 19.5,38 Z M27.5,38 C25.8431458,38 24.5,36.6568542 24.5,35 C24.5,33.3431458 25.8431458,32 27.5,32 C29.1568542,32 30.5,33.3431458 30.5,35 C30.5,36.6568542 29.1568542,38 27.5,38 Z M35.5,38 C33.8431458,38 32.5,36.6568542 32.5,35 C32.5,33.3431458 33.8431458,32 35.5,32 C37.1568542,32 38.5,33.3431458 38.5,35 C38.5,36.6568542 37.1568542,38 35.5,38 Z M43.5,38 C41.8431458,38 40.5,36.6568542 40.5,35 C40.5,33.3431458 41.8431458,32 43.5,32 C45.1568542,32 46.5,33.3431458 46.5,35 C46.5,36.6568542 45.1568542,38 43.5,38 Z M3.5,46 C1.84314575,46 0.5,44.6568542 0.5,43 C0.5,41.3431458 1.84314575,40 3.5,40 C5.15685425,40 6.5,41.3431458 6.5,43 C6.5,44.6568542 5.15685425,46 3.5,46 Z M11.5,46 C9.84314575,46 8.5,44.6568542 8.5,43 C8.5,41.3431458 9.84314575,40 11.5,40 C13.1568542,40 14.5,41.3431458 14.5,43 C14.5,44.6568542 13.1568542,46 11.5,46 Z M19.5,46 C17.8431458,46 16.5,44.6568542 16.5,43 C16.5,41.3431458 17.8431458,40 19.5,40 C21.1568542,40 22.5,41.3431458 22.5,43 C22.5,44.6568542 21.1568542,46 19.5,46 Z M27.5,46 C25.8431458,46 24.5,44.6568542 24.5,43 C24.5,41.3431458 25.8431458,40 27.5,40 C29.1568542,40 30.5,41.3431458 30.5,43 C30.5,44.6568542 29.1568542,46 27.5,46 Z M35.5,46 C33.8431458,46 32.5,44.6568542 32.5,43 C32.5,41.3431458 33.8431458,40 35.5,40 C37.1568542,40 38.5,41.3431458 38.5,43 C38.5,44.6568542 37.1568542,46 35.5,46 Z M43.5,46 C41.8431458,46 40.5,44.6568542 40.5,43 C40.5,41.3431458 41.8431458,40 43.5,40 C45.1568542,40 46.5,41.3431458 46.5,43 C46.5,44.6568542 45.1568542,46 43.5,46 Z M3.5,54 C1.84314575,54 0.5,52.6568542 0.5,51 C0.5,49.3431458 1.84314575,48 3.5,48 C5.15685425,48 6.5,49.3431458 6.5,51 C6.5,52.6568542 5.15685425,54 3.5,54 Z M11.5,54 C9.84314575,54 8.5,52.6568542 8.5,51 C8.5,49.3431458 9.84314575,48 11.5,48 C13.1568542,48 14.5,49.3431458 14.5,51 C14.5,52.6568542 13.1568542,54 11.5,54 Z M19.5,54 C17.8431458,54 16.5,52.6568542 16.5,51 C16.5,49.3431458 17.8431458,48 19.5,48 C21.1568542,48 22.5,49.3431458 22.5,51 C22.5,52.6568542 21.1568542,54 19.5,54 Z M27.5,54 C25.8431458,54 24.5,52.6568542 24.5,51 C24.5,49.3431458 25.8431458,48 27.5,48 C29.1568542,48 30.5,49.3431458 30.5,51 C30.5,52.6568542 29.1568542,54 27.5,54 Z M35.5,54 C33.8431458,54 32.5,52.6568542 32.5,51 C32.5,49.3431458 33.8431458,48 35.5,48 C37.1568542,48 38.5,49.3431458 38.5,51 C38.5,52.6568542 37.1568542,54 35.5,54 Z M43.5,54 C41.8431458,54 40.5,52.6568542 40.5,51 C40.5,49.3431458 41.8431458,48 43.5,48 C45.1568542,48 46.5,49.3431458 46.5,51 C46.5,52.6568542 45.1568542,54 43.5,54 Z M3.5,62 C1.84314575,62 0.5,60.6568542 0.5,59 C0.5,57.3431458 1.84314575,56 3.5,56 C5.15685425,56 6.5,57.3431458 6.5,59 C6.5,60.6568542 5.15685425,62 3.5,62 Z M11.5,62 C9.84314575,62 8.5,60.6568542 8.5,59 C8.5,57.3431458 9.84314575,56 11.5,56 C13.1568542,56 14.5,57.3431458 14.5,59 C14.5,60.6568542 13.1568542,62 11.5,62 Z M19.5,62 C17.8431458,62 16.5,60.6568542 16.5,59 C16.5,57.3431458 17.8431458,56 19.5,56 C21.1568542,56 22.5,57.3431458 22.5,59 C22.5,60.6568542 21.1568542,62 19.5,62 Z M27.5,62 C25.8431458,62 24.5,60.6568542 24.5,59 C24.5,57.3431458 25.8431458,56 27.5,56 C29.1568542,56 30.5,57.3431458 30.5,59 C30.5,60.6568542 29.1568542,62 27.5,62 Z M35.5,62 C33.8431458,62 32.5,60.6568542 32.5,59 C32.5,57.3431458 33.8431458,56 35.5,56 C37.1568542,56 38.5,57.3431458 38.5,59 C38.5,60.6568542 37.1568542,62 35.5,62 Z M43.5,62 C41.8431458,62 40.5,60.6568542 40.5,59 C40.5,57.3431458 41.8431458,56 43.5,56 C45.1568542,56 46.5,57.3431458 46.5,59 C46.5,60.6568542 45.1568542,62 43.5,62 Z M3.5,70 C1.84314575,70 0.5,68.6568542 0.5,67 C0.5,65.3431458 1.84314575,64 3.5,64 C5.15685425,64 6.5,65.3431458 6.5,67 C6.5,68.6568542 5.15685425,70 3.5,70 Z M11.5,70 C9.84314575,70 8.5,68.6568542 8.5,67 C8.5,65.3431458 9.84314575,64 11.5,64 C13.1568542,64 14.5,65.3431458 14.5,67 C14.5,68.6568542 13.1568542,70 11.5,70 Z M19.5,70 C17.8431458,70 16.5,68.6568542 16.5,67 C16.5,65.3431458 17.8431458,64 19.5,64 C21.1568542,64 22.5,65.3431458 22.5,67 C22.5,68.6568542 21.1568542,70 19.5,70 Z M27.5,70 C25.8431458,70 24.5,68.6568542 24.5,67 C24.5,65.3431458 25.8431458,64 27.5,64 C29.1568542,64 30.5,65.3431458 30.5,67 C30.5,68.6568542 29.1568542,70 27.5,70 Z M35.5,70 C33.8431458,70 32.5,68.6568542 32.5,67 C32.5,65.3431458 33.8431458,64 35.5,64 C37.1568542,64 38.5,65.3431458 38.5,67 C38.5,68.6568542 37.1568542,70 35.5,70 Z M43.5,70 C41.8431458,70 40.5,68.6568542 40.5,67 C40.5,65.3431458 41.8431458,64 43.5,64 C45.1568542,64 46.5,65.3431458 46.5,67 C46.5,68.6568542 45.1568542,70 43.5,70 Z M3.5,78 C1.84314575,78 0.5,76.6568542 0.5,75 C0.5,73.3431458 1.84314575,72 3.5,72 C5.15685425,72 6.5,73.3431458 6.5,75 C6.5,76.6568542 5.15685425,78 3.5,78 Z M11.5,78 C9.84314575,78 8.5,76.6568542 8.5,75 C8.5,73.3431458 9.84314575,72 11.5,72 C13.1568542,72 14.5,73.3431458 14.5,75 C14.5,76.6568542 13.1568542,78 11.5,78 Z M19.5,78 C17.8431458,78 16.5,76.6568542 16.5,75 C16.5,73.3431458 17.8431458,72 19.5,72 C21.1568542,72 22.5,73.3431458 22.5,75 C22.5,76.6568542 21.1568542,78 19.5,78 Z M27.5,78 C25.8431458,78 24.5,76.6568542 24.5,75 C24.5,73.3431458 25.8431458,72 27.5,72 C29.1568542,72 30.5,73.3431458 30.5,75 C30.5,76.6568542 29.1568542,78 27.5,78 Z M35.5,78 C33.8431458,78 32.5,76.6568542 32.5,75 C32.5,73.3431458 33.8431458,72 35.5,72 C37.1568542,72 38.5,73.3431458 38.5,75 C38.5,76.6568542 37.1568542,78 35.5,78 Z M43.5,78 C41.8431458,78 40.5,76.6568542 40.5,75 C40.5,73.3431458 41.8431458,72 43.5,72 C45.1568542,72 46.5,73.3431458 46.5,75 C46.5,76.6568542 45.1568542,78 43.5,78 Z M3.5,86 C1.84314575,86 0.5,84.6568542 0.5,83 C0.5,81.3431458 1.84314575,80 3.5,80 C5.15685425,80 6.5,81.3431458 6.5,83 C6.5,84.6568542 5.15685425,86 3.5,86 Z M11.5,86 C9.84314575,86 8.5,84.6568542 8.5,83 C8.5,81.3431458 9.84314575,80 11.5,80 C13.1568542,80 14.5,81.3431458 14.5,83 C14.5,84.6568542 13.1568542,86 11.5,86 Z M19.5,86 C17.8431458,86 16.5,84.6568542 16.5,83 C16.5,81.3431458 17.8431458,80 19.5,80 C21.1568542,80 22.5,81.3431458 22.5,83 C22.5,84.6568542 21.1568542,86 19.5,86 Z M27.5,86 C25.8431458,86 24.5,84.6568542 24.5,83 C24.5,81.3431458 25.8431458,80 27.5,80 C29.1568542,80 30.5,81.3431458 30.5,83 C30.5,84.6568542 29.1568542,86 27.5,86 Z M35.5,86 C33.8431458,86 32.5,84.6568542 32.5,83 C32.5,81.3431458 33.8431458,80 35.5,80 C37.1568542,80 38.5,81.3431458 38.5,83 C38.5,84.6568542 37.1568542,86 35.5,86 Z M43.5,86 C41.8431458,86 40.5,84.6568542 40.5,83 C40.5,81.3431458 41.8431458,80 43.5,80 C45.1568542,80 46.5,81.3431458 46.5,83 C46.5,84.6568542 45.1568542,86 43.5,86 Z M3.5,94 C1.84314575,94 0.5,92.6568542 0.5,91 C0.5,89.3431458 1.84314575,88 3.5,88 C5.15685425,88 6.5,89.3431458 6.5,91 C6.5,92.6568542 5.15685425,94 3.5,94 Z M11.5,94 C9.84314575,94 8.5,92.6568542 8.5,91 C8.5,89.3431458 9.84314575,88 11.5,88 C13.1568542,88 14.5,89.3431458 14.5,91 C14.5,92.6568542 13.1568542,94 11.5,94 Z M19.5,94 C17.8431458,94 16.5,92.6568542 16.5,91 C16.5,89.3431458 17.8431458,88 19.5,88 C21.1568542,88 22.5,89.3431458 22.5,91 C22.5,92.6568542 21.1568542,94 19.5,94 Z M27.5,94 C25.8431458,94 24.5,92.6568542 24.5,91 C24.5,89.3431458 25.8431458,88 27.5,88 C29.1568542,88 30.5,89.3431458 30.5,91 C30.5,92.6568542 29.1568542,94 27.5,94 Z M35.5,94 C33.8431458,94 32.5,92.6568542 32.5,91 C32.5,89.3431458 33.8431458,88 35.5,88 C37.1568542,88 38.5,89.3431458 38.5,91 C38.5,92.6568542 37.1568542,94 35.5,94 Z M43.5,94 C41.8431458,94 40.5,92.6568542 40.5,91 C40.5,89.3431458 41.8431458,88 43.5,88 C45.1568542,88 46.5,89.3431458 46.5,91 C46.5,92.6568542 45.1568542,94 43.5,94 Z M3.5,102 C1.84314575,102 0.5,100.656854 0.5,99 C0.5,97.3431458 1.84314575,96 3.5,96 C5.15685425,96 6.5,97.3431458 6.5,99 C6.5,100.656854 5.15685425,102 3.5,102 Z M11.5,102 C9.84314575,102 8.5,100.656854 8.5,99 C8.5,97.3431458 9.84314575,96 11.5,96 C13.1568542,96 14.5,97.3431458 14.5,99 C14.5,100.656854 13.1568542,102 11.5,102 Z M19.5,102 C17.8431458,102 16.5,100.656854 16.5,99 C16.5,97.3431458 17.8431458,96 19.5,96 C21.1568542,96 22.5,97.3431458 22.5,99 C22.5,100.656854 21.1568542,102 19.5,102 Z M27.5,102 C25.8431458,102 24.5,100.656854 24.5,99 C24.5,97.3431458 25.8431458,96 27.5,96 C29.1568542,96 30.5,97.3431458 30.5,99 C30.5,100.656854 29.1568542,102 27.5,102 Z M35.5,102 C33.8431458,102 32.5,100.656854 32.5,99 C32.5,97.3431458 33.8431458,96 35.5,96 C37.1568542,96 38.5,97.3431458 38.5,99 C38.5,100.656854 37.1568542,102 35.5,102 Z M43.5,102 C41.8431458,102 40.5,100.656854 40.5,99 C40.5,97.3431458 41.8431458,96 43.5,96 C45.1568542,96 46.5,97.3431458 46.5,99 C46.5,100.656854 45.1568542,102 43.5,102 Z M3.5,110 C1.84314575,110 0.5,108.656854 0.5,107 C0.5,105.343146 1.84314575,104 3.5,104 C5.15685425,104 6.5,105.343146 6.5,107 C6.5,108.656854 5.15685425,110 3.5,110 Z M11.5,110 C9.84314575,110 8.5,108.656854 8.5,107 C8.5,105.343146 9.84314575,104 11.5,104 C13.1568542,104 14.5,105.343146 14.5,107 C14.5,108.656854 13.1568542,110 11.5,110 Z M19.5,110 C17.8431458,110 16.5,108.656854 16.5,107 C16.5,105.343146 17.8431458,104 19.5,104 C21.1568542,104 22.5,105.343146 22.5,107 C22.5,108.656854 21.1568542,110 19.5,110 Z M27.5,110 C25.8431458,110 24.5,108.656854 24.5,107 C24.5,105.343146 25.8431458,104 27.5,104 C29.1568542,104 30.5,105.343146 30.5,107 C30.5,108.656854 29.1568542,110 27.5,110 Z M35.5,110 C33.8431458,110 32.5,108.656854 32.5,107 C32.5,105.343146 33.8431458,104 35.5,104 C37.1568542,104 38.5,105.343146 38.5,107 C38.5,108.656854 37.1568542,110 35.5,110 Z M43.5,110 C41.8431458,110 40.5,108.656854 40.5,107 C40.5,105.343146 41.8431458,104 43.5,104 C45.1568542,104 46.5,105.343146 46.5,107 C46.5,108.656854 45.1568542,110 43.5,110 Z" id="path-16"></path>
    </defs>
    <g id="Design-draft-2" stroke="none" stroke-width="1" fill="none" fill-rule="evenodd">
        <g id="Leaftech-Web-Design" transform="translate(-381.000000, -2160.000000)">
            <g id="Block-3" transform="translate(97.000000, 1202.000000)">
                <g id="Block-3c" transform="translate(0.000000, 862.000000)">
                    <g id="Visuals---Virtual-Window" transform="translate(0.000000, 96.000000)">
                        <g id="Virtual-sensor-data" transform="translate(284.000000, 0.000000)">
                            <g id="Window-virtual-sensors">
                                <rect id="Rectangle-9" fill="#EDEDED" x="58" y="45" width="146" height="141"></rect>
                                <g id="Panel---R" transform="translate(60.405248, 49.246988)">
                                    <g id="Outer-window">
                                        <use fill="black" fill-opacity="1" filter="url(#filter-2)" xlink:href="#path-1"></use>
                                        <use fill="#F7F7F7" fill-rule="evenodd" xlink:href="#path-1"></use>
                                        <path stroke="#FFFFFF" stroke-width="0.5" d="M1.25,0.25 L1.25,131.406627 L70.1319242,131.406627 L70.1319242,0.25 L1.25,0.25 Z"></path>
                                    </g>
                                    <g id="Inner-window-blue">
                                        <use fill="#75AFEF" fill-rule="evenodd" xlink:href="#path-3"></use>
                                        <use fill="black" fill-opacity="1" filter="url(#filter-4)" xlink:href="#path-3"></use>
                                    </g>
                                    <path d="M9.19436953,7.75052711 L62.6132106,7.75052711 L62.6132106,123.906099 L9.19436953,123.906099 L9.19436953,7.75052711 Z" id="Inner-window---Grey-outside" stroke="#F2F2F2" stroke-width="0.6375"></path>
                                    <path d="M9.26311953,7.81927711 L62.5444606,7.81927711 L62.5444606,123.837349 L9.26311953,123.837349 L9.26311953,7.81927711 Z" id="Inner-window---white-inside" stroke="#FFFFFF" stroke-width="0.5"></path>
                                    <g id="Corners" transform="translate(35.807580, 66.000000) scale(-1, 1) translate(-35.807580, -66.000000) translate(0.807580, -0.000000)" stroke="#E6E6E6" stroke-width="0.5" stroke-linecap="square" stroke-linejoin="bevel">
                                        <path d="M0,0 L7.87463557,7.43222892" id="Corner-top-left"></path>
                                        <path d="M61.2944606,123.587349 L69.1690962,131.019578" id="Corner-top-left"></path>
                                        <path d="M0.212827988,123.799699 L8.08746356,131.231928" id="Corner-top-left" transform="translate(4.150146, 127.515813) scale(-1, 1) rotate(-180.000000) translate(-4.150146, -127.515813) "></path>
                                        <path d="M61.5072886,0.212349398 L69.3819242,7.64457831" id="Corner-top-left" transform="translate(65.444606, 3.928464) scale(-1, 1) rotate(-180.000000) translate(-65.444606, -3.928464) "></path>
                                    </g>
                                    <g id="Handle" transform="translate(64.422741, 57.334337)">
                                        <g id="Rectangle-10">
                                            <use fill="#EFEFEF" fill-rule="evenodd" xlink:href="#path-5"></use>
                                            <rect stroke="#FFFFFF" stroke-width="0.5" x="0.25" y="0.25" width="3.75655977" height="5.44578313" rx="1.7"></rect>
                                        </g>
                                        <g id="Rectangle-10">
                                            <use fill="url(#linearGradient-6)" fill-rule="evenodd" xlink:href="#path-7"></use>
                                            <rect stroke="#E1E1E1" stroke-width="0.5" x="1.10131195" y="1.09939759" width="2.05393586" height="16.063253" rx="1.02696793"></rect>
                                        </g>
                                    </g>
                                </g>
                                <g id="Panel---L" transform="translate(130.638484, 49.246988)">
                                    <g id="Outer-window">
                                        <use fill="black" fill-opacity="1" filter="url(#filter-9)" xlink:href="#path-8"></use>
                                        <use fill="#F7F7F7" fill-rule="evenodd" xlink:href="#path-8"></use>
                                        <path stroke="#FFFFFF" stroke-width="0.5" d="M1.25,0.25 L1.25,131.406627 L70.1319242,131.406627 L70.1319242,0.25 L1.25,0.25 Z"></path>
                                    </g>
                                    <g id="Inner-window-blue">
                                        <use fill="#75AFEF" fill-rule="evenodd" xlink:href="#path-10"></use>
                                        <use fill="black" fill-opacity="1" filter="url(#filter-11)" xlink:href="#path-10"></use>
                                    </g>
                                    <path d="M9.19436953,7.75052711 L62.6132106,7.75052711 L62.6132106,123.906099 L9.19436953,123.906099 L9.19436953,7.75052711 Z" id="Inner-window---Grey-outside" stroke="#F2F2F2" stroke-width="0.6375"></path>
                                    <path d="M9.26311953,7.81927711 L62.5444606,7.81927711 L62.5444606,123.837349 L9.26311953,123.837349 L9.26311953,7.81927711 Z" id="Inner-window---white-inside" stroke="#FFFFFF" stroke-width="0.5"></path>
                                    <g id="Corners" transform="translate(35.807580, 66.000000) scale(-1, 1) translate(-35.807580, -66.000000) translate(0.807580, 0.000000)" stroke="#E6E6E6" stroke-width="0.5" stroke-linecap="square" stroke-linejoin="bevel">
                                        <path d="M0,0 L7.87463557,7.43222892" id="Corner-top-left"></path>
                                        <path d="M61.2944606,123.587349 L69.1690962,131.019578" id="Corner-top-left"></path>
                                        <path d="M0.212827988,123.799699 L8.08746356,131.231928" id="Corner-top-left" transform="translate(4.150146, 127.515813) scale(-1, 1) rotate(-180.000000) translate(-4.150146, -127.515813) "></path>
                                        <path d="M61.5072886,0.212349398 L69.3819242,7.64457831" id="Corner-top-left" transform="translate(65.444606, 3.928464) scale(-1, 1) rotate(-180.000000) translate(-65.444606, -3.928464) "></path>
                                    </g>
                                    <g id="Handle" transform="translate(3.128280, 57.334337)">
                                        <g id="Rectangle-10">
                                            <use fill="#EFEFEF" fill-rule="evenodd" xlink:href="#path-12"></use>
                                            <rect stroke="#FFFFFF" stroke-width="0.5" x="0.25" y="0.25" width="3.75655977" height="5.44578313" rx="1.7"></rect>
                                        </g>
                                        <g id="Rectangle-10">
                                            <use fill="url(#linearGradient-6)" fill-rule="evenodd" xlink:href="#path-13"></use>
                                            <rect stroke="#E1E1E1" stroke-width="0.5" x="1.10131195" y="1.09939759" width="2.05393586" height="16.063253" rx="1.02696793"></rect>
                                        </g>
                                    </g>
                                </g>
                                <g id="Virtual-sensors" transform="translate(73.000000, 60.000000)">
                                    <g id="Mask">
                                        <mask id="mask-15" fill="white">
                                            <use xlink:href="#path-14"></use>
                                        </mask>
                                        <use fill="#FFFFFF" xlink:href="#path-14"></use>
                                        <circle id="Oval-8-Copy-3" fill="#000000" opacity="0.5" mask="url(#mask-15)" cx="9" cy="22" r="82"></circle>
                                    </g>
                                </g>
                                <g id="Virtual-sensors-Copy" transform="translate(143.000000, 60.000000)">
                                    <g id="Mask">
                                        <mask id="mask-17" fill="white">
                                            <use xlink:href="#path-16"></use>
                                        </mask>
                                        <use fill="#FFFFFF" xlink:href="#path-16"></use>
                                        <circle id="Oval-8-Copy-3" fill="#000000" opacity="0.5" mask="url(#mask-17)" cx="-61" cy="22" r="82"></circle>
                                    </g>
                                </g>
                                <circle id="Oval-8-Copy-3" fill="#000000" opacity="0.5" cx="82" cy="82" r="82"></circle>
                            </g>
                        </g>
                    </g>
                </g>
            </g>
        </g>
    </g>
</svg>