<?xml version="1.0" encoding="UTF-8"?>
<svg width="20px" height="24px" viewBox="0 0 20 24" version="1.1" xmlns="http://www.w3.org/2000/svg" xmlns:xlink="http://www.w3.org/1999/xlink">
    <!-- Generator: Sketch 46.2 (44496) - http://www.bohemiancoding.com/sketch -->
    <title>In</title>
    <desc>Created with Sketch.</desc>
    <defs></defs>
    <g id="Design-draft-2" stroke="none" stroke-width="1" fill="none" fill-rule="evenodd">
        <g id="Leaftech-Web-Design" transform="translate(-469.000000, -3755.000000)">
            <g id="Block-7" transform="translate(0.000000, 3544.000000)">
                <g id="Team" transform="translate(197.000000, 142.000000)">
                    <g id="Anjan" transform="translate(169.000000, 0.000000)">
                        <g id="In" transform="translate(103.000000, 69.000000)">
                            <polygon id="Polygon-3" fill="#404040" points="9.95929214 0 19.9185843 6 19.9185843 18 9.95929214 24 1.13242749e-14 18 5.10702591e-15 6"></polygon>
                            <path d="M7.30345532,15.3884294 L7.30345532,8 L5.63578125,8 L5.63578125,15.3884294 L7.30345532,15.3884294 Z M12.4964657,9.64656427 C11.6098542,9.65711917 10.9343406,9.99487594 10.5332545,10.7020542 L10.5332545,9.70989366 L8.90779999,9.70989366 L8.90779999,15.3884294 L10.5332545,15.3884294 L10.5332545,12.5913811 C10.5332545,11.7575441 11.0187798,11.1453599 11.8315071,11.134805 C12.5281304,11.134805 12.9503264,11.5781108 12.9503264,12.295844 L12.9503264,15.3884294 L14.5757808,15.3884294 L14.5757808,11.8208735 C14.5757808,10.4909562 13.7630536,9.64656427 12.4964657,9.64656427 Z" fill="#FFFFFF"></path>
                        </g>
                    </g>
                </g>
            </g>
        </g>
    </g>
</svg>