<?xml version="1.0" encoding="UTF-8"?>
<svg width="34px" height="38px" viewBox="0 0 34 38" version="1.1" xmlns="http://www.w3.org/2000/svg" xmlns:xlink="http://www.w3.org/1999/xlink">
    <!-- Generator: Sketch 46.2 (44496) - http://www.bohemiancoding.com/sketch -->
    <title>Location</title>
    <desc>Created with Sketch.</desc>
    <defs></defs>
    <g id="Design-draft-2" stroke="none" stroke-width="1" fill="none" fill-rule="evenodd">
        <g id="Leaftech-Web-Design" transform="translate(-594.000000, -4564.000000)">
            <g id="Block-8" transform="translate(0.000000, 4030.000000)">
                <g id="Leaftech-contact-&amp;-description" transform="translate(533.000000, 361.000000)">
                    <g id="Contact" transform="translate(63.000000, 126.000000)">
                        <g id="Location" transform="translate(0.000000, 49.000000)">
                            <path d="M16.6814386,-0.071375205 L28.8463084,7.00114388 C29.8854221,7.60527293 30.525,8.72080329 30.525,9.92748092 L30.525,24.0725191 C30.525,25.2791967 29.8854221,26.3947271 28.8463084,26.9988561 L16.6814386,34.0713752 C15.6411141,34.6762083 14.3588859,34.6762083 13.3185614,34.0713752 L1.1536916,26.9988561 C0.114577937,26.3947271 -0.525,25.2791967 -0.525,24.0725191 L-0.525,9.92748092 C-0.525,8.72080329 0.114577937,7.60527293 1.1536916,7.00114388 L13.3185614,-0.071375205 C14.3588859,-0.676208265 15.6411141,-0.676208265 16.6814386,-0.071375205 Z" id="Mask-Copy-37" stroke="#FFFFFF" stroke-width="1.05" stroke-linecap="round" stroke-linejoin="round" transform="translate(15.000000, 17.000000) rotate(-180.000000) translate(-15.000000, -17.000000) "></path>
                            <g transform="translate(5.581395, 6.244898)">
                                <g id="Group-22" fill="#FFFFFF">
                                    <path d="M3.21111034,11.7959184 C2.99714863,11.7959184 2.80474289,11.9138381 2.72527951,12.0936697 L0.03794101,18.175316 C-0.0995422351,18.4864507 0.15358687,18.824898 0.523771837,18.824898 L18.6633067,18.824898 C19.0334917,18.824898 19.2866208,18.4864507 19.1491375,18.175316 L16.461799,12.0936697 C16.3823357,11.9138381 16.1899299,11.7959184 15.9759682,11.7959184 L12.6573338,11.7959184 L11.8604651,12.7432517 L15.6217068,12.7432517 L17.8904406,17.8775647 L1.29663792,17.8775647 L3.56537177,12.7432517 L7.3255814,12.7432517 L6.62790698,11.7959184 L3.21111034,11.7959184 Z" id="Combined-Shape-Copy-3"></path>
                                    <path d="M9.70398285,13.7069254 L9.93231266,13.450987 C10.10356,13.2234861 14.4132852,8.1047173 14.4132852,4.69220475 C14.4132852,2.10438274 12.3012344,0 9.70398285,0 C7.10673126,0 5.02322175,2.10438274 5.02322175,4.69220475 C5.02322175,8.1047173 9.33294691,13.2519237 9.50419426,13.450987 L9.70398285,13.7069254 Z M9.70398285,0.568752091 C11.9872809,0.568752091 13.8424606,2.41719639 13.8424606,4.69220475 C13.8424606,7.47909 10.5887609,11.7162931 9.70398285,12.8253597 C8.81920483,11.7162931 5.59404627,7.47909 5.59404627,4.69220475 C5.59404627,2.41719639 7.44922598,0.568752091 9.70398285,0.568752091 Z" id="Shape-Copy-7" stroke="#FFFFFF" stroke-width="0.504" fill-rule="nonzero"></path>
                                </g>
                                <ellipse id="Oval-6" stroke="#FFFFFF" stroke-width="1.05" cx="9.76744186" cy="5.20408163" rx="1.21918605" ry="1.20969388"></ellipse>
                            </g>
                        </g>
                    </g>
                </g>
            </g>
        </g>
    </g>
</svg>