<?xml version="1.0" encoding="UTF-8"?>
<svg width="48px" height="54px" viewBox="0 0 48 54" version="1.1" xmlns="http://www.w3.org/2000/svg" xmlns:xlink="http://www.w3.org/1999/xlink">
    <!-- Generator: Sketch 46.2 (44496) - http://www.bohemiancoding.com/sketch -->
    <title>Cloud based</title>
    <desc>Created with Sketch.</desc>
    <defs></defs>
    <g id="Design-draft-2" stroke="none" stroke-width="1" fill="none" fill-rule="evenodd">
        <g id="Leaftech-Web-Design" transform="translate(-327.000000, -263.000000)">
            <g id="Block-1">
                <g id="Icons" transform="translate(317.000000, 265.000000)">
                    <g id="Cloud-based" transform="translate(12.000000, 0.000000)">
                        <path d="M24.2092232,-0.0974494518 L41.8634905,10.222708 C43.3701362,11.1034481 44.296875,12.7286796 44.296875,14.4860926 L44.296875,35.1264074 C44.296875,36.8838204 43.3701362,38.5090519 41.8634905,39.389792 L24.2092232,49.7099495 C22.6994516,50.5925168 20.8380484,50.5925168 19.3282768,49.7099495 L1.67400952,39.389792 C0.167363792,38.5090519 -0.759375,36.8838204 -0.759375,35.1264074 L-0.759375,14.4860926 C-0.759375,12.7286796 0.167363792,11.1034481 1.67400952,10.222708 L19.3282768,-0.0974494518 C20.8380484,-0.980016849 22.6994516,-0.980016849 24.2092232,-0.0974494518 Z" id="Mask-Copy-21" stroke="#FFFFFF" stroke-width="1.51875" stroke-linecap="round" stroke-linejoin="round"></path>
                        <g id="Icon" transform="translate(18.000000, 23.250000)" fill="#FFFFFF">
                            <g id="Group-10" transform="translate(0.435000, 0.281021)">
                                <path d="M3.83203585,0.558477717 C4.13430165,0.866392481 4.13430165,1.36562095 3.83203585,1.67353572 L1.64097063,3.90554915 C1.33870483,4.21346392 0.848635139,4.21346392 0.546369337,3.90554915 C0.244103535,3.59763439 0.244103535,3.09840591 0.546369337,2.79049115 L2.73743455,0.558477717 C3.03970036,0.250562952 3.52977005,0.250562952 3.83203585,0.558477717 Z" id="Rectangle-Copy"></path>
                                <path d="M2.73619281,0.557845239 C3.03845861,0.249930475 3.5285283,0.249930475 3.8307941,0.557845239 L6.02185932,2.78985867 C6.32412512,3.09777344 6.32412512,3.59700191 6.02185932,3.90491667 C5.71959352,4.21283144 5.22952383,4.21283144 4.92725802,3.90491667 L2.73619281,1.67290324 C2.433927,1.36498848 2.433927,0.865760003 2.73619281,0.557845239 Z" id="Rectangle-Copy"></path>
                                <path d="M3.25076221,1.57782461 C3.6782306,1.57782461 4.02476221,1.93083244 4.02476221,2.36628968 L4.02476221,10.2563072 C4.02476221,10.6917644 3.6782306,11.0447722 3.25076221,11.0447722 C2.82329381,11.0447722 2.47676221,10.6917644 2.47676221,10.2563072 L2.47676221,2.36628968 C2.47676221,1.93083244 2.82329381,1.57782461 3.25076221,1.57782461 Z" id="Rectangle"></path>
                            </g>
                        </g>
                        <path d="M14.9375889,22.0053748 C14.937376,21.9831578 14.936093,21.9607491 14.933696,21.9382022 C14.9184475,21.7947692 14.9105687,21.6439465 14.9105687,21.4973749 C14.9102186,19.6121108 16.1357141,17.941211 17.9460297,17.3582925 C19.7562155,16.7754159 21.7396087,17.4128726 22.8590604,18.9374254 C23.2979255,19.550441 24.1229477,19.7724223 24.8226292,19.4601962 C25.1650995,19.3039272 25.5318513,19.2244661 25.9029458,19.2248534 C27.3247631,19.2247555 28.4816248,20.3566786 28.4984234,21.7639914 C28.5065398,22.4526482 28.9622216,23.0578 29.6268351,23.2621772 C31.5073639,23.8279226 32.6800824,25.6717539 32.3834736,27.59147 C32.0868774,29.5111053 30.4111988,30.9233325 28.4503119,30.9065451 C26.8718328,30.906519 26.8718328,30.906519 25.8985515,30.906519 C25.5093564,30.906519 25.1938515,31.2187374 25.1938515,31.6038784 C25.1938515,31.9890193 25.5093564,32.3012377 25.8985515,32.3012377 L28.4442156,32.3012377 C31.0998842,32.3239994 33.374195,30.4072573 33.7766828,27.8022687 C34.1791582,25.1973609 32.5877207,22.6951901 30.0409252,21.9290212 C29.9642498,21.9054286 29.908717,21.8316803 29.9077263,21.7476217 C29.8818108,19.5765382 28.0967759,17.8299833 25.9036397,17.830135 C25.32903,17.8295349 24.7603716,17.9527414 24.2378211,18.1912231 C24.1583012,18.2266805 24.058133,18.1997292 24.0041428,18.1243251 C22.5207909,16.1041014 19.9009865,15.2621039 17.5099338,16.0320187 C15.1190109,16.8018917 13.5007064,19.0083663 13.5011687,21.4975031 C13.5011687,21.6923395 13.5115915,21.8918621 13.5320313,22.0841262 C13.5373652,22.1342989 13.5479506,22.1826667 13.5631902,22.228751 C13.5171975,22.2410921 13.4717862,22.2582612 13.4276269,22.2804746 C11.2218773,23.3900283 10.0721166,25.8520495 10.6469604,28.2344682 C11.2218307,30.6169967 13.371579,32.2987123 15.8458362,32.3012374 L18.4222673,32.3012377 C18.8114624,32.3012377 19.1269673,31.9890193 19.1269673,31.6038784 C19.1269673,31.2187374 18.8114624,30.906519 18.4222673,30.906519 L15.846563,30.906519 C14.0249127,30.9046595 12.4413564,29.6658674 12.017824,27.9105534 C11.6105644,26.2226811 12.3780767,24.4806702 13.8821795,23.6225103 C14.6622906,23.3103501 15.0250789,22.7637617 14.9375889,22.0053748 Z" id="Combined-Shape" fill="#FFFFFF"></path>
                    </g>
                </g>
            </g>
        </g>
    </g>
</svg>