<?xml version="1.0" encoding="UTF-8"?>
<svg width="49px" height="65px" viewBox="0 0 49 65" version="1.1" xmlns="http://www.w3.org/2000/svg" xmlns:xlink="http://www.w3.org/1999/xlink">
    <!-- Generator: Sketch 46.2 (44496) - http://www.bohemiancoding.com/sketch -->
    <title>Icon</title>
    <desc>Created with Sketch.</desc>
    <defs>
        <path d="M31.4126418,46.2450283 L36.8126418,43.2566955 L36.8126418,43.2566955 C37.1992229,43.0427635 37.6860349,43.1827232 37.8999669,43.5693042 C37.9655794,43.6878678 38,43.8211548 38,43.9566624 L38,57.1262353 L31,61 L31,46.9449952 L31,46.9449952 C31,46.6539881 31.1580227,46.3859333 31.4126418,46.2450283 Z" id="path-1"></path>
        <path d="M4.40507798,40.2890371 L9.80507798,37.2237863 L9.80507798,37.2237863 C10.1893176,37.0056769 10.677618,37.1403521 10.8957274,37.5245917 C10.9640714,37.6449922 11,37.7810681 11,37.9195137 L11,44.0152355 L11,44.0152355 C11,44.3031395 10.8453003,44.5688384 10.594922,44.7109629 L5.19492202,47.7762137 L5.19492202,47.7762137 C4.81068239,47.9943231 4.32238202,47.8596479 4.10427261,47.4754083 C4.0359286,47.3550078 4,47.2189319 4,47.0804863 L4,40.9847645 L4,40.9847645 C4,40.6968605 4.15469965,40.4311616 4.40507798,40.2890371 Z" id="path-2"></path>
        <path d="M5.88445825,3.55777088 L10.763932,1.11803399 L10.763932,1.11803399 C11.5271708,0.736414612 12.4552617,1.04577824 12.836881,1.80901699 C12.9441528,2.02356044 13,2.26013314 13,2.5 L13,4.11320377 L13,4.11320377 C13,4.66486783 12.7158085,5.1776197 12.2479983,5.47000106 L5,10 L5,4.98885438 L5,4.98885438 C5,4.38281909 5.3424038,3.8287981 5.88445825,3.55777088 Z" id="path-3"></path>
    </defs>
    <g id="Design-draft-2" stroke="none" stroke-width="1" fill="none" fill-rule="evenodd">
        <g id="Block-5-Copy" transform="translate(2.000000, -72.000000)">
            <g id="Seamless_plug_and_play">
                <g id="Icon" transform="translate(0.000000, 69.000000)">
                    <path d="M23.3639133,17.8929848 L40.394731,27.8777176 C41.8532252,28.7327955 42.75,30.3100639 42.75,32.0152672 L42.75,51.9847328 C42.75,53.6899361 41.8532252,55.2672045 40.394731,56.1222824 L23.3639133,66.1070152 C21.9016065,66.9643283 20.0983935,66.9643283 18.6360867,66.1070152 L1.60526903,56.1222824 C0.146774814,55.2672045 -0.75,53.6899361 -0.75,51.9847328 L-0.75,32.0152672 C-0.75,30.3100639 0.146774814,28.7327955 1.60526903,27.8777176 L18.6360867,17.8929848 C20.0983935,17.0356717 21.9016065,17.0356717 23.3639133,17.8929848 Z" id="Mask-Copy-21" stroke="#FFFFFF" stroke-width="1.5" stroke-linecap="round" stroke-linejoin="round"></path>
                    <g id="Smart-home-Copy" transform="translate(39.000000, 9.500000) rotate(35.000000) translate(-39.000000, -9.500000) translate(32.000000, 4.000000)" fill-rule="nonzero" fill="#FFFFFF">
                        <path d="M1.53364241,3.89824561 C0.704808412,4.67017544 -0.558176735,3.43508772 0.270657267,2.66315789 C4.17801756,-0.887719298 9.86145072,-0.887719298 13.7293427,2.66315789 C14.5581767,3.43508772 13.2951916,4.67017544 12.4663576,3.89824561 C9.30889472,1.00350877 4.69110528,1.00350877 1.53364241,3.89824561 Z M4.45429556,6.87017544 C3.62546156,7.60350877 2.36247642,6.36842105 3.2307787,5.63508772 C5.44100271,3.62807018 8.63793386,3.62807018 10.8481579,5.63508772 C11.6769919,6.40701754 10.4140067,7.64210526 9.58517272,6.87017544 C8.08537786,5.51929825 5.95409043,5.51929825 4.45429556,6.87017544 Z M6.70398786,11 C5.87567403,11 5.204193,10.343351 5.204193,9.53333333 C5.204193,8.7233157 5.87567403,8.06666667 6.70398786,8.06666667 C7.53230169,8.06666667 8.20378272,8.7233157 8.20378272,9.53333333 C8.20378272,10.343351 7.53230169,11 6.70398786,11 Z" id="Combined-Shape"></path>
                    </g>
                    <rect id="Rectangle-7" fill="#FFFFFF" x="21" y="42" width="2" height="24"></rect>
                    <polyline id="Path-3" stroke="#FFFFFF" stroke-width="1.5" points="0 30 21.4883721 42 44 30"></polyline>
                    <g id="Rectangle-9">
                        <use fill="#FFFFFF" fill-rule="evenodd" xlink:href="#path-1"></use>
                        <path stroke="#FFFFFF" stroke-width="1.2" d="M31.6,59.9822163 L37.4,56.7725255 L37.4,43.9566624 C37.4,43.9227855 37.3913948,43.8894637 37.3749917,43.8598229 C37.3215087,43.7631776 37.1998057,43.7281877 37.1031605,43.7816707 L31.7031605,46.7700035 C31.6395057,46.8052297 31.6,46.8722434 31.6,46.9449952 L31.6,59.9822163 Z"></path>
                    </g>
                    <g id="Rectangle-9-Copy" transform="translate(7.500000, 42.500000) scale(-1, 1) translate(-7.500000, -42.500000) ">
                        <use fill="#FFFFFF" fill-rule="evenodd" xlink:href="#path-2"></use>
                        <path stroke="#FFFFFF" stroke-width="1.2" d="M4.7012695,40.8108326 C4.63867491,40.8463638 4.6,40.9127885 4.6,40.9847645 L4.6,47.0804863 C4.6,47.1150977 4.60898215,47.1491166 4.62606815,47.1792168 C4.6805955,47.2752767 4.8026706,47.3089455 4.8987305,47.2544181 L10.2987305,44.1891674 C10.3613251,44.1536362 10.4,44.0872115 10.4,44.0152355 L10.4,37.9195137 C10.4,37.8849023 10.3910179,37.8508834 10.3739318,37.8207832 C10.3194045,37.7247233 10.1973294,37.6910545 10.1012695,37.7455819 L4.7012695,40.8108326 Z"></path>
                    </g>
                    <g id="Group-15" transform="translate(23.000000, 14.000000)">
                        <g id="Rectangle-8" transform="translate(9.000000, 5.477288) scale(-1, 1) translate(-9.000000, -5.477288) ">
                            <use fill="#FFFFFF" fill-rule="evenodd" xlink:href="#path-3"></use>
                            <path stroke="#FFFFFF" stroke-width="1.2" d="M5.6,8.91745142 L11.9299989,4.96120208 C12.2223803,4.77846373 12.4,4.45799381 12.4,4.11320377 L12.4,2.5 C12.4,2.35328019 12.3658398,2.20857534 12.3002247,2.07734515 C12.0667989,1.6104935 11.4991118,1.42126448 11.0322602,1.6546903 L6.1527864,4.09442719 C5.81400238,4.26381921 5.6,4.61008232 5.6,4.98885438 L5.6,8.91745142 Z"></path>
                        </g>
                        <path d="M4.50661009,6.26957375 L11.2959929,6.09498437 L11.2959929,6.09498437 C11.7376747,6.0836265 12.1049359,6.43247296 12.1162937,6.87415475 C12.1196771,7.00572609 12.0905466,7.1360999 12.0314847,7.25371858 L9.87712019,11.5440209 L9.87712019,11.5440209 C9.74468153,11.8077654 9.47779043,11.9771712 9.18275886,11.9847579 L2.39337609,12.1593473 L2.39337609,12.1593473 C1.9516943,12.1707052 1.58443309,11.8218587 1.57307521,11.3801769 C1.56969185,11.2486056 1.59882233,11.1182318 1.65788426,11.0006131 L3.81224876,6.71031079 L3.81224876,6.71031079 C3.94468742,6.44656624 4.21157852,6.27716051 4.50661009,6.26957375 Z" id="Rectangle-10" fill="#FFFFFF" transform="translate(6.844684, 9.127166) rotate(-327.000000) translate(-6.844684, -9.127166) "></path>
                        <polygon id="Path-4" fill="#FFFFFF" points="5.5 1.5 1.5 8 5.5 11 9 5.5"></polygon>
                    </g>
                </g>
            </g>
        </g>
    </g>
</svg>