<?xml version="1.0" encoding="UTF-8"?>
<svg width="368px" height="210px" viewBox="0 0 368 210" version="1.1" xmlns="http://www.w3.org/2000/svg" xmlns:xlink="http://www.w3.org/1999/xlink">
    <!-- Generator: Sketch 46.2 (44496) - http://www.bohemiancoding.com/sketch -->
    <title>Block 5 Copy</title>
    <desc>Created with Sketch.</desc>
    <defs>
        <path d="M31.4126418,46.2450283 L36.8126418,43.2566955 L36.8126418,43.2566955 C37.1992229,43.0427635 37.6860349,43.1827232 37.8999669,43.5693042 C37.9655794,43.6878678 38,43.8211548 38,43.9566624 L38,57.1262353 L31,61 L31,46.9449952 L31,46.9449952 C31,46.6539881 31.1580227,46.3859333 31.4126418,46.2450283 Z" id="path-1"></path>
        <path d="M4.40507798,40.2890371 L9.80507798,37.2237863 L9.80507798,37.2237863 C10.1893176,37.0056769 10.677618,37.1403521 10.8957274,37.5245917 C10.9640714,37.6449922 11,37.7810681 11,37.9195137 L11,44.0152355 L11,44.0152355 C11,44.3031395 10.8453003,44.5688384 10.594922,44.7109629 L5.19492202,47.7762137 L5.19492202,47.7762137 C4.81068239,47.9943231 4.32238202,47.8596479 4.10427261,47.4754083 C4.0359286,47.3550078 4,47.2189319 4,47.0804863 L4,40.9847645 L4,40.9847645 C4,40.6968605 4.15469965,40.4311616 4.40507798,40.2890371 Z" id="path-2"></path>
        <path d="M5.88445825,3.55777088 L10.763932,1.11803399 L10.763932,1.11803399 C11.5271708,0.736414612 12.4552617,1.04577824 12.836881,1.80901699 C12.9441528,2.02356044 13,2.26013314 13,2.5 L13,4.11320377 L13,4.11320377 C13,4.66486783 12.7158085,5.1776197 12.2479983,5.47000106 L5,10 L5,4.98885438 L5,4.98885438 C5,4.38281909 5.3424038,3.8287981 5.88445825,3.55777088 Z" id="path-3"></path>
    </defs>
    <g id="Design-draft-2" stroke="none" stroke-width="1" fill="none" fill-rule="evenodd">
        <g id="Block-5-Copy" transform="translate(2.000000, 0.000000)">
            <g id="Seamless_plug_and_play">
                <g id="Icon" transform="translate(321.000000, 92.000000)">
                    <path d="M24.2380056,-0.111996058 L41.1761385,9.78953066 C42.6282606,10.6383978 43.5214286,12.2047559 43.5214286,13.8984733 L43.5214286,33.7015267 C43.5214286,35.3952441 42.6282606,36.9616022 41.1761385,37.8104693 L24.2380056,47.7119961 C22.7827962,48.562668 20.9886323,48.562668 19.533423,47.7119961 L2.59529007,37.8104693 C1.14316802,36.9616022 0.25,35.3952441 0.25,33.7015267 L0.25,13.8984733 C0.25,12.2047559 1.14316802,10.6383978 2.59529007,9.78953066 L19.533423,-0.111996058 C20.9886323,-0.962667981 22.7827962,-0.962667981 24.2380056,-0.111996058 Z" id="Mask-Copy-29" stroke="#FFFFFF" stroke-width="1.5" stroke-linecap="round" stroke-linejoin="round"></path>
                    <g id="Group-12-Copy" transform="translate(0.500000, 7.714286)" fill-rule="nonzero">
                        <rect id="Rectangle-path" fill="#FFFFFF" x="6" y="2" width="3.64285714" height="3.64285714"></rect>
                        <rect id="Rectangle-path" fill="#FFFFFF" x="3" y="2" width="3.64285714" height="3.64285714"></rect>
                        <polygon id="Rectangle-path" fill="#FFFFFF" points="1 2 4.64285714 2 4.64285714 5.64285714 0 5.64285714"></polygon>
                        <rect id="Rectangle-path" fill="#FFFFFF" x="12.6428571" y="2" width="3.64285714" height="3.64285714"></rect>
                        <path d="M23.4642857,0 L20.1428571,0 L20.1428571,3.64285714 L23.4642857,3.64285714 L26.7857143,3.64285714 L26.7857143,0 L23.4642857,0 Z" id="Combined-Shape" stroke="#FFFFFF"></path>
                        <polygon id="Rectangle-path" fill="#FFFFFF" points="39.1428571 2 40.7857143 2 42.7857143 5.64285714 39.1428571 5.64285714"></polygon>
                        <rect id="Rectangle-path" fill="#FFFFFF" x="36.1428571" y="2" width="3.64285714" height="3.64285714"></rect>
                        <rect id="Rectangle-path" fill="#FFFFFF" x="33.1428571" y="2" width="3.64285714" height="3.64285714"></rect>
                        <path d="M10.1673579,27.5 L19.9754992,27.5 C20.6202699,27.5 21.1428571,26.9655453 21.1428571,26.3061325 L21.1428571,12.9081532 C21.1428571,12.2487404 20.6202699,11.7142857 19.9754992,11.7142857 L10.1673579,11.7142857 C9.52258723,11.7142857 9,12.2487404 9,12.9081532 L9,26.3061325 C9,26.9655453 9.52258723,27.5 10.1673579,27.5 Z M11.3347159,14.1020208 L18.8081413,14.1020208 L18.8081413,25.112265 L11.3347159,25.112265 L11.3347159,14.1020208 Z" id="Shape" fill="#FFFFFF"></path>
                        <rect id="Rectangle-path" fill="#FFFFFF" x="23.5714286" y="11.7142857" width="12.1428571" height="3.64285714"></rect>
                        <rect id="Rectangle-path" fill="#FFFFFF" x="23.5714286" y="19" width="19.4285714" height="3.64285714"></rect>
                        <rect id="Rectangle-path" fill="#FFFFFF" x="23.5714286" y="23.8571429" width="19.4285714" height="3.64285714"></rect>
                    </g>
                    <path d="M17.5,41 L14,41 L14,45 L17.5,45 L21,45 L21,41 L17.5,41 Z" id="Combined-Shape" stroke="#FFFFFF" fill-rule="nonzero"></path>
                </g>
                <g id="Icon" transform="translate(139.000000, 150.000000)">
                    <path d="M42.7453336,7.33252695 L59.6310265,17.173801 C61.0796869,18.0181053 61.9710526,19.5766154 61.9710526,21.2621743 L61.9710526,40.9447223 C61.9710526,42.6302811 61.0796869,44.1887912 59.6310265,45.0330956 L42.7453336,54.8743696 C41.2943333,55.7200377 39.5056667,55.7200377 38.0546664,54.8743696 L21.1689735,45.0330956 C19.7203131,44.1887912 18.8289474,42.6302811 18.8289474,40.9447223 L18.8289474,21.2621743 C18.8289474,19.5766154 19.7203131,18.0181053 21.1689735,17.173801 L38.0546664,7.33252695 C39.5056667,6.48685883 41.2943333,6.48685883 42.7453336,7.33252695 Z" id="Mask-Copy-26" stroke="#FFFFFF" stroke-width="1.5" stroke-linecap="round" stroke-linejoin="round"></path>
                    <path d="M59.2185712,18.1864 C60.4216858,18.1864 61.3969249,17.2140851 61.3969249,16.014578 C61.3969249,14.815071 60.4216858,13.8427561 59.2185712,13.8427561 C58.1874913,13.8427561 57.3273179,14.559761 57.1022628,15.519704 L46.3627871,17.691526 C45.845555,16.676472 44.8748282,15.9330363 43.7157094,15.7244019 L43.546495,11.0056661 C44.4354348,10.6271999 45.059836,9.74879863 45.059836,8.72305984 C45.0592719,7.35259633 43.9447129,6.24137931 42.5695637,6.24137931 C41.1949785,6.24137931 40.0798554,7.35259633 40.0798554,8.7236222 C40.0798554,9.89669847 40.8982892,10.8729499 41.9953627,11.1321963 L42.1617569,15.7744517 C41.2384102,16.0016438 40.4521271,16.5701865 39.9456119,17.3411777 L31.1419493,12.0330919 C31.1831248,11.8666343 31.2113272,11.6945531 31.2113272,11.5157237 C31.2113272,10.3156543 30.2360881,9.34390174 29.0329735,9.34390174 C27.830423,9.34390174 26.8546198,10.3156543 26.8546198,11.5157237 C26.8546198,12.7157931 27.8298589,13.6875456 29.0329735,13.6875456 C29.4870322,13.6875456 29.9083762,13.5480811 30.2569579,13.3113289 L39.3849481,18.8162396 C39.3578738,18.9956314 39.3398243,19.1783973 39.3398243,19.3650998 C39.3398243,19.9066494 39.4594025,20.4195188 39.6686643,20.8829008 L25.8009779,34.6763882 C25.1607834,34.1545211 24.3434777,33.840726 23.4517176,33.840726 C22.6942011,33.840726 21.9908331,34.0679182 21.403659,34.4559443 L14.8229099,27.8949276 C15.1703636,27.4028654 15.3784973,26.8056425 15.3784973,26.1583699 C15.3784973,24.4876078 14.0202695,23.1334527 12.3444826,23.1334527 C10.6686957,23.1334527 9.31046793,24.4876078 9.31046793,26.1583699 C9.31046793,27.8291319 10.6692598,29.1832871 12.3444826,29.1832871 C12.8030537,29.1832871 13.2339865,29.0741898 13.6237437,28.8919862 L20.3161743,35.5649119 C19.9517992,36.1379535 19.738025,36.8150311 19.738025,37.5432831 C19.738025,37.8227745 19.7718679,38.0938304 19.8305289,38.3553264 L10.3471883,41.5326422 C9.95686704,40.9466665 9.29072624,40.5603273 8.53264561,40.5603273 C7.32953103,40.5603273 6.35429188,41.5326422 6.35429188,42.7321493 C6.35429188,43.9316563 7.32953103,44.9028465 8.53264561,44.9028465 C9.62351462,44.9028465 10.5186589,44.1014881 10.6777205,43.0583162 L20.4910292,39.7707784 C21.0539492,40.5130894 21.8893044,41.0355188 22.8504424,41.191854 L22.8487502,46.7507509 C21.7358833,46.9976256 20.9027843,47.9851241 20.9027843,49.1694475 C20.9027843,50.5404734 22.0173433,51.651128 23.3924926,51.651128 C24.7676418,51.651128 25.8822009,50.539911 25.8822009,49.1694475 C25.8822009,48.15833 25.274157,47.2923005 24.4043949,46.9059614 L24.4066511,41.1170606 C25.4772143,40.8330704 26.3554372,40.0868229 26.8157005,39.1038232 L39.3668986,41.623744 C39.348285,41.7553355 39.3262871,41.8852399 39.3262871,42.0213303 C39.3262871,43.6128 40.6207775,44.9034089 42.2170336,44.9034089 C42.4279876,44.9034089 42.632173,44.8781028 42.8301539,44.8353637 L44.8827249,49.8909513 C44.2904744,50.3610815 43.9029734,51.075837 43.9029734,51.8901297 C43.9029734,52.3062737 44.0118346,52.6942999 44.1895098,53.041274 L40.0240146,57.3956027 C40.005401,57.388292 39.9890437,57.3764825 39.969302,57.3697342 C38.8378215,56.9631503 37.5895831,57.5496884 37.1829044,58.6777762 C36.7762257,59.8058639 37.3633998,61.0497971 38.4948803,61.4558187 C39.6274888,61.8618403 40.8745992,61.2753022 41.2818419,60.1472145 C41.4916678,59.5651752 41.4330068,58.9544557 41.1752368,58.4404616 L45.2820709,54.1457428 C45.6391134,54.3330076 46.0390235,54.4482907 46.4693922,54.4482907 C47.1434296,54.4482907 47.7514735,54.183983 48.2100446,53.759966 L55.9335551,58.9364603 C55.8557165,59.1591536 55.8049521,59.3947811 55.8049521,59.6455922 C55.8049521,60.8450992 56.7801913,61.8162894 57.9821778,61.8162894 C59.1852924,61.8162894 60.1605315,60.8439745 60.1605315,59.6455922 C60.1605315,58.4455228 59.1852924,57.4737703 57.9821778,57.4737703 C57.6053937,57.4737703 57.2551198,57.5783686 56.9454574,57.7470757 L48.9816624,52.4097473 C49.0166334,52.2416027 49.036375,52.0678344 49.036375,51.8890049 C49.036375,50.4746776 47.886845,49.3291568 46.4688281,49.3291568 C46.4237043,49.3291568 46.3825288,49.3398416 46.338533,49.3415287 L44.2210965,44.0908033 C44.7659669,43.5666868 45.107216,42.8344982 45.107216,42.0202056 C45.107216,40.4287358 43.8127257,39.138127 42.2164696,39.138127 C41.3173769,39.138127 40.5237612,39.5559581 39.9941201,40.1987319 L27.16259,37.5826481 C27.16259,37.5691516 27.1642822,37.5562173 27.1642822,37.5427208 C27.1642822,36.948872 27.021014,36.3898894 26.7717047,35.892766 L40.591447,22.1307705 C41.2468709,22.7105604 42.1076083,23.0659699 43.0523888,23.0659699 C43.81611,23.0659699 44.5245544,22.8354036 45.1145487,22.4417538 L52.2796516,29.5853722 C52.1408957,29.8946684 52.0591088,30.2354566 52.0591088,30.5959273 C52.0591088,31.9675155 53.1742318,33.0781702 54.548817,33.0781702 C55.9234022,33.0781702 57.0379613,31.9675155 57.0379613,30.5959273 C57.0379613,29.2249015 55.9234022,28.1136844 54.548817,28.1136844 C54.1049112,28.1136844 53.6937201,28.23909 53.3338575,28.4421008 L46.198085,21.3271626 C46.5562556,20.7574952 46.7666455,20.0860412 46.7666455,19.3645374 C46.7666455,19.3066147 46.760441,19.2509414 46.7576208,19.193581 L57.3194213,17.0583122 C57.6905649,17.7280792 58.3973172,18.1864 59.2185712,18.1864 Z" id="Shape-Copy-4" fill="#FFFFFF" fill-rule="nonzero" transform="translate(33.875608, 34.028834) rotate(-165.000000) translate(-33.875608, -34.028834) "></path>
                </g>
                <g id="Icon" transform="translate(0.000000, 69.000000)">
                    <path d="M23.3639133,17.8929848 L40.394731,27.8777176 C41.8532252,28.7327955 42.75,30.3100639 42.75,32.0152672 L42.75,51.9847328 C42.75,53.6899361 41.8532252,55.2672045 40.394731,56.1222824 L23.3639133,66.1070152 C21.9016065,66.9643283 20.0983935,66.9643283 18.6360867,66.1070152 L1.60526903,56.1222824 C0.146774814,55.2672045 -0.75,53.6899361 -0.75,51.9847328 L-0.75,32.0152672 C-0.75,30.3100639 0.146774814,28.7327955 1.60526903,27.8777176 L18.6360867,17.8929848 C20.0983935,17.0356717 21.9016065,17.0356717 23.3639133,17.8929848 Z" id="Mask-Copy-21" stroke="#FFFFFF" stroke-width="1.5" stroke-linecap="round" stroke-linejoin="round"></path>
                    <g id="Smart-home-Copy" transform="translate(39.000000, 9.500000) rotate(35.000000) translate(-39.000000, -9.500000) translate(32.000000, 4.000000)" fill-rule="nonzero" fill="#FFFFFF">
                        <path d="M1.53364241,3.89824561 C0.704808412,4.67017544 -0.558176735,3.43508772 0.270657267,2.66315789 C4.17801756,-0.887719298 9.86145072,-0.887719298 13.7293427,2.66315789 C14.5581767,3.43508772 13.2951916,4.67017544 12.4663576,3.89824561 C9.30889472,1.00350877 4.69110528,1.00350877 1.53364241,3.89824561 Z M4.45429556,6.87017544 C3.62546156,7.60350877 2.36247642,6.36842105 3.2307787,5.63508772 C5.44100271,3.62807018 8.63793386,3.62807018 10.8481579,5.63508772 C11.6769919,6.40701754 10.4140067,7.64210526 9.58517272,6.87017544 C8.08537786,5.51929825 5.95409043,5.51929825 4.45429556,6.87017544 Z M6.70398786,11 C5.87567403,11 5.204193,10.343351 5.204193,9.53333333 C5.204193,8.7233157 5.87567403,8.06666667 6.70398786,8.06666667 C7.53230169,8.06666667 8.20378272,8.7233157 8.20378272,9.53333333 C8.20378272,10.343351 7.53230169,11 6.70398786,11 Z" id="Combined-Shape"></path>
                    </g>
                    <rect id="Rectangle-7" fill="#FFFFFF" x="21" y="42" width="2" height="24"></rect>
                    <polyline id="Path-3" stroke="#FFFFFF" stroke-width="1.5" points="0 30 21.4883721 42 44 30"></polyline>
                    <g id="Rectangle-9">
                        <use fill="#FFFFFF" fill-rule="evenodd" xlink:href="#path-1"></use>
                        <path stroke="#FFFFFF" stroke-width="1.2" d="M31.6,59.9822163 L37.4,56.7725255 L37.4,43.9566624 C37.4,43.9227855 37.3913948,43.8894637 37.3749917,43.8598229 C37.3215087,43.7631776 37.1998057,43.7281877 37.1031605,43.7816707 L31.7031605,46.7700035 C31.6395057,46.8052297 31.6,46.8722434 31.6,46.9449952 L31.6,59.9822163 Z"></path>
                    </g>
                    <g id="Rectangle-9-Copy" transform="translate(7.500000, 42.500000) scale(-1, 1) translate(-7.500000, -42.500000) ">
                        <use fill="#FFFFFF" fill-rule="evenodd" xlink:href="#path-2"></use>
                        <path stroke="#FFFFFF" stroke-width="1.2" d="M4.7012695,40.8108326 C4.63867491,40.8463638 4.6,40.9127885 4.6,40.9847645 L4.6,47.0804863 C4.6,47.1150977 4.60898215,47.1491166 4.62606815,47.1792168 C4.6805955,47.2752767 4.8026706,47.3089455 4.8987305,47.2544181 L10.2987305,44.1891674 C10.3613251,44.1536362 10.4,44.0872115 10.4,44.0152355 L10.4,37.9195137 C10.4,37.8849023 10.3910179,37.8508834 10.3739318,37.8207832 C10.3194045,37.7247233 10.1973294,37.6910545 10.1012695,37.7455819 L4.7012695,40.8108326 Z"></path>
                    </g>
                    <g id="Group-15" transform="translate(23.000000, 14.000000)">
                        <g id="Rectangle-8" transform="translate(9.000000, 5.477288) scale(-1, 1) translate(-9.000000, -5.477288) ">
                            <use fill="#FFFFFF" fill-rule="evenodd" xlink:href="#path-3"></use>
                            <path stroke="#FFFFFF" stroke-width="1.2" d="M5.6,8.91745142 L11.9299989,4.96120208 C12.2223803,4.77846373 12.4,4.45799381 12.4,4.11320377 L12.4,2.5 C12.4,2.35328019 12.3658398,2.20857534 12.3002247,2.07734515 C12.0667989,1.6104935 11.4991118,1.42126448 11.0322602,1.6546903 L6.1527864,4.09442719 C5.81400238,4.26381921 5.6,4.61008232 5.6,4.98885438 L5.6,8.91745142 Z"></path>
                        </g>
                        <path d="M4.50661009,6.26957375 L11.2959929,6.09498437 L11.2959929,6.09498437 C11.7376747,6.0836265 12.1049359,6.43247296 12.1162937,6.87415475 C12.1196771,7.00572609 12.0905466,7.1360999 12.0314847,7.25371858 L9.87712019,11.5440209 L9.87712019,11.5440209 C9.74468153,11.8077654 9.47779043,11.9771712 9.18275886,11.9847579 L2.39337609,12.1593473 L2.39337609,12.1593473 C1.9516943,12.1707052 1.58443309,11.8218587 1.57307521,11.3801769 C1.56969185,11.2486056 1.59882233,11.1182318 1.65788426,11.0006131 L3.81224876,6.71031079 L3.81224876,6.71031079 C3.94468742,6.44656624 4.21157852,6.27716051 4.50661009,6.26957375 Z" id="Rectangle-10" fill="#FFFFFF" transform="translate(6.844684, 9.127166) rotate(-327.000000) translate(-6.844684, -9.127166) "></path>
                        <polygon id="Path-4" fill="#FFFFFF" points="5.5 1.5 1.5 8 5.5 11 9 5.5"></polygon>
                    </g>
                </g>
                <g id="Lines" transform="translate(42.000000, 46.000000)" stroke="#FFFFFF" stroke-width="1.5">
                    <path d="M163,1 L280,58" id="Path-5-Copy"></path>
                    <path d="M111,0 L0,54" id="Path-5-Copy-3"></path>
                    <path d="M137.058692,25 L136.941308,111" id="Path-5-Copy-2"></path>
                </g>
                <g id="API-icon" transform="translate(143.000000, 0.000000)">
                    <path d="M40.4756491,1.28593793 C43.0727522,1.28593793 43.2127272,3.42598401 43.2127272,6.02301601 C43.0078595,6.78069262 43.0208753,7.34895008 43.2517748,7.72778838 C43.4653198,8.07815307 44.1189706,8.6037001 45.2127272,9.30442947 C46.1453789,9.63139839 47.0606613,9.99302693 47.951311,10.4146821 C49.2265948,11.1919938 50.1830577,11.4416442 50.8206997,11.1636334 C51.3651185,10.9262677 52.1817467,9.90355244 53.2705844,8.09548767 C55.1068338,6.25925409 55.120566,6.25925409 56.9567364,8.09548767 L63.6428853,14.781676 C65.4792136,16.6179096 63.4792136,18.656303 61.6428853,20.4925208 L61.3237698,23.8117153 C61.7477382,24.7067073 62.1303363,25.6130682 62.4586158,26.5503781 L63.7400687,28.5503781 C66.3371718,28.5503781 70.4771468,28.690432 70.4771468,31.2874561 L70.4771468,40.7616123 C70.4771468,43.3586364 67.3371718,43.4986904 64.7400687,43.4986904 L62.433983,45.4986904 C62.1098089,46.4215521 61.7407116,47.3308343 61.3237698,48.2126414 L61.3237698,51 C63.1600981,52.8362494 65.4792136,55.4064471 63.6428853,57.2426965 L56.9567364,63.9288453 C55.120566,65.7650947 52.8361704,62.8362494 51,61 L47.951311,61.6096508 C47.0607403,62.0313297 46.1453789,62.3929267 45.2127272,62.719943 L43.2127272,66.0260287 C43.2127272,68.6230528 43.0727522,70.7631068 40.4756491,70.7631068 L31.0014929,70.7631068 C28.4044688,70.7631068 29.2644149,66.6230528 29.2644149,64.0260287 L26.2644149,62.719943 C25.3388688,62.3930057 24.432271,62.0287243 23.5504639,61.6096508 C22.3723558,61.1659751 21.6554414,60.999885 21.3997207,61.1113804 C20.4733982,61.5152615 19.4172478,62.4544165 18.2312694,63.9288453 C16.395099,65.7650947 16.381291,65.7650947 14.5451205,63.9288453 L7.83425992,57.2426965 C5.9979316,55.4064471 9.9979316,52.3680852 11.8342599,50.5318358 L10.1780872,48.1879296 C9.76098748,47.3197021 9.37373135,46.4187888 9.04316225,45.4986904 C8.98301052,44.3923386 8.77123006,43.7292414 8.40782086,43.5093988 C8.03654434,43.2847969 7.14629622,43.2812275 5.7370765,43.4986904 C3.1400524,43.4986904 0.999998421,43.3586364 0.999998421,40.7616123 L0.999998421,31.2874561 C0.999998421,28.690432 6.1400524,28.5503781 8.7370765,28.5503781 L9.04316225,26.5503781 C9.3772052,25.6188316 9.75553984,24.7147603 10.1780872,23.8364271 L10.8342599,21.4925208 C8.9979316,19.656303 5.9979316,16.6179096 7.83425992,14.781676 L14.5451205,8.09548767 C16.3813699,6.25925409 18.395099,8.25925409 20.2312694,10.0954877 C20.9708504,10.8332771 21.5255361,11.2199524 21.8953266,11.2555138 C22.2631349,11.2908845 22.8148473,11.0106073 23.5504639,10.4146821 C24.432271,9.99560075 25.3388688,9.63134313 26.2644149,9.30442947 C27.5891044,8.5846811 28.4159549,8.04486983 28.7449663,7.68499564 C29.0826215,7.31566684 29.2557711,6.76167363 29.2644149,6.02301601 C29.2644149,3.42598401 28.4044688,1.28593793 31.0014929,1.28593793 L40.4756491,1.28593793 Z" id="Shape" fill="#FFFFFF" fill-rule="nonzero"></path>
                    <path d="M41.2840453,0 C42.7172224,0 43.818412,1.10120073 43.818412,2.53436581 L43.8184106,7.37661048 C43.8191798,7.78288202 44.1254714,8.1980766 44.5106977,8.31786498 C46.3450742,8.880868 48.0290598,9.56340042 49.5726064,10.3831409 C49.9314298,10.573648 50.4418929,10.4987773 50.7275469,10.2165599 L54.140162,6.80394589 C55.1537206,5.79039257 56.7242833,5.79039257 57.7378367,6.80394562 L65.1961285,14.262191 C66.2095505,15.2757382 66.2095505,16.8186841 65.1960967,17.832263 L61.782534,21.2458494 C61.4906659,21.5367089 61.4152254,22.0578915 61.6168143,22.4273311 C62.4478325,23.9921345 63.1282097,25.6567389 63.6848904,27.4711786 C63.7997359,27.8629171 64.2168747,28.1767986 64.6219235,28.181602 L69.4656334,28.181602 C70.8988179,28.181602 72,29.2827837 72,30.7159678 L72,41.2840586 C72,42.7171794 70.8987931,43.8184244 69.4656334,43.8184244 L64.6233872,43.8184231 C64.217143,43.8191923 63.8018924,44.1255018 63.6820905,44.5106148 C63.1190481,46.3451816 62.4365979,48.0290467 61.616866,49.5725979 C61.4263783,49.931409 61.5012442,50.4419276 61.7834809,50.7275572 L65.1961285,54.1402037 C66.2095505,55.1537508 66.2095505,56.6966967 65.1960946,57.7102777 L57.7378383,65.1685317 C56.7242833,66.1820864 55.1537206,66.1820864 54.1401606,65.1685317 L50.7308501,61.7592024 C50.4418687,61.4736825 49.9314029,61.3987916 49.5726846,61.5892525 C48.0289182,62.4090981 46.3449931,63.0916265 44.5132958,63.6538116 C44.1207677,63.7757979 43.8125746,64.2003538 43.818412,64.6219259 L43.818412,69.4656342 C43.818412,70.898755 42.7172051,72 41.2840453,72 L30.7159511,72 C29.2828547,72 28.1815845,70.8987302 28.1815845,69.4656342 L28.181658,64.6112646 C28.1873261,64.2003337 27.8791636,63.7757777 27.4886986,63.6544295 C25.6866664,63.0997516 24.0096971,62.4149459 22.4549409,61.5892864 C22.0961509,61.3987875 21.5856549,61.4736806 21.2999266,61.755919 L17.8873129,65.1685317 C16.8737577,66.1820866 15.303194,66.1820866 14.2906447,65.1695358 L6.80387155,57.7102439 C5.79044949,56.6966967 5.79044949,55.1537508 6.80391237,54.1401628 L10.2487122,50.6954911 C10.5390748,50.409984 10.6208442,49.898963 10.4379216,49.5445529 C9.54160978,47.8533523 8.82961534,46.1783996 8.31877598,44.5134192 C8.19793434,44.1249447 7.78274484,43.8184244 7.37807645,43.8184244 L2.53436661,43.8184244 C1.10127016,43.8184244 4.54747351e-13,42.7171546 4.54747351e-13,41.2840586 L4.54747351e-13,30.7159678 C4.54747351e-13,29.2828085 1.10124539,28.181602 2.53436661,28.181602 L7.37300046,28.1816186 C7.7826921,28.1789284 8.19978643,27.8643825 8.31789084,27.4619072 C8.8231717,25.8150633 9.52477742,24.1784432 10.4382303,22.4548036 C10.6319234,22.0900863 10.549549,21.5683411 10.2440891,21.2723861 L6.80387155,17.8322312 C5.79044949,16.8186841 5.79044949,15.2757382 6.80491293,14.2611515 L14.2896388,6.80394724 C15.303194,5.79039234 16.8737577,5.79039234 17.8873129,6.80394724 L21.2965823,10.2132359 C21.5856307,10.4987793 22.0961239,10.5736521 22.4548676,10.3831874 C24.0092758,9.55766296 25.6863341,8.87285739 27.4865599,8.31871115 C27.8749989,8.19791432 28.1815845,7.78267333 28.1815845,7.37807411 L28.1815845,2.53436581 C28.1815845,1.10122549 29.2828373,0 30.7159511,0 L41.2840453,0 Z M41.2840453,1.54603467 L30.7159511,1.54603467 C30.1366805,1.54603467 29.7276197,1.95508534 29.7276197,2.53436581 L29.7276197,7.37807411 C29.7276197,8.46051947 28.9797612,9.47342233 27.9435308,9.7956661 C26.2319693,10.3225229 24.6453047,10.9704173 23.179936,11.7486541 C22.2241089,12.2561233 20.9799438,12.0736446 20.2067147,11.3097715 L16.7941009,7.89715884 C16.38431,7.48736803 15.7926416,7.48736803 15.3818431,7.89816455 L7.89715114,15.355335 C7.48740318,15.7651335 7.48740318,16.3292887 7.89711242,16.7390486 L11.3284608,20.1704748 C12.1197861,20.9368187 12.320335,22.2070614 11.8039731,23.1793521 C10.9340626,24.8208301 10.2704019,26.3689366 9.79867846,27.9062051 C9.49126586,28.9543537 8.47540957,29.7204476 7.37807645,29.7276367 L2.53436661,29.7276367 C1.95508492,29.7276367 1.54603516,30.136672 1.54603516,30.7159678 L1.54603516,41.2840586 C1.54603516,41.8633033 1.9551218,42.2723898 2.53436661,42.2723898 L7.37807645,42.2723898 C8.46054424,42.2723898 9.47336825,43.0201232 9.79592172,44.0570683 C10.2773983,45.626328 10.9514222,47.2119557 11.8078217,48.8279437 C12.305478,49.7918803 12.1061982,51.037286 11.3372892,51.7932987 L7.89715114,55.2333476 C7.48740318,55.6431461 7.48740318,56.2073014 7.89611137,56.616062 L15.3828507,64.0753201 C15.7926416,64.4851109 16.38431,64.4851109 16.7941009,64.0753201 L20.2100637,60.6593789 C20.9799628,59.8988284 22.2241355,59.7163001 23.1800065,60.2238183 C24.645715,61.0021886 26.2322921,61.6500818 27.9455184,62.1774276 C28.9921081,62.5026773 29.7426616,63.5367164 29.7276197,64.6219259 L29.7276197,69.4656342 C29.7276197,70.0448788 30.1367063,70.4539653 30.7159511,70.4539653 L41.2840453,70.4539653 C41.8633413,70.4539653 42.2723768,70.0449157 42.2723768,69.4656342 L42.2724528,64.6327679 C42.2570807,63.536863 43.0077941,62.5027066 44.0570727,62.1766262 C45.8010539,61.6413583 47.3943974,60.9955444 48.8476113,60.2237884 C49.8034395,59.7162929 51.0476414,59.898831 51.8207588,60.6627074 L55.2333712,64.0753187 C55.6431658,64.4851111 56.2348352,64.4851111 56.6446263,64.0753201 L64.1028489,56.6170999 C64.5125968,56.2073014 64.5125968,55.6431461 64.1028827,55.2333814 L60.6870313,51.8175118 C59.926372,51.0477607 59.7439014,49.8034742 60.2513837,48.8475582 C61.0230346,47.3945434 61.6687713,45.8012645 62.2049634,44.0542033 C62.5263873,43.0209089 63.5383429,42.2744401 64.6219235,42.2723898 L69.4656334,42.2723898 C70.0449294,42.2723898 70.4539648,41.8633401 70.4539648,41.2840586 L70.4539648,30.7159678 C70.4539648,30.1366351 70.0449663,29.7276367 69.4656334,29.7276367 L64.6128586,29.7275835 C63.521409,29.7147836 62.5079791,28.9522151 62.2040831,27.9154086 C61.6782942,26.2018533 61.0350678,24.6281416 60.2555736,23.1602501 C59.7290426,22.195584 59.9127352,20.9265376 60.6902668,20.1516947 L64.1028489,16.7390873 C64.5125968,16.3292887 64.5125968,15.7651335 64.1028843,15.3553704 L56.6446263,7.89715884 C56.2348352,7.48736781 55.6431658,7.48736781 55.2333726,7.89715884 L51.8174602,11.3130503 C51.0476604,12.073642 49.8034662,12.2561305 48.8475434,11.7486104 C47.3945413,10.976956 45.801141,10.3311385 44.0543633,9.79501566 C43.020949,9.47368413 42.2744272,8.46173389 42.2723768,7.37807411 L42.2723768,2.53436581 C42.2723768,1.95504847 41.8633672,1.54603467 41.2840453,1.54603467 Z" id="Shape" fill="#FFFFFF" fill-rule="nonzero"></path>
                    <text id="API" font-family="Exo-Medium, Exo" font-size="13.86" font-weight="400" fill="#4A8EDA">
                        <tspan x="24.86938" y="42">API</tspan>
                    </text>
                </g>
            </g>
        </g>
    </g>
</svg>