<?xml version="1.0" encoding="UTF-8"?>
<svg width="49px" height="55px" viewBox="0 0 49 55" version="1.1" xmlns="http://www.w3.org/2000/svg" xmlns:xlink="http://www.w3.org/1999/xlink">
    <!-- Generator: Sketch 46.2 (44496) - http://www.bohemiancoding.com/sketch -->
    <title>Icon</title>
    <desc>Created with Sketch.</desc>
    <defs>
        <path d="M24.7084355,1.37847282 L43.0165645,12.0747912 C44.336739,12.8460883 45.15,14.2715041 45.15,15.8140983 L45.15,37.2067351 C45.15,38.7493292 44.336739,40.174745 43.0165645,40.9460421 L24.7084355,51.6423605 C23.388261,52.4136576 21.761739,52.4136576 20.4415645,51.6423605 L2.13343551,40.9460421 C0.813261021,40.174745 2.20494124e-14,38.7493292 2.20494124e-14,37.2067351 L0,15.8140983 C0,14.2715041 0.813261021,12.8460883 2.13343551,12.0747912 L20.4415645,1.37847282 C21.761739,0.607175727 23.388261,0.607175727 24.7084355,1.37847282 Z" id="path-1"></path>
        <polygon id="path-2" points="9 21.9994926 9 14 12 14 12 22 9 22"></polygon>
    </defs>
    <g id="Design-draft-2" stroke="none" stroke-width="1" fill="none" fill-rule="evenodd">
        <g id="Leaftech-Web-Design" transform="translate(-331.000000, -903.000000)">
            <g id="Block-2" transform="translate(98.000000, 638.000000)">
                <g id="Icons" transform="translate(0.000000, 83.000000)">
                    <g id="Building-location-and-architecture" transform="translate(127.000000, 183.000000)">
                        <g id="Icon" transform="translate(108.000000, 0.000000)">
                            <g id="Mask-Copy-11" stroke-linecap="round" stroke-linejoin="round">
                                <use fill="#FFFFFF" fill-rule="evenodd" xlink:href="#path-1"></use>
                                <path stroke="#5093DC" stroke-width="1.5" d="M25.0867762,0.73089398 L43.3949051,11.4272124 C44.9458762,12.3333498 45.9,14.005658 45.9,15.8140983 L45.9,37.2067351 C45.9,39.0151753 44.9458762,40.6874836 43.3949051,41.593621 L25.0867762,52.2899394 C23.532859,53.197798 21.617141,53.197798 20.0632238,52.2899394 L1.75509486,41.593621 C0.20412377,40.6874836 -0.75,39.0151753 -0.75,37.2067351 L-0.75,15.8140983 C-0.75,14.005658 0.20412377,12.3333498 1.75509486,11.4272124 L20.0632238,0.73089398 C21.617141,-0.17696466 23.532859,-0.17696466 25.0867762,0.73089398 Z"></path>
                            </g>
                            <g id="Group" transform="translate(11.000000, 14.000000)">
                                <rect id="Rectangle-15-Copy-24" stroke="#4A8EDA" stroke-linecap="round" stroke-linejoin="round" x="6.5" y="2.5" width="3" height="3"></rect>
                                <rect id="Rectangle-15-Copy-25" stroke="#4A8EDA" stroke-linecap="round" stroke-linejoin="round" x="11.5" y="2.5" width="3" height="3"></rect>
                                <rect id="Rectangle-15-Copy-26" stroke="#4A8EDA" stroke-linecap="round" stroke-linejoin="round" x="6.5" y="7.5" width="3" height="3"></rect>
                                <rect id="Rectangle-15-Copy-27" stroke="#4A8EDA" stroke-linecap="round" stroke-linejoin="round" x="11.5" y="7.5" width="3" height="3"></rect>
                                <g id="Path-Copy" stroke-linecap="round" stroke-linejoin="round">
                                    <use fill="#FFFFFF" fill-rule="evenodd" xlink:href="#path-2"></use>
                                    <path stroke="#4A8EDA" stroke-width="0.9" d="M8.55,22.45 L8.55,13.55 L12.45,13.55 L12.45,22.45 L8.55,22.45 Z"></path>
                                </g>
                                <rect id="Rectangle-17-Copy-3" fill="#4A8EDA" x="0" y="22" width="22" height="1" rx="0.5"></rect>
                                <rect id="Rectangle-18-Copy-2" stroke="#4A8EDA" stroke-linecap="round" stroke-linejoin="round" x="3.5" y="-0.5" width="14" height="23"></rect>
                            </g>
                        </g>
                    </g>
                </g>
            </g>
        </g>
    </g>
</svg>