<?xml version="1.0" encoding="UTF-8"?>
<svg width="47px" height="53px" viewBox="0 0 47 53" version="1.1" xmlns="http://www.w3.org/2000/svg" xmlns:xlink="http://www.w3.org/1999/xlink">
    <!-- Generator: Sketch 46.2 (44496) - http://www.bohemiancoding.com/sketch -->
    <title>Icon</title>
    <desc>Created with Sketch.</desc>
    <defs>
        <path d="M23.5318433,0.551238987 L40.9681567,10.7439871 C42.2254657,11.4789724 43,12.8372813 43,14.3072519 L43,34.6927481 C43,36.1627187 42.2254657,37.5210276 40.9681567,38.2560129 L23.5318433,48.448761 C22.2745343,49.1837463 20.7254657,49.1837463 19.4681567,48.448761 L2.03184334,38.2560129 C0.774534306,37.5210276 2.09994404e-14,36.1627187 2.09994404e-14,34.6927481 L0,14.3072519 C0,12.8372813 0.774534306,11.4789724 2.03184334,10.7439871 L19.4681567,0.551238987 C20.7254657,-0.183746329 22.2745343,-0.183746329 23.5318433,0.551238987 Z" id="path-1"></path>
        <path d="M23.5318433,0.551238987 L40.9681567,10.7439871 C42.2254657,11.4789724 43,12.8372813 43,14.3072519 L43,34.6927481 C43,36.1627187 42.2254657,37.5210276 40.9681567,38.2560129 L23.5318433,48.448761 C22.2745343,49.1837463 20.7254657,49.1837463 19.4681567,48.448761 L2.03184334,38.2560129 C0.774534306,37.5210276 2.09994404e-14,36.1627187 2.09994404e-14,34.6927481 L0,14.3072519 C0,12.8372813 0.774534306,11.4789724 2.03184334,10.7439871 L19.4681567,0.551238987 C20.7254657,-0.183746329 22.2745343,-0.183746329 23.5318433,0.551238987 Z" id="path-2"></path>
    </defs>
    <g id="Design-draft-2" stroke="none" stroke-width="1" fill="none" fill-rule="evenodd">
        <g id="Leaftech-Web-Design" transform="translate(-711.000000, -3389.000000)">
            <g id="Block-6" transform="translate(172.000000, 3326.000000)">
                <g id="Improved" transform="translate(541.000000, 65.000000)">
                    <g id="Icon">
                        <g id="Mask-Copy-30" stroke-linecap="round" stroke-linejoin="round">
                            <use fill="#FFFFFF" fill-rule="evenodd" style="mix-blend-mode: multiply;" xlink:href="#path-1"></use>
                            <path stroke="#4D93DB" stroke-width="1.5" d="M23.9103439,-0.0962463722 L41.3466573,10.0965017 C42.8347024,10.9663685 43.75,12.5715354 43.75,14.3072519 L43.75,34.6927481 C43.75,36.4284646 42.8347024,38.0336315 41.3466573,38.9034983 L23.9103439,49.0962464 C22.4192115,49.9679179 20.5807885,49.9679179 19.0896561,49.0962464 L1.65334273,38.9034983 C0.165297573,38.0336315 -0.75,36.4284646 -0.75,34.6927481 L-0.75,14.3072519 C-0.75,12.5715354 0.165297573,10.9663685 1.65334273,10.0965017 L19.0896561,-0.0962463722 C20.5807885,-0.967917876 22.4192115,-0.967917876 23.9103439,-0.0962463722 Z"></path>
                        </g>
                        <g id="Group-21">
                            <mask id="mask-3" fill="white">
                                <use xlink:href="#path-2"></use>
                            </mask>
                            <g id="Mask" stroke-linecap="round" stroke-linejoin="round">
                                <use fill="#FFFFFF" fill-rule="evenodd" style="mix-blend-mode: multiply;" xlink:href="#path-2"></use>
                                <path stroke="#4D93DB" stroke-width="1.5" d="M23.9103439,-0.0962463722 L41.3466573,10.0965017 C42.8347024,10.9663685 43.75,12.5715354 43.75,14.3072519 L43.75,34.6927481 C43.75,36.4284646 42.8347024,38.0336315 41.3466573,38.9034983 L23.9103439,49.0962464 C22.4192115,49.9679179 20.5807885,49.9679179 19.0896561,49.0962464 L1.65334273,38.9034983 C0.165297573,38.0336315 -0.75,36.4284646 -0.75,34.6927481 L-0.75,14.3072519 C-0.75,12.5715354 0.165297573,10.9663685 1.65334273,10.0965017 L19.0896561,-0.0962463722 C20.5807885,-0.967917876 22.4192115,-0.967917876 23.9103439,-0.0962463722 Z"></path>
                            </g>
                            <g mask="url(#mask-3)">
                                <g transform="translate(-7.000000, 13.000000)">
                                    <g id="Group-20" transform="translate(25.736876, 16.973775) rotate(-16.000000) translate(-25.736876, -16.973775) translate(11.236876, 3.473775)">
                                        <g id="Group-18-Copy-6" transform="translate(25.242641, 6.242641) rotate(-270.000000) translate(-25.242641, -6.242641) translate(22.242641, 3.242641)" fill="#4A8EDA">
                                            <rect id="Rectangle-20-Copy-2" x="0" y="1" width="1.5" height="4.96077312" rx="0.75"></rect>
                                            <rect id="Rectangle-20-Copy-3" transform="translate(2.722804, 1.507583) rotate(-90.000000) translate(-2.722804, -1.507583) " x="1.97280404" y="-0.972804041" width="1.5" height="4.96077312" rx="0.75"></rect>
                                        </g>
                                        <g id="Group-19" transform="translate(14.020815, 13.435029) rotate(-315.000000) translate(-14.020815, -13.435029) translate(11.020815, -2.564971)" fill="#4D93DB">
                                            <rect id="Rectangle-22" x="0" y="16" width="1.5" height="16" rx="0.75"></rect>
                                            <rect id="Rectangle-22-Copy-2" x="4.5" y="0.5" width="1.5" height="17" rx="0.75"></rect>
                                            <rect id="Rectangle-22-Copy" transform="translate(3.000000, 16.750000) rotate(-270.000000) translate(-3.000000, -16.750000) " x="2.25" y="13.75" width="1.5" height="6" rx="0.75"></rect>
                                        </g>
                                    </g>
                                    <g id="Group-20-Copy" transform="translate(14.309649, 12.760843) rotate(-16.000000) translate(-14.309649, -12.760843) translate(3.309649, 2.760843)">
                                        <g id="Group-18-Copy-6" transform="translate(18.242641, 9.242641) rotate(-270.000000) translate(-18.242641, -9.242641) translate(15.242641, 6.242641)" fill="#4A8EDA">
                                            <rect id="Rectangle-20-Copy-2" x="0" y="1" width="1.5" height="4.96077312" rx="0.75"></rect>
                                            <rect id="Rectangle-20-Copy-3" transform="translate(2.722804, 1.507583) rotate(-90.000000) translate(-2.722804, -1.507583) " x="1.97280404" y="-0.972804041" width="1.5" height="4.96077312" rx="0.75"></rect>
                                        </g>
                                        <g id="Group-19" transform="translate(10.556349, 10.071068) rotate(-315.000000) translate(-10.556349, -10.071068) translate(5.556349, 1.071068)" fill="#4D93DB">
                                            <rect id="Rectangle-22-Copy-2" x="8.5" y="0.5" width="1.5" height="17" rx="0.75"></rect>
                                            <rect id="Rectangle-22-Copy" transform="translate(5.155761, 16.985570) rotate(-270.000000) translate(-5.155761, -16.985570) " x="4.40576105" y="12.4855702" width="1.5" height="9" rx="0.75"></rect>
                                        </g>
                                    </g>
                                    <g id="Group-20-Copy-2" transform="translate(31.620661, 24.146862) rotate(-16.000000) translate(-31.620661, -24.146862) translate(20.120661, 12.646862)">
                                        <g id="Group-18-Copy-6" transform="translate(19.242641, 4.242641) rotate(-270.000000) translate(-19.242641, -4.242641) translate(16.242641, 1.242641)" fill="#4A8EDA">
                                            <rect id="Rectangle-20-Copy-2" x="0" y="1" width="1.5" height="4.96077312" rx="0.75"></rect>
                                            <rect id="Rectangle-20-Copy-3" transform="translate(2.722804, 1.507583) rotate(-90.000000) translate(-2.722804, -1.507583) " x="1.97280404" y="-0.972804041" width="1.5" height="4.96077312" rx="0.75"></rect>
                                        </g>
                                        <g id="Group-19" transform="translate(10.849242, 11.435029) rotate(-315.000000) translate(-10.849242, -11.435029) translate(9.849242, -2.564971)" fill="#4D93DB">
                                            <rect id="Rectangle-22-Copy-2" x="0.5" y="0.5" width="1.5" height="27" rx="0.75"></rect>
                                        </g>
                                    </g>
                                </g>
                            </g>
                        </g>
                    </g>
                </g>
            </g>
        </g>
    </g>
</svg>