<?xml version="1.0" encoding="UTF-8"?>
<svg width="49px" height="55px" viewBox="0 0 49 55" version="1.1" xmlns="http://www.w3.org/2000/svg" xmlns:xlink="http://www.w3.org/1999/xlink">
    <!-- Generator: Sketch 46.2 (44496) - http://www.bohemiancoding.com/sketch -->
    <title>Icon</title>
    <desc>Created with Sketch.</desc>
    <defs>
        <path d="M24.7084363,0.578472838 L43.0165659,11.2747916 C44.3367405,12.0460887 45.1500015,13.4715046 45.1500015,15.0140988 L45.1500015,36.4067363 C45.1500015,37.9493305 44.3367405,39.3747464 43.0165659,40.1460435 L24.7084363,50.8423622 C23.3882618,51.6136594 21.7617397,51.6136594 20.4415652,50.8423622 L2.13343558,40.1460435 C0.813261049,39.3747464 2.20494131e-14,37.9493305 2.20494131e-14,36.4067363 L0,15.0140988 C0,13.4715046 0.813261049,12.0460887 2.13343558,11.2747916 L20.4415652,0.578472838 C21.7617397,-0.192824279 23.3882618,-0.192824279 24.7084363,0.578472838 Z" id="path-1"></path>
    </defs>
    <g id="Design-draft-2" stroke="none" stroke-width="1" fill="none" fill-rule="evenodd">
        <g id="Leaftech-Web-Design" transform="translate(-422.000000, -2724.000000)">
            <g id="Block-4" transform="translate(207.000000, 2636.000000)">
                <g id="Icons" transform="translate(64.000000, 89.000000)">
                    <g id="Light-intensity" transform="translate(137.000000, 1.000000)">
                        <g id="Icon" transform="translate(16.000000, 0.000000)">
                            <g id="Mask-Copy-12" stroke-linecap="round" stroke-linejoin="round">
                                <use fill="#FFFFFF" fill-rule="evenodd" xlink:href="#path-1"></use>
                                <path stroke="#5093DC" stroke-width="1.5" d="M25.086777,-0.0691060005 L43.3949066,10.6272127 C44.9458777,11.5333502 45.9000015,13.2056585 45.9000015,15.0140988 L45.9000015,36.4067363 C45.9000015,38.2151766 44.9458777,39.8874849 43.3949066,40.7936223 L25.086777,51.4899411 C23.5328598,52.3977997 21.6171418,52.3977997 20.0632245,51.4899411 L1.75509493,40.7936223 C0.204123797,39.8874849 -0.75,38.2151766 -0.75,36.4067363 L-0.75,15.0140988 C-0.75,13.2056585 0.204123797,11.5333502 1.75509493,10.6272127 L20.0632245,-0.0691060005 C21.6171418,-0.976964667 23.5328598,-0.976964667 25.086777,-0.0691060005 Z"></path>
                            </g>
                            <rect id="Rectangle-22" fill="#5093DC" x="22" y="25" width="1.5" height="28" rx="0.75"></rect>
                            <rect id="Rectangle-22" fill="#5093DC" x="8" y="33" width="1.5" height="12" rx="0.75"></rect>
                            <rect id="Rectangle-22" fill="#5093DC" x="15" y="30" width="1.5" height="19" rx="0.75"></rect>
                            <rect id="Rectangle-22" fill="#5093DC" x="29" y="21" width="1.5" height="28" rx="0.75"></rect>
                            <rect id="Rectangle-22" fill="#5093DC" x="36" y="17" width="1.5" height="28" rx="0.75"></rect>
                            <rect id="Rectangle-22" fill="#5093DC" x="22" y="14" width="1.5" height="28" rx="0.75"></rect>
                            <rect id="Rectangle-22" fill="#5093DC" x="8" y="27" width="1.5" height="12" rx="0.75"></rect>
                            <rect id="Rectangle-22" fill="#5093DC" x="15" y="19" width="1.5" height="19" rx="0.75"></rect>
                            <rect id="Rectangle-22" fill="#5093DC" x="29" y="10" width="1.5" height="28" rx="0.75"></rect>
                        </g>
                    </g>
                </g>
            </g>
        </g>
    </g>
</svg>