<?xml version="1.0" encoding="UTF-8"?>
<svg width="49px" height="55px" viewBox="0 0 49 55" version="1.1" xmlns="http://www.w3.org/2000/svg" xmlns:xlink="http://www.w3.org/1999/xlink">
    <!-- Generator: Sketch 46.2 (44496) - http://www.bohemiancoding.com/sketch -->
    <title>Icon</title>
    <desc>Created with Sketch.</desc>
    <defs>
        <path d="M26.7084363,1.57847284 L45.0165659,12.2747916 C46.3367405,13.0460887 47.1500015,14.4715046 47.1500015,16.0140988 L47.1500015,37.4067363 C47.1500015,38.9493305 46.3367405,40.3747464 45.0165659,41.1460435 L26.7084363,51.8423622 C25.3882618,52.6136594 23.7617397,52.6136594 22.4415652,51.8423622 L4.13343558,41.1460435 C2.81326105,40.3747464 2,38.9493305 2,37.4067363 L2,16.0140988 C2,14.4715046 2.81326105,13.0460887 4.13343558,12.2747916 L22.4415652,1.57847284 C23.7617397,0.807175721 25.3882618,0.807175721 26.7084363,1.57847284 Z" id="path-1"></path>
    </defs>
    <g id="Design-draft-2" stroke="none" stroke-width="1" fill="none" fill-rule="evenodd">
        <g id="Leaftech-Web-Design" transform="translate(-552.000000, -2724.000000)">
            <g id="Block-4" transform="translate(207.000000, 2636.000000)">
                <g id="Icons" transform="translate(64.000000, 89.000000)">
                    <g id="Shading-requirements" transform="translate(247.000000, 0.000000)">
                        <g id="Icon" transform="translate(34.000000, 0.000000)">
                            <g id="Mask-Copy-13" stroke-linecap="round" stroke-linejoin="round">
                                <use fill="#FFFFFF" fill-rule="evenodd" xlink:href="#path-1"></use>
                                <path stroke="#5093DC" stroke-width="1.5" d="M27.086777,0.930894 L45.3949066,11.6272127 C46.9458777,12.5333502 47.9000015,14.2056585 47.9000015,16.0140988 L47.9000015,37.4067363 C47.9000015,39.2151766 46.9458777,40.8874849 45.3949066,41.7936223 L27.086777,52.4899411 C25.5328598,53.3977997 23.6171418,53.3977997 22.0632245,52.4899411 L3.75509493,41.7936223 C2.2041238,40.8874849 1.25,39.2151766 1.25,37.4067363 L1.25,16.0140988 C1.25,14.2056585 2.2041238,12.5333502 3.75509493,11.6272127 L22.0632245,0.930894 C23.6171418,0.0230353335 25.5328598,0.0230353335 27.086777,0.930894 Z"></path>
                            </g>
                            <rect id="Rectangle-20" fill="#5093DC" transform="translate(14.829483, 9.149519) rotate(-300.000000) translate(-14.829483, -9.149519) " x="14.0794827" y="-6.85048095" width="1.5" height="32"></rect>
                            <rect id="Rectangle-20" fill="#5093DC" transform="translate(15.829483, 12.649519) rotate(-300.000000) translate(-15.829483, -12.649519) " x="15.0794827" y="-4.85048095" width="1.5" height="35"></rect>
                            <rect id="Rectangle-20" fill="#5093DC" transform="translate(18.695508, 15.149519) rotate(-300.000000) translate(-18.695508, -15.149519) " x="17.9455081" y="-4.35048095" width="1.5" height="39"></rect>
                            <rect id="Rectangle-20" fill="#5093DC" transform="translate(19.695508, 18.649519) rotate(-300.000000) translate(-19.695508, -18.649519) " x="18.9455081" y="-3.35048095" width="1.5" height="44"></rect>
                        </g>
                    </g>
                </g>
            </g>
        </g>
    </g>
</svg>