<?xml version="1.0" encoding="UTF-8"?>
<svg width="48px" height="54px" viewBox="0 0 48 54" version="1.1" xmlns="http://www.w3.org/2000/svg" xmlns:xlink="http://www.w3.org/1999/xlink">
    <!-- Generator: Sketch 46.2 (44496) - http://www.bohemiancoding.com/sketch -->
    <title>Cost_efficient</title>
    <desc>Created with Sketch.</desc>
    <defs></defs>
    <g id="Design-draft-2" stroke="none" stroke-width="1" fill="none" fill-rule="evenodd">
        <g id="Leaftech-Web-Design" transform="translate(-644.000000, -263.000000)">
            <g id="Block-1">
                <g id="Icons" transform="translate(317.000000, 265.000000)">
                    <g id="Cost_efficient" transform="translate(329.250000, 0.000000)">
                        <g id="Group-6-Copy-3" stroke="#FFFFFF" stroke-width="1.51875" stroke-linecap="round" stroke-linejoin="round">
                            <path d="M24.2333535,-0.0961780458 L41.9052927,10.2444559 C43.4131066,11.1267446 44.3404561,12.7546443 44.3404561,14.5148348 L44.3404561,35.1961027 C44.3404561,36.9562932 43.4131066,38.5841929 41.9052927,39.4664816 L24.2333535,49.8071155 C22.7221662,50.6913782 20.8589149,50.6913782 19.3477276,49.8071155 L1.6757884,39.4664816 C0.167974482,38.5841929 -0.759375,36.9562932 -0.759375,35.1961027 L-0.759375,14.5148348 C-0.759375,12.7546443 0.167974482,11.1267446 1.6757884,10.2444559 L19.3477276,-0.0961780458 C20.8589149,-0.980440651 22.7221662,-0.980440651 24.2333535,-0.0961780458 Z" id="Mask-Copy-21"></path>
                        </g>
                        <path d="M16.7675377,22.9965982 L21.9027965,23.1227782 L21.9027965,24.03043 L16.6906344,24.1559585 L16.6906344,24.8633321 C16.6906344,25.3012156 16.6976378,25.6199999 16.7119463,25.8226265 L16.7281635,26.0522822 L21.9027965,26.1774035 L21.9027965,27.1060499 L16.793538,27.2326159 L16.838503,27.517918 C16.9992502,28.537856 17.3249202,29.249709 17.8328174,29.6448994 C18.3329346,30.0340363 19.0919147,30.2212857 20.1082864,30.2212857 C21.6558342,30.2212857 22.9499449,30.1625284 23.991798,30.0446057 L23.991798,31.9587059 C22.8157992,32.3170857 21.2931225,32.4975857 19.4257414,32.4975857 C18.366299,32.4975857 17.4942027,32.3595406 16.8100036,32.0867013 C16.146528,31.8221259 15.5991435,31.3331953 15.1646787,30.6116784 C14.7238945,29.8796671 14.4197583,28.8249029 14.2581441,27.4489819 L14.2339973,27.2434056 L12.75,27.1200283 L12.75,26.1653226 L14.1724155,26.0595285 L14.1559085,25.8090711 C14.1425683,25.6066628 14.1357733,25.2836201 14.1357733,24.8424107 L14.1357733,24.1752766 L12.75,24.0288266 L12.75,23.125855 L14.198406,22.9814095 L14.2174521,22.773342 C14.3523699,21.2994457 14.6471858,20.160819 15.096274,19.3591815 C15.5393301,18.5683117 16.1056327,18.0247782 16.7975428,17.7202008 C17.5071668,17.4078257 18.396861,17.25 19.4671077,17.25 C20.3903421,17.25 21.2580905,17.3220024 22.070434,17.4658 C22.8066822,17.5961276 23.4472785,17.7456728 23.991798,17.9140453 L23.991798,19.8235685 C23.6010455,19.7506086 23.1075755,19.6869186 22.5100311,19.6319706 C21.743772,19.5615083 20.9432029,19.5263 20.1082864,19.5263 C19.418299,19.5263 18.8548821,19.60719 18.4160098,19.7727223 C17.9512016,19.948037 17.581663,20.2820668 17.3121971,20.7649049 C17.0515763,21.2318939 16.8813052,21.8841783 16.7953637,22.724515 L16.7675377,22.9965982 Z" id="Combined-Shape" fill="#FFFFFF"></path>
                        <path d="M29.7074511,28.9636607 L29.7074511,22.2100882 C29.7074511,21.8161914 29.3881347,21.496875 28.9942379,21.496875 L28.9942379,21.496875 L28.9942379,21.496875 C28.6003411,21.496875 28.2810247,21.8161914 28.2810247,22.2100882 L28.2810247,22.2100882 L28.2810247,28.9636607 L27.2112048,28.9636607 C26.8470859,28.9636607 26.6250998,29.368792 26.8180825,29.6811209 L28.6011155,32.5668352 C28.7826881,32.8606978 29.2057876,32.8606978 29.3873602,32.5668352 L31.1703932,29.6811209 C31.3633759,29.368792 31.1413899,28.9636607 30.7772709,28.9636607 L29.7074511,28.9636607 Z" id="Combined-Shape-Copy" fill="#FFFFFF"></path>
                    </g>
                </g>
            </g>
        </g>
    </g>
</svg>