<?xml version="1.0" encoding="UTF-8"?>
<svg width="87px" height="15px" viewBox="0 0 87 15" version="1.1" xmlns="http://www.w3.org/2000/svg" xmlns:xlink="http://www.w3.org/1999/xlink">
    <!-- Generator: Sketch 46.2 (44496) - http://www.bohemiancoding.com/sketch -->
    <title>LEAFTECH logo</title>
    <desc>Created with Sketch.</desc>
    <defs></defs>
    <g id="Design-draft-2" stroke="none" stroke-width="1" fill="none" fill-rule="evenodd">
        <g id="Leaftech-Web-Design" transform="translate(-41.000000, -42.000000)" fill="#FFFFFF">
            <g id="Block-1">
                <path d="M42.088,55.397 C41.6199977,54.994998 41.386,54.3080049 41.386,53.336 L41.386,42.752 L42.826,42.752 L42.826,53.138 C42.826,53.7260029 42.9639986,54.1309989 43.24,54.353 C43.5160014,54.5750011 43.8879977,54.686 44.356,54.686 L49.108,54.686 L49.108,56 L44.05,56 C43.2099958,56 42.5560023,55.799002 42.088,55.397 Z M51.745,55.541 C51.2229974,55.1869982 50.962,54.506005 50.962,53.498 L50.962,45.416 C50.962,44.4799953 51.2139975,43.8020021 51.718,43.382 C52.2220025,42.9619979 52.8399963,42.752 53.572,42.752 C55.4920096,42.7880002 56.9859947,42.8299998 58.054,42.878 L59.116,42.914 L59.116,44.066 L53.932,44.066 C52.9119949,44.066 52.402,44.5939947 52.402,45.65 L52.402,48.782 L58.324,48.872 L58.324,49.97 L52.402,50.06 L52.402,53.174 C52.402,53.7860031 52.5459986,54.1999989 52.834,54.416 C53.1220014,54.6320011 53.5119975,54.74 54.004,54.74 L59.116,54.74 L59.116,55.892 C56.8359886,56.0120006 55.0180068,56.072 53.662,56.072 C52.9059962,56.072 52.2670026,55.8950018 51.745,55.541 Z M65.29,42.752 L67.126,42.752 L71.662,56 L70.186,56 L68.854,52.22 L63.526,52.22 L62.23,56 L60.754,56 L65.29,42.752 Z M68.494,50.924 L66.208,44.012 L63.886,50.924 L68.494,50.924 Z M73.3,45.416 C73.3,44.4799953 73.5519975,43.8020021 74.056,43.382 C74.5600025,42.9619979 75.1779963,42.752 75.91,42.752 L76.918,42.77 C77.2060014,42.7820001 77.8329952,42.7969999 78.799,42.815 C79.7650048,42.8330001 80.649996,42.8719997 81.454,42.932 L81.454,44.066 L76.252,44.066 C75.7719976,44.066 75.4000013,44.2009987 75.136,44.471 C74.8719987,44.7410013 74.74,45.1279975 74.74,45.632 L74.74,49.07 L80.662,49.16 L80.662,50.258 L74.74,50.348 L74.74,56 L73.3,56 L73.3,45.416 Z M86.512,44.048 L82.408,44.048 L82.408,42.752 L92.02,42.752 L92.02,44.048 L87.934,44.048 L87.934,56 L86.512,56 L86.512,44.048 Z M94.297,55.541 C93.7749974,55.1869982 93.514,54.506005 93.514,53.498 L93.514,45.416 C93.514,44.4799953 93.7659975,43.8020021 94.27,43.382 C94.7740025,42.9619979 95.3919963,42.752 96.124,42.752 C98.0440096,42.7880002 99.5379947,42.8299998 100.606,42.878 L101.668,42.914 L101.668,44.066 L96.484,44.066 C95.4639949,44.066 94.954,44.5939947 94.954,45.65 L94.954,48.782 L100.876,48.872 L100.876,49.97 L94.954,50.06 L94.954,53.174 C94.954,53.7860031 95.0979986,54.1999989 95.386,54.416 C95.6740014,54.6320011 96.0639975,54.74 96.556,54.74 L101.668,54.74 L101.668,55.892 C99.3879886,56.0120006 97.5700068,56.072 96.214,56.072 C95.4579962,56.072 94.8190026,55.8950018 94.297,55.541 Z M105.718,55.577 C105.057997,55.2229982 104.566002,54.5600049 104.242,53.588 C103.917998,52.6159951 103.756,51.2000093 103.756,49.34 C103.756,47.5759912 103.923998,46.2110048 104.26,45.245 C104.596002,44.2789952 105.105997,43.6040019 105.79,43.22 C106.474003,42.8359981 107.385994,42.644 108.526,42.644 C109.078003,42.644 109.710996,42.6889995 110.425,42.779 C111.139004,42.8690005 111.771997,42.9859993 112.324,43.13 L112.324,44.192 C111.903998,44.1319997 111.364003,44.0720003 110.704,44.012 C110.043997,43.9519997 109.390003,43.922 108.742,43.922 C107.841995,43.922 107.140003,44.0689985 106.636,44.363 C106.131997,44.6570015 105.763001,45.1909961 105.529,45.965 C105.294999,46.7390039 105.178,47.8699926 105.178,49.358 C105.178,50.8940077 105.288999,52.0489961 105.511,52.823 C105.733001,53.5970039 106.089998,54.1249986 106.582,54.407 C107.074002,54.6890014 107.781995,54.83 108.706,54.83 C110.230008,54.83 111.435996,54.7520008 112.324,54.596 L112.324,55.676 C111.771997,55.8080007 111.151003,55.9129996 110.461,55.991 C109.770997,56.0690004 109.090003,56.108 108.418,56.108 C107.277994,56.108 106.378003,55.9310018 105.718,55.577 Z M114.538,42.752 L115.978,42.752 L115.978,48.89 L122.602,48.89 L122.602,42.752 L124.024,42.752 L124.024,56 L122.602,56 L122.602,50.168 L115.978,50.168 L115.978,56 L114.538,56 L114.538,42.752 Z M126.625,55.937 C126.571,55.8829997 126.544,55.8140004 126.544,55.73 L126.544,54.29 C126.544,54.097999 126.639999,54.002 126.832,54.002 L127.624,54.002 C127.816001,54.002 127.912,54.097999 127.912,54.29 L127.912,55.73 C127.912,55.922001 127.816001,56.018 127.624,56.018 L126.832,56.018 C126.748,56.018 126.679,55.9910003 126.625,55.937 Z" id="LEAFTECH-logo"></path>
            </g>
        </g>
    </g>
</svg>