<?xml version="1.0" encoding="UTF-8"?>
<svg width="14px" height="35px" viewBox="0 0 14 35" version="1.1" xmlns="http://www.w3.org/2000/svg" xmlns:xlink="http://www.w3.org/1999/xlink">
    <!-- Generator: Sketch 46.2 (44496) - http://www.bohemiancoding.com/sketch -->
    <title>Scroll for more icon</title>
    <desc>Created with Sketch.</desc>
    <defs></defs>
    <g id="Design-draft-2" stroke="none" stroke-width="1" fill="none" fill-rule="evenodd">
        <g id="Leaftech-Web-Design" transform="translate(-505.000000, -514.000000)" fill-rule="nonzero" fill="#FFFFFF">
            <g id="Block-1">
                <g id="Scroll-down-for-more" transform="translate(453.000000, 486.000000)">
                    <g id="Scroll-for-more-icon" transform="translate(52.000000, 28.000000)">
                        <path d="M14,14.6669773 C13.9996047,10.9847024 10.9355731,8.00038497 7.15494071,8 L6.84505929,8 C3.06442688,8.00038497 0.000395256917,10.9847024 0,14.6669773 L0,20.3334076 C0.000395256917,24.0156826 3.06442688,26.999615 6.84505929,27 L7.15494071,27 C10.9355731,26.999615 13.9996047,24.0152976 14,20.3334076 L14,14.6669773 Z M12.8521739,20.3334076 C12.8517787,21.8675285 12.215415,23.2511245 11.1833992,24.2570612 C10.1505929,25.262228 8.72964427,25.8820359 7.15454545,25.8824209 L6.84466403,25.8824209 C5.26956522,25.8820359 3.8486166,25.262228 2.81581028,24.2570612 C1.78379447,23.2511245 1.14743083,21.8671435 1.14703557,20.3334076 L1.14703557,14.6669773 C1.14743083,13.1328565 1.78379447,11.7488755 2.81581028,10.7429388 C3.8486166,9.73777201 5.26956522,9.1179641 6.84466403,9.11757912 L7.15454545,9.11757912 C8.72964427,9.1179641 10.1501976,9.73777201 11.1833992,10.7429388 C12.215415,11.7488755 12.8517787,13.1328565 12.8521739,14.6669773 L12.8521739,20.3334076 Z" id="Shape"></path>
                        <path d="M7.5,14 C7.2238292,14 7,14.2722703 7,14.60821 L7,16.39179 C7,16.7277297 7.2238292,17 7.5,17 C7.7761708,17 8,16.7277297 8,16.39179 L8,14.60821 C8,14.2722703 7.7761708,14 7.5,14 Z" id="Shape"></path>
                        <path d="M7.13539181,34.890472 C7.34838036,35.0365093 7.65098484,35.0365093 7.86437526,34.890472 L10.7811128,32.8907242 C11.0326804,32.7181659 11.0732688,32.4037033 10.8723362,32.1880915 C10.6710017,31.9724797 10.3040988,31.9376925 10.0525312,32.1099064 L10.0525312,32.1099064 L7.49988353,33.8595996 L4.94763773,32.109562 C4.69607013,31.9370037 4.32876535,31.9721353 4.12783275,32.1877471 C3.9264983,32.4033589 3.96748854,32.7178215 4.21905615,32.8903798 L7.13539181,34.890472 Z" id="Shape"></path>
                        <path d="M10.0524395,2.89044744 C10.3039866,3.0629909 10.6708596,3.02786229 10.8721777,2.81226906 C11.0734957,2.59667583 11.0325088,2.28224033 10.7809617,2.10969687 L7.86446201,0.109776905 C7.65108899,-0.0365923017 7.34891101,-0.0365923017 7.13553799,0.109776905 L4.21903829,2.10935247 C3.96749119,2.28189593 3.92650429,2.59633143 4.12782233,2.81192466 C4.32914037,3.02751789 4.69601337,3.0623021 4.94756047,2.89010304 L4.94756047,2.89010304 L7.50040183,1.14056052 L10.0524395,2.89044744 Z" id="Shape"></path>
                    </g>
                </g>
            </g>
        </g>
    </g>
</svg>