<?xml version="1.0" encoding="UTF-8"?>
<svg width="47px" height="53px" viewBox="0 0 47 53" version="1.1" xmlns="http://www.w3.org/2000/svg" xmlns:xlink="http://www.w3.org/1999/xlink">
    <!-- Generator: Sketch 46.2 (44496) - http://www.bohemiancoding.com/sketch -->
    <title>Swiftly_setup</title>
    <desc>Created with Sketch.</desc>
    <defs></defs>
    <g id="Design-draft-2" stroke="none" stroke-width="1" fill="none" fill-rule="evenodd">
        <g id="Leaftech-Web-Design" transform="translate(-433.000000, -264.000000)">
            <g id="Block-1">
                <g id="Icons" transform="translate(317.000000, 265.000000)">
                    <g id="Swiftly_setup" transform="translate(117.750000, 0.750000)">
                        <g id="Group-34">
                            <g id="Group-6-Copy-7" stroke="#FFFFFF" stroke-width="1.51875" stroke-linecap="round" stroke-linejoin="round">
                                <path d="M24.2092232,-0.0974494518 L41.8634905,10.222708 C43.3701362,11.1034481 44.296875,12.7286796 44.296875,14.4860926 L44.296875,35.1264074 C44.296875,36.8838204 43.3701362,38.5090519 41.8634905,39.389792 L24.2092232,49.7099495 C22.6994516,50.5925168 20.8380484,50.5925168 19.3282768,49.7099495 L1.67400952,39.389792 C0.167363792,38.5090519 -0.759375,36.8838204 -0.759375,35.1264074 L-0.759375,14.4860926 C-0.759375,12.7286796 0.167363792,11.1034481 1.67400952,10.222708 L19.3282768,-0.0974494518 C20.8380484,-0.980016849 22.6994516,-0.980016849 24.2092232,-0.0974494518 Z" id="Mask-Copy-21"></path>
                            </g>
                            <path d="M25.2965652,22.0204737 C25.4071534,22.1351578 25.4270523,22.315629 25.3497621,22.4537789 L23.1719961,25.2786243 L23.1953405,25.4469501 C23.282672,26.076657 22.9726124,26.6914047 22.4310893,26.9725266 C21.8956921,27.2504682 21.2502323,27.1420076 20.8245399,26.7005489 C20.3929627,26.2529873 20.2854003,25.5645787 20.5599405,24.9958345 C20.8315773,24.4331051 21.4144671,24.1169332 22.0068189,24.205282 L22.1860498,24.2320141 L24.8782282,21.9946786 C25.0038581,21.8906689 25.1813146,21.9009546 25.2965652,22.0204737 Z M29.6432766,18.7184509 L28.4392299,19.9670919 L28.6433909,20.2425556 C29.8110153,21.8179698 30.431724,23.7574726 30.4041026,25.7460752 C30.3460328,30.1073741 27.2700453,33.7860715 23.12701,34.4613359 C21.089378,34.7903412 19.0051399,34.3396269 17.2623196,33.1923036 C16.9467651,32.9588412 16.8569716,32.4770596 17.0805776,32.11585 C17.2989448,31.7631029 17.7374285,31.6525743 18.0818986,31.8586286 C21.0967911,33.8184207 25.0657251,33.1418638 27.324048,30.2759504 C29.5761241,27.4179644 29.425677,23.27278 26.9721807,20.5977564 C24.5117038,17.9151219 20.5045041,17.5498359 17.6286188,19.7476064 C17.2976385,19.9995016 16.8348833,19.9258465 16.5888582,19.5781916 C16.3365482,19.2216555 16.4111815,18.717378 16.7516089,18.458292 C17.9180796,17.5703047 19.280828,17.0020413 20.7140192,16.8055968 L21.064021,16.7576228 L21.064021,15.0927189 L19.7738428,15.0927189 C19.5642788,15.0925355 19.3630461,14.999879 19.2196522,14.8356842 C19.0733592,14.6681697 19.0014192,14.4422294 19.0230218,14.2145638 C19.0743299,13.8031887 19.419082,13.4936835 19.8175942,13.5000979 L23.8631472,13.5001504 C24.0727112,13.5003337 24.273944,13.5929902 24.4173379,13.757185 C24.5636308,13.9246995 24.6355708,14.1506398 24.6139682,14.3783055 C24.5615385,14.7864023 24.2180207,15.0940647 23.8210156,15.0882295 L22.967041,15.0881857 L22.562041,15.0881857 L22.562041,16.7544939 L22.9136206,16.8012768 C24.4340191,17.0035883 25.8743182,17.6271845 27.0832817,18.6070399 L27.3719258,18.8409837 L28.5871317,17.5807702 C28.7216187,17.4313874 28.8861877,17.3407552 29.064305,17.311821 C29.2830192,17.2826493 29.5143739,17.3650743 29.6800102,17.5385804 C29.8492665,17.7158784 29.9299373,17.9675974 29.8962445,18.2179972 C29.8692868,18.4052498 29.7819057,18.5804797 29.6432766,18.7184509 Z M11.5056234,25.5061933 L16.8429197,25.5061933 C17.0508824,25.4962134 17.2303522,25.5957685 17.3302412,25.7686558 C17.4330895,25.9466653 17.4330895,26.1709764 17.3302412,26.3489859 C17.2303522,26.5218732 17.0508824,26.6214283 16.8633329,26.6119632 L11.5056234,26.6114484 C11.2976607,26.6214283 11.1181909,26.5218732 11.0183019,26.3489859 C10.9154535,26.1709764 10.9154535,25.9466653 11.0183019,25.7686558 C11.1181909,25.5957685 11.2976607,25.4962134 11.4852102,25.5056785 L11.5056234,25.5061933 Z M18.5536057,22.6410372 C18.5529024,22.9495654 18.3171654,23.1934555 18.0340865,23.1934547 L12.696789,23.1934547 C12.4888263,23.2034345 12.3093565,23.1038795 12.2094676,22.9309922 C12.1066192,22.7529827 12.1066192,22.5286715 12.2094676,22.3506621 C12.3093565,22.1777748 12.4888263,22.0782197 12.6763758,22.0876848 L18.0340853,22.0881996 C18.1687364,22.0881996 18.2988375,22.1440851 18.3962823,22.245139 C18.4965075,22.3490762 18.5536047,22.4920265 18.5536057,22.6410372 Z M15.651754,30.0317087 L10.3144578,30.0317087 C10.1064951,30.0416886 9.92702527,29.9421335 9.82713629,29.7692462 C9.7242879,29.5912367 9.7242879,29.3669256 9.82713629,29.1889161 C9.92702527,29.0160288 10.1064951,28.9164737 10.2940445,28.9259388 L15.651754,28.9264536 C15.8597167,28.9164737 16.0391865,29.0160288 16.1390755,29.1889161 C16.2419239,29.3669256 16.2419239,29.5912367 16.1390755,29.7692462 C16.0391865,29.9421335 15.8597167,30.0416886 15.6721673,30.0322235 L15.651754,30.0317087 Z" id="Combined-Shape" fill="#FFFFFF"></path>
                        </g>
                    </g>
                </g>
            </g>
        </g>
    </g>
</svg>