<?xml version="1.0" encoding="UTF-8"?>
<svg width="49px" height="55px" viewBox="0 0 49 55" version="1.1" xmlns="http://www.w3.org/2000/svg" xmlns:xlink="http://www.w3.org/1999/xlink">
    <!-- Generator: Sketch 46.2 (44496) - http://www.bohemiancoding.com/sketch -->
    <title>Icon</title>
    <desc>Created with Sketch.</desc>
    <defs>
        <path d="M25.3084111,1.37847282 L43.6165401,12.0747912 C44.9367146,12.8460883 45.7499756,14.2715041 45.7499756,15.8140983 L45.7499756,37.2067351 C45.7499756,38.7493292 44.9367146,40.174745 43.6165401,40.9460421 L25.3084111,51.6423605 C23.9882366,52.4136576 22.3617146,52.4136576 21.0415401,51.6423605 L2.73341109,40.9460421 C1.41323661,40.174745 0.599975586,38.7493292 0.599975586,37.2067351 L0.599975586,15.8140983 C0.599975586,14.2715041 1.41323661,12.8460883 2.73341109,12.0747912 L21.0415401,1.37847282 C22.3617146,0.607175727 23.9882366,0.607175727 25.3084111,1.37847282 Z" id="path-1"></path>
    </defs>
    <g id="Design-draft-2" stroke="none" stroke-width="1" fill="none" fill-rule="evenodd">
        <g id="Leaftech-Web-Design" transform="translate(-632.000000, -903.000000)">
            <g id="Block-2" transform="translate(98.000000, 638.000000)">
                <g id="Icons" transform="translate(0.000000, 83.000000)">
                    <g id="Facade-tilt-and-orientation" transform="translate(535.000000, 183.000000)">
                        <g id="Icon">
                            <g id="Mask-Copy-23" stroke-linecap="round" stroke-linejoin="round">
                                <use fill="#FFFFFF" fill-rule="evenodd" xlink:href="#path-1"></use>
                                <path stroke="#5093DC" stroke-width="1.5" d="M25.6867517,0.73089398 L43.9948807,11.4272124 C45.5458518,12.3333498 46.4999756,14.005658 46.4999756,15.8140983 L46.4999756,37.2067351 C46.4999756,39.0151753 45.5458518,40.6874836 43.9948807,41.593621 L25.6867517,52.2899394 C24.1328345,53.197798 22.2171166,53.197798 20.6631994,52.2899394 L2.35507044,41.593621 C0.804099356,40.6874836 -0.150024414,39.0151753 -0.150024414,37.2067351 L-0.150024414,15.8140983 C-0.150024414,14.005658 0.804099356,12.3333498 2.35507044,11.4272124 L20.6631994,0.73089398 C22.2171166,-0.17696466 24.1328345,-0.17696466 25.6867517,0.73089398 Z"></path>
                            </g>
                            <g id="Group-20" transform="translate(8.950000, 14.113857)" stroke="#FFFFFF" stroke-width="0.3" fill="#4A8EDA" fill-rule="nonzero">
                                <g id="Group-14" transform="translate(0.010465, 0.015116)">
                                    <path d="M8.14297362,5.80843655 C4.20568946,6.92154912 1.32087164,10.6015692 1.31927759,14.9706784 C1.31887908,16.7484874 1.82897258,18.396203 2.66305514,19.8207269 L1.01760511,19.5247642 C0.546167139,19.4397969 0.0962487357,19.7609652 0.0133585427,20.2423112 C-0.0699301609,20.7232506 0.244893168,21.1818303 0.716729651,21.2667976 L0.716729651,21.2667976 L4.50736194,21.9485689 L4.60619255,21.9262091 C4.68589466,21.9314941 4.74846082,21.8932791 4.82696739,21.8762044 L5.15534008,21.8022137 L5.20993603,21.7152136 C5.227869,21.699765 5.2541707,21.7066763 5.27090814,21.6896015 C5.32669962,21.6326856 5.31713536,21.5501575 5.35459535,21.4834846 L5.51200702,21.2314284 L6.1803092,17.3648054 C6.2635979,16.883866 5.94877457,16.4252864 5.47693809,16.3403191 C5.00550012,16.2553517 4.55598022,16.5765201 4.47269152,17.0578661 L4.15029649,18.9243014 C3.46924197,17.7644364 3.05399399,16.4240668 3.05399399,14.9710849 C3.0508059,11.4146536 5.4056047,8.41843754 8.60604288,7.5126615 C9.06711957,7.38216145 9.33770823,6.89471734 9.20978635,6.424348 C9.08186446,5.95397866 8.60444883,5.67752996 8.14297362,5.80843655 Z" id="Shape"></path>
                                    <path d="M27.8617674,19.5250929 L27.8617674,19.5250929 L26.2160411,19.8210651 C27.0500617,18.3964954 27.5601173,16.7483203 27.5597188,14.9708607 C27.5581249,10.6020177 24.6735214,6.92187929 20.7365297,5.80832439 C20.2750888,5.67782014 19.7973102,5.95346462 19.6697963,6.42425563 C19.5422824,6.89504664 19.812054,7.38250642 20.2734949,7.51260411 L20.2734949,7.51260411 C23.4736953,8.41840926 25.8283192,11.4147217 25.8267252,14.9708607 C25.8263268,16.4238892 25.4115081,17.764302 24.7301057,18.9242042 L24.4077346,17.0573023 C24.3244521,16.5763474 23.8749656,16.2551688 23.4035627,16.3401388 C22.9321597,16.4251089 22.6173598,16.8837032 22.7002438,17.3646581 L23.3684963,21.2314054 L23.5258963,21.4834696 C23.5633535,21.5501447 23.55379,21.6326754 23.6095773,21.6895932 C23.6263135,21.7066685 23.6526132,21.699757 23.6705449,21.7152061 L23.7251368,21.802209 L24.0534851,21.876202 C24.1319858,21.8932774 24.1945473,21.9314936 24.2742435,21.9262083 L24.3730668,21.9485689 L28.1634175,21.2667757 C28.6348204,21.1818056 28.9496203,20.7232113 28.8663378,20.2422564 C28.7822584,19.7613015 28.3327719,19.4401228 27.8617674,19.5250929 Z" id="Shape"></path>
                                    <path d="M16.8745962,4.69871729 C17.2423935,5.02511322 17.8393601,5.02511322 18.2071574,4.69871729 C18.5749547,4.37232137 18.5749547,3.84255272 18.2071574,3.5161568 L14.5469462,0.267959905 C14.3753941,0.106107509 14.1401598,0 13.8698352,0 C13.8668028,0 13.8655031,0.00269113247 13.8624706,0.00269113247 C13.6185721,0.000768894992 13.3746735,0.0795806316 13.1883922,0.244893055 L9.51735065,3.50270113 C9.14955336,3.82909706 9.14955336,4.35886571 9.51735065,4.68526163 C9.88514795,5.01165756 10.4821146,5.01165756 10.8499119,4.68526163 L12.9275984,2.84145144 L12.9275984,14.4729104 L10.8499119,12.6291002 C10.4816814,12.3027043 9.88514795,12.3027043 9.51735065,12.6291002 C9.14955336,12.9554962 9.14955336,13.4852648 9.51735065,13.8116607 L13.2035546,17.0829245 C13.3742403,17.2343968 13.6099078,17.3278175 13.8698352,17.3278175 C14.1301959,17.3278175 14.3658634,17.2340123 14.5361159,17.0829245 L18.2071574,13.8251164 C18.5749547,13.498336 18.5749547,12.9689518 18.2071574,12.6425559 C17.8393601,12.31616 17.2423935,12.31616 16.8745962,12.6425559 L14.8120721,14.4729104 L14.8120721,2.86836277 L16.8745962,4.69871729 Z" id="Shape"></path>
                                </g>
                            </g>
                        </g>
                    </g>
                </g>
            </g>
        </g>
    </g>
</svg>