<?xml version="1.0" encoding="UTF-8"?>
<svg width="49px" height="55px" viewBox="0 0 49 55" version="1.1" xmlns="http://www.w3.org/2000/svg" xmlns:xlink="http://www.w3.org/1999/xlink">
    <!-- Generator: Sketch 46.2 (44496) - http://www.bohemiancoding.com/sketch -->
    <title>Icon</title>
    <desc>Created with Sketch.</desc>
    <defs>
        <path d="M25.6584355,1.27847282 L43.9665645,11.9747912 C45.286739,12.7460883 46.1,14.1715041 46.1,15.7140983 L46.1,37.1067351 C46.1,38.6493292 45.286739,40.074745 43.9665645,40.8460421 L25.6584355,51.5423605 C24.338261,52.3136576 22.711739,52.3136576 21.3915645,51.5423605 L3.08343551,40.8460421 C1.76326102,40.074745 0.95,38.6493292 0.95,37.1067351 L0.95,15.7140983 C0.95,14.1715041 1.76326102,12.7460883 3.08343551,11.9747912 L21.3915645,1.27847282 C22.711739,0.507175727 24.338261,0.507175727 25.6584355,1.27847282 Z" id="path-1"></path>
    </defs>
    <g id="Design-draft-2" stroke="none" stroke-width="1" fill="none" fill-rule="evenodd">
        <g id="Leaftech-Web-Design" transform="translate(-481.000000, -985.000000)">
            <g id="Block-2" transform="translate(98.000000, 638.000000)">
                <g id="Icons" transform="translate(0.000000, 83.000000)">
                    <g id="Local-weather-conditions-and-sun-position" transform="translate(303.000000, 265.000000)">
                        <g id="Icon" transform="translate(81.000000, 0.000000)">
                            <g id="Mask-Copy-21" stroke-linecap="round" stroke-linejoin="round">
                                <use fill="#FFFFFF" fill-rule="evenodd" xlink:href="#path-1"></use>
                                <path stroke="#5093DC" stroke-width="1.5" d="M26.0367762,0.63089398 L44.3449051,11.3272124 C45.8958762,12.2333498 46.85,13.905658 46.85,15.7140983 L46.85,37.1067351 C46.85,38.9151753 45.8958762,40.5874836 44.3449051,41.493621 L26.0367762,52.1899394 C24.482859,53.097798 22.567141,53.097798 21.0132238,52.1899394 L2.70509486,41.493621 C1.15412377,40.5874836 0.2,38.9151753 0.2,37.1067351 L0.2,15.7140983 C0.2,13.905658 1.15412377,12.2333498 2.70509486,11.3272124 L21.0132238,0.63089398 C22.567141,-0.27696466 24.482859,-0.27696466 26.0367762,0.63089398 Z"></path>
                            </g>
                            <g id="Group-22" transform="translate(8.000000, 12.000000)" fill-rule="nonzero" fill="#4A8EDA">
                                <g id="Group" transform="translate(0.009302, 0.012791)">
                                    <path d="M20.9193144,9.37978338 C17.2942469,9.37978338 14.2203017,11.8328365 13.3477347,15.3111401 C12.6426301,14.9578585 11.8675334,14.7733554 11.070143,14.7733554 C8.23157834,14.7733554 5.92236061,17.1079491 5.92236061,19.9777068 C5.92236061,22.6530024 7.98634709,24.9288906 10.6113065,25.1584712 C10.7523275,25.1736718 10.8954222,25.1820583 11.0400724,25.1820583 L21.3403033,25.1820583 C21.6938926,25.1820583 22.0531849,25.1327876 22.3678897,25.0442051 C26.0567276,24.3439318 28.7340515,21.07896 28.7340515,17.2803967 C28.7345699,12.9236065 25.2277112,9.37978338 20.9193144,9.37978338 Z M22.1371753,24.0231479 C21.8696503,24.0960057 21.6016068,24.1332208 21.3403033,24.1332208 L11.0400724,24.1332208 C10.9327513,24.1332208 10.8264672,24.1269309 10.7108507,24.1148753 C8.60694288,23.9308963 6.95927922,22.1141694 6.95927922,19.9771827 C6.95927922,17.6855698 8.80343895,15.8211445 11.070143,15.8211445 C11.911084,15.8211445 12.7219544,16.0785055 13.4140975,16.5659712 L14.0948346,17.0450503 L14.222894,16.2158345 C14.7392795,12.8622802 17.5560689,10.4275725 20.9198328,10.4275725 C24.657406,10.4275725 27.6981698,13.5012272 27.6981698,17.2798725 C27.6976513,20.5741971 25.3754721,23.4062155 22.1371753,24.0231479 Z" id="Shape" stroke="#4A8EDA" stroke-width="0.525"></path>
                                    <path d="M6.28580058,13.9630092 L6.49681352,14.9746315 L7.1785875,14.2046454 C7.88109985,13.4131689 8.84439724,12.9545318 9.89064811,12.9136476 C10.0270029,12.908406 10.1597285,12.9052611 10.2893433,12.9052611 C11.0639215,12.9052611 11.5657901,13.0252929 12.0204789,13.319869 L12.7188436,13.7722162 L12.815277,12.9388071 C12.9868871,11.4533471 13.9481106,10.1277549 15.8399686,8.76756841 L16.389017,8.3734026 L15.8726315,7.93782842 C14.9642908,7.17203554 13.2730766,6.6489272 11.8753103,6.70186702 C10.2872695,6.76319335 8.81743735,7.44669363 7.73696817,8.62604611 C6.65649898,9.80539859 6.09500756,11.339081 6.15618576,12.945097 C6.16759186,13.2690258 6.21062398,13.6023894 6.28580058,13.9630092 Z M8.49702951,9.33837501 C9.38929797,8.36449194 10.6035297,7.79997522 11.9147132,7.74965618 C11.9670776,7.74755955 12.0189235,7.74651124 12.0723249,7.74651124 C12.9246719,7.74651124 13.9138923,7.99758228 14.6329953,8.3697335 C13.5447493,9.2319712 12.3517744,10.4480146 11.9193794,12.1043497 C11.3485557,11.8925904 10.7875827,11.8564236 10.2898618,11.8564236 C10.1478039,11.8564236 10.0010799,11.8595685 9.85176366,11.8658584 C8.87757863,11.9035977 7.96042413,12.2264782 7.18843823,12.7915191 C7.16821831,11.5068111 7.63068401,10.2844778 8.49702951,9.33837501 Z" id="Shape" stroke="#4A8EDA" stroke-width="0.525"></path>
                                    <path d="M12.2475641,5.62524925 C12.6913653,5.62524925 13.051176,5.44336689 13.051176,5.21955199 L13.051176,0.908363487 C13.051176,0.684024438 12.6918837,0.502142078 12.2475641,0.502142078 C11.8042814,0.502142078 11.4444706,0.684548594 11.4444706,0.908363487 L11.4444706,5.21955199 C11.4444706,5.44389104 11.8042814,5.62524925 12.2475641,5.62524925 Z" id="Shape"></path>
                                    <path d="M4.96528474,12.2998601 L0.700956977,12.2998601 C0.479056395,12.2998601 0.299669477,12.6631007 0.299669477,13.1123029 C0.299669477,13.5604569 0.479574855,13.9242216 0.700956977,13.9242216 L4.96528474,13.9242216 C5.18718532,13.9242216 5.36657224,13.560981 5.36657224,13.1123029 C5.3670907,12.6631007 5.18718532,12.2998601 4.96528474,12.2998601 Z" id="Shape"></path>
                                    <path d="M6.72338023,7.96403625 C7.0728218,7.68728154 7.24443183,7.31984772 7.10704012,7.14320693 L4.47430378,3.75243751 C4.33743052,3.57579672 3.94391991,3.65756515 3.5949968,3.93431987 C3.24555523,4.21159874 3.0739452,4.5785084 3.21133692,4.75514919 L5.84407326,8.14644277 C5.98042805,8.32360772 6.37445712,8.24183928 6.72338023,7.96403625 Z" id="Shape"></path>
                                    <path d="M17.5939164,7.96403625 C17.9428395,8.24131512 18.3363501,8.32360772 18.4732234,8.14644277 L21.1059597,4.75514919 C21.2433515,4.5785084 21.071223,4.21159874 20.7222999,3.93431987 C20.3733767,3.65808931 19.9793477,3.57579672 19.8429929,3.75243751 L17.2102565,7.14320693 C17.0728648,7.32037188 17.2444749,7.68728154 17.5939164,7.96403625 Z" id="Shape"></path>
                                </g>
                            </g>
                        </g>
                    </g>
                </g>
            </g>
        </g>
    </g>
</svg>