<?xml version="1.0" encoding="UTF-8"?>
<svg width="49px" height="55px" viewBox="0 0 49 55" version="1.1" xmlns="http://www.w3.org/2000/svg" xmlns:xlink="http://www.w3.org/1999/xlink">
    <!-- Generator: Sketch 46.2 (44496) - http://www.bohemiancoding.com/sketch -->
    <title>Icon</title>
    <desc>Created with Sketch.</desc>
    <defs>
        <path d="M24.7084355,0.578472818 L43.0165645,11.2747912 C44.336739,12.0460883 45.15,13.4715041 45.15,15.0140983 L45.15,36.4067351 C45.15,37.9493292 44.336739,39.374745 43.0165645,40.1460421 L24.7084355,50.8423605 C23.388261,51.6136576 21.761739,51.6136576 20.4415645,50.8423605 L2.13343551,40.1460421 C0.813261021,39.374745 2.20494124e-14,37.9493292 2.20494124e-14,36.4067351 L0,15.0140983 C0,13.4715041 0.813261021,12.0460883 2.13343551,11.2747912 L20.4415645,0.578472818 C21.761739,-0.192824273 23.388261,-0.192824273 24.7084355,0.578472818 Z" id="path-1"></path>
        <rect id="path-2" x="11" y="16" width="5" height="19"></rect>
        <rect id="path-3" x="31" y="16" width="5" height="19"></rect>
        <ellipse id="path-4" cx="2.5" cy="4.5" rx="2.5" ry="4.5"></ellipse>
        <ellipse id="path-5" cx="2.5" cy="4.5" rx="2.5" ry="4.5"></ellipse>
    </defs>
    <g id="Design-draft-2" stroke="none" stroke-width="1" fill="none" fill-rule="evenodd">
        <g id="Leaftech-Web-Design" transform="translate(-331.000000, -760.000000)">
            <g id="Block-2" transform="translate(98.000000, 638.000000)">
                <g id="Icons" transform="translate(0.000000, 83.000000)">
                    <g id="Surrounding--building-structures" transform="translate(0.000000, 41.000000)">
                        <g id="Icon" transform="translate(235.000000, 0.000000)">
                            <g id="Mask-Copy-10" stroke-linecap="round" stroke-linejoin="round">
                                <use fill="#FFFFFF" fill-rule="evenodd" xlink:href="#path-1"></use>
                                <path stroke="#5093DC" stroke-width="1.5" d="M25.0867762,-0.06910602 L43.3949051,10.6272124 C44.9458762,11.5333498 45.9,13.205658 45.9,15.0140983 L45.9,36.4067351 C45.9,38.2151753 44.9458762,39.8874836 43.3949051,40.793621 L25.0867762,51.4899394 C23.532859,52.397798 21.617141,52.397798 20.0632238,51.4899394 L1.75509486,40.793621 C0.20412377,39.8874836 -0.75,38.2151753 -0.75,36.4067351 L-0.75,15.0140983 C-0.75,13.205658 0.20412377,11.5333498 1.75509486,10.6272124 L20.0632238,-0.06910602 C21.617141,-0.97696466 23.532859,-0.97696466 25.0867762,-0.06910602 Z"></path>
                            </g>
                            <g id="Rectangle-16-Copy-3" stroke-linecap="round" stroke-linejoin="round">
                                <use fill="#FFFFFF" fill-rule="evenodd" xlink:href="#path-2"></use>
                                <rect stroke="#4A8EDA" stroke-width="1" x="10.5" y="15.5" width="6" height="20"></rect>
                            </g>
                            <g id="Rectangle-16-Copy-4" stroke-linecap="round" stroke-linejoin="round">
                                <use fill="#FFFFFF" fill-rule="evenodd" xlink:href="#path-3"></use>
                                <rect stroke="#4A8EDA" stroke-width="1" x="30.5" y="15.5" width="6" height="20"></rect>
                            </g>
                            <rect id="Rectangle-15-Copy-12" stroke="#4A8EDA" stroke-linecap="round" stroke-linejoin="round" x="30.5" y="18.5" width="3" height="3"></rect>
                            <rect id="Rectangle-15-Copy-13" stroke="#4A8EDA" stroke-linecap="round" stroke-linejoin="round" x="13.5" y="18.5" width="3" height="3"></rect>
                            <rect id="Rectangle-15-Copy-14" stroke="#4A8EDA" stroke-linecap="round" stroke-linejoin="round" x="30.5" y="23.5" width="3" height="3"></rect>
                            <rect id="Rectangle-15-Copy-15" stroke="#4A8EDA" stroke-linecap="round" stroke-linejoin="round" x="13.5" y="23.5" width="3" height="3"></rect>
                            <rect id="Rectangle-15-Copy-16" stroke="#4A8EDA" stroke-linecap="round" stroke-linejoin="round" x="30.5" y="28.5" width="3" height="3"></rect>
                            <rect id="Rectangle-15-Copy-17" stroke="#4A8EDA" stroke-linecap="round" stroke-linejoin="round" x="13.5" y="28.5" width="3" height="3"></rect>
                            <rect id="Rectangle-17-Copy-2" fill="#4A8EDA" x="8" y="35" width="32" height="1" rx="0.5"></rect>
                            <rect id="Rectangle-18-Copy" stroke="#4A8EDA" stroke-linecap="round" stroke-linejoin="round" x="16.5" y="12.5" width="14" height="23"></rect>
                            <g id="Tree---L" transform="translate(8.000000, 23.000000)">
                                <g id="Oval-5" stroke-linecap="round" stroke-linejoin="round">
                                    <use fill="#FFFFFF" fill-rule="evenodd" xlink:href="#path-4"></use>
                                    <ellipse stroke="#4A8EDA" stroke-width="1" cx="2.5" cy="4.5" rx="3" ry="5"></ellipse>
                                </g>
                                <rect id="Rectangle-19" fill="#4A8EDA" x="2" y="5" width="1" height="8" rx="0.5"></rect>
                            </g>
                            <g id="Tree---L-Copy" transform="translate(34.000000, 23.000000)">
                                <g id="Oval-5" stroke-linecap="round" stroke-linejoin="round">
                                    <use fill="#FFFFFF" fill-rule="evenodd" xlink:href="#path-5"></use>
                                    <ellipse stroke="#4A8EDA" stroke-width="1" cx="2.5" cy="4.5" rx="3" ry="5"></ellipse>
                                </g>
                                <rect id="Rectangle-19" fill="#4A8EDA" x="2" y="5" width="1" height="8" rx="0.5"></rect>
                            </g>
                        </g>
                    </g>
                </g>
            </g>
        </g>
    </g>
</svg>