<?xml version="1.0" encoding="UTF-8"?>
<svg width="49px" height="55px" viewBox="0 0 49 55" version="1.1" xmlns="http://www.w3.org/2000/svg" xmlns:xlink="http://www.w3.org/1999/xlink">
    <!-- Generator: Sketch 46.2 (44496) - http://www.bohemiancoding.com/sketch -->
    <title>Icon</title>
    <desc>Created with Sketch.</desc>
    <defs>
        <path d="M24.7084355,0.578472818 L43.0165645,11.2747912 C44.336739,12.0460883 45.15,13.4715041 45.15,15.0140983 L45.15,36.4067351 C45.15,37.9493292 44.336739,39.374745 43.0165645,40.1460421 L24.7084355,50.8423605 C23.388261,51.6136576 21.761739,51.6136576 20.4415645,50.8423605 L2.13343551,40.1460421 C0.813261021,39.374745 2.20494124e-14,37.9493292 2.20494124e-14,36.4067351 L0,15.0140983 C0,13.4715041 0.813261021,12.0460883 2.13343551,11.2747912 L20.4415645,0.578472818 C21.761739,-0.192824273 23.388261,-0.192824273 24.7084355,0.578472818 Z" id="path-1"></path>
    </defs>
    <g id="Design-draft-2" stroke="none" stroke-width="1" fill="none" fill-rule="evenodd">
        <g id="Leaftech-Web-Design" transform="translate(-631.000000, -760.000000)">
            <g id="Block-2" transform="translate(98.000000, 638.000000)">
                <g id="Icons" transform="translate(0.000000, 83.000000)">
                    <g id="Window-design-and-materials" transform="translate(535.000000, 41.000000)">
                        <g id="Icon">
                            <g id="Mask-Copy-22" stroke-linecap="round" stroke-linejoin="round">
                                <use fill="#FFFFFF" fill-rule="evenodd" xlink:href="#path-1"></use>
                                <path stroke="#5093DC" stroke-width="1.5" d="M25.0867762,-0.06910602 L43.3949051,10.6272124 C44.9458762,11.5333498 45.9,13.205658 45.9,15.0140983 L45.9,36.4067351 C45.9,38.2151753 44.9458762,39.8874836 43.3949051,40.793621 L25.0867762,51.4899394 C23.532859,52.397798 21.617141,52.397798 20.0632238,51.4899394 L1.75509486,40.793621 C0.20412377,39.8874836 -0.75,38.2151753 -0.75,36.4067351 L-0.75,15.0140983 C-0.75,13.205658 0.20412377,11.5333498 1.75509486,10.6272124 L20.0632238,-0.06910602 C21.617141,-0.97696466 23.532859,-0.97696466 25.0867762,-0.06910602 Z"></path>
                            </g>
                            <g id="Group-19" transform="translate(11.950000, 12.747237)" stroke="#4A8EDA" stroke-width="0.5" fill="#4A8EDA" fill-rule="nonzero">
                                <path d="M20.5898812,0.0127906977 L0.460118753,0.0127906977 C0.19172192,0.0127906977 0.0127906977,0.186325581 0.0127906977,0.446627907 L0.0127906977,25.609186 C0.0127906977,25.8694884 0.19172192,26.0430233 0.460118753,26.0430233 L20.5898812,26.0430233 C20.8582781,26.0430233 21.0372093,25.8694884 21.0372093,25.609186 L21.0372093,0.446627907 C21.0372093,0.186325581 20.8582781,0.0127906977 20.5898812,0.0127906977 Z M20.1425532,25.1753488 L0.907446809,25.1753488 L0.907446809,0.880465116 L20.1425532,0.880465116 L20.1425532,25.1753488 Z M3.36775111,23.1796977 L17.6822489,23.1796977 C17.9506457,23.1796977 18.1295769,23.0061628 18.1295769,22.7458605 L18.1295769,3.30995349 C18.1295769,3.04965116 17.9506457,2.87611628 17.6822489,2.87611628 L3.36775111,2.87611628 C3.09935428,2.87611628 2.92042306,3.04965116 2.92042306,3.30995349 L2.92042306,22.7892442 C2.92042306,23.0061628 3.14408709,23.1796977 3.36775111,23.1796977 Z M10.9723281,3.7437907 L17.2349208,3.7437907 L17.2349208,12.5940698 L10.9723281,12.5940698 L10.9723281,3.7437907 Z M10.9723281,13.4617442 L17.2349208,13.4617442 L17.2349208,22.3120233 L10.9723281,22.3120233 L10.9723281,13.4617442 Z M3.81507917,3.7437907 L10.0776719,3.7437907 L10.0776719,12.5940698 L3.81507917,12.5940698 L3.81507917,3.7437907 Z M3.81507917,13.4617442 L10.0776719,13.4617442 L10.0776719,22.3120233 L3.81507917,22.3120233 L3.81507917,13.4617442 Z" id="Shape"></path>
                            </g>
                        </g>
                    </g>
                </g>
            </g>
        </g>
    </g>
</svg>