<?xml version="1.0" encoding="UTF-8" standalone="no"?><!DOCTYPE svg PUBLIC "-//W3C//DTD SVG 1.1//EN" "http://www.w3.org/Graphics/SVG/1.1/DTD/svg11.dtd"><svg width="100%" height="100%" viewBox="0 0 212 176" version="1.1" xmlns="http://www.w3.org/2000/svg" xmlns:xlink="http://www.w3.org/1999/xlink" xml:space="preserve" xmlns:serif="http://www.serif.com/" style="fill-rule:evenodd;clip-rule:evenodd;"><g id="Visual---Physical-sensor-data-"><rect id="Rectangle-15" x="94.531" y="31.526" width="58.938" height="114.474" style="fill:#ededed;"/><path id="Shape-Copy" d="M154.675,144.879c0.031,-0.054 0.061,-0.107 0.09,-0.163c0.029,-0.061 0.057,-0.121 0.082,-0.185c0.03,-0.071 0.05,-0.147 0.072,-0.225c0.012,-0.053 0.03,-0.104 0.041,-0.157c0.026,-0.135 0.04,-0.273 0.04,-0.414l0,-111.473c0,-0.135 -0.016,-0.266 -0.037,-0.397c-0.009,-0.039 -0.017,-0.078 -0.027,-0.118c-0.026,-0.101 -0.056,-0.2 -0.093,-0.294c-0.021,-0.056 -0.047,-0.111 -0.077,-0.166c-0.033,-0.072 -0.07,-0.14 -0.113,-0.208c-0.033,-0.055 -0.071,-0.107 -0.111,-0.159c-0.032,-0.044 -0.07,-0.084 -0.106,-0.125c-0.088,-0.103 -0.188,-0.197 -0.295,-0.283c-0.024,-0.02 -0.046,-0.041 -0.072,-0.059c-0.068,-0.051 -0.139,-0.094 -0.214,-0.136c-0.011,-0.008 -0.021,-0.016 -0.032,-0.023l-0.524,-0.288l-0.035,0.069c-0.179,-0.044 -0.363,-0.075 -0.558,-0.075l-57.411,0c-0.193,0 -0.378,0.03 -0.558,0.075l-0.036,-0.069l-0.521,0.288c-0.014,0.007 -0.024,0.015 -0.035,0.023c-0.075,0.042 -0.146,0.087 -0.213,0.136c-0.026,0.018 -0.047,0.039 -0.073,0.059c-0.105,0.086 -0.205,0.179 -0.297,0.283c-0.035,0.041 -0.071,0.081 -0.104,0.125c-0.038,0.052 -0.075,0.104 -0.11,0.159c-0.041,0.068 -0.08,0.138 -0.115,0.208c-0.026,0.055 -0.052,0.11 -0.075,0.166c-0.037,0.096 -0.068,0.194 -0.092,0.294c-0.009,0.04 -0.017,0.079 -0.026,0.118c-0.023,0.13 -0.04,0.262 -0.04,0.397l0,111.473c0,0.141 0.019,0.279 0.043,0.414c0.01,0.053 0.027,0.104 0.041,0.157c0.02,0.076 0.04,0.152 0.07,0.225c0.026,0.064 0.053,0.124 0.083,0.185c0.027,0.056 0.056,0.109 0.088,0.163c0.04,0.065 0.082,0.129 0.127,0.19c0.029,0.038 0.06,0.073 0.09,0.109c0.284,0.335 0.663,0.586 1.098,0.715c0.017,0.006 0.033,0.013 0.047,0.018l0.081,0.023c0.029,0.006 0.052,0.017 0.082,0.021l0.11,0.031l0.024,-0.017c0.101,0.014 0.207,0.031 0.315,0.031l57.41,0c0.109,0 0.211,-0.017 0.317,-0.031l0.023,0.017l0.111,-0.031c0.027,-0.004 0.052,-0.015 0.08,-0.021l0.08,-0.023c0.017,-0.005 0.032,-0.012 0.049,-0.018c0.436,-0.129 0.81,-0.38 1.097,-0.715c0.03,-0.036 0.063,-0.07 0.09,-0.109c0.04,-0.061 0.079,-0.125 0.119,-0.19Zm-0.86,-0.872c-0.004,0.019 -0.012,0.036 -0.017,0.056c-0.024,0.074 -0.054,0.146 -0.093,0.214c-0.005,0.01 -0.008,0.019 -0.014,0.029c-0.098,0.162 -0.238,0.3 -0.407,0.398c-0.388,-0.45 -0.676,-1.235 -0.676,-1.723l0,-98.88c0,-0.959 0.532,-9.238 1.182,-12.193c0.001,0.007 0.003,0.012 0.005,0.018c0.035,0.108 0.057,0.221 0.057,0.337l0,111.472c0,0.094 -0.015,0.184 -0.037,0.272Zm-1.111,-112.876c0.034,0 0.069,0.007 0.104,0.01c-0.825,2.958 -1.349,12.514 -1.349,12.959l0,98.88c0,0.547 0.208,1.271 0.558,1.886l-56.037,0c0.35,-0.615 0.558,-1.339 0.558,-1.886l0,-98.879c0,-0.444 -0.522,-10.002 -1.349,-12.959c0.035,-0.003 0.07,-0.01 0.106,-0.01l57.409,0l0,-0.001Zm-58.411,113.146c-0.038,-0.068 -0.068,-0.141 -0.09,-0.214c-0.006,-0.018 -0.014,-0.037 -0.018,-0.056c-0.025,-0.089 -0.037,-0.179 -0.037,-0.272l0,-111.473c0,-0.117 0.022,-0.229 0.058,-0.338c0.001,-0.005 0.004,-0.011 0.006,-0.018c0.646,2.956 1.18,11.235 1.18,12.194l0,98.88c0,0.488 -0.287,1.273 -0.675,1.723c-0.17,-0.097 -0.31,-0.235 -0.407,-0.398c-0.007,-0.007 -0.013,-0.018 -0.017,-0.028Z" style="fill:#aeaeae;fill-rule:nonzero;"/><path id="path-6" d="M124.765,136.079c21.05,0 21.05,-0.753 21.05,-0.753l0,-89.3l-42.099,0l0,89.298c0,0.002 0,0.755 21.049,0.755Z" style="fill:#75afef;"/><circle id="Oval-8-Copy" cx="124" cy="88" r="82.5" style="fill:none;stroke:#fff;stroke-width:1px;"/><path id="Rectangle-6" d="M43.368,129.171l5.032,7.461l-41.037,27.681c-2.06,1.389 -4.857,0.846 -6.247,-1.215c-1.39,-2.06 -0.846,-4.857 1.214,-6.247l41.038,-27.68Z" style="fill:#fff;"/><circle cx="124" cy="88" r="82.5" style="fill:none;stroke:#fff;stroke-width:1px;"/><circle cx="124" cy="88" r="82.75" style="fill:none;stroke:#fff;stroke-width:1.5px;"/></g><path d="M53.163,45.228c7.25,-2.102 14.913,-3.228 22.837,-3.228c45.257,0 82,36.743 82,82c0,16.19 -4.702,31.29 -12.814,44.008c-6.763,1.789 -13.864,2.742 -21.186,2.742c-45.671,0 -82.75,-37.079 -82.75,-82.75c0,-15.648 4.353,-30.287 11.913,-42.772Z" style="fill-opacity:0.5;"/></svg>