<?xml version="1.0" encoding="UTF-8" standalone="no"?><!DOCTYPE svg PUBLIC "-//W3C//DTD SVG 1.1//EN" "http://www.w3.org/Graphics/SVG/1.1/DTD/svg11.dtd"><svg width="100%" height="100%" viewBox="0 0 1240 1000" version="1.1" xmlns="http://www.w3.org/2000/svg" xmlns:xlink="http://www.w3.org/1999/xlink" xml:space="preserve" style="fill-rule:evenodd;clip-rule:evenodd;stroke-linejoin:round;stroke-miterlimit:1.41421;"><path id="Fill.-2" d="M867.953,319.473c-0.008,-0.015 -0.021,-0.023 -0.031,-0.038c-0.019,-0.027 -0.038,-0.052 -0.061,-0.079c-0.025,-0.027 -0.05,-0.054 -0.079,-0.077c-0.025,-0.023 -0.05,-0.043 -0.079,-0.062c-0.012,-0.008 -0.021,-0.023 -0.035,-0.031c-0.015,-0.007 -0.032,-0.007 -0.044,-0.015c-0.031,-0.014 -0.062,-0.027 -0.096,-0.037c-0.033,-0.013 -0.068,-0.021 -0.104,-0.029c-0.033,-0.007 -0.064,-0.013 -0.1,-0.015c-0.016,0 -0.031,-0.008 -0.046,-0.008l-20.334,0l10.163,-17.598c0.009,-0.015 0.009,-0.031 0.017,-0.046c0.014,-0.031 0.027,-0.062 0.037,-0.093c0.013,-0.036 0.023,-0.069 0.029,-0.104c0.007,-0.036 0.011,-0.067 0.013,-0.102c0.002,-0.015 0.01,-0.029 0.01,-0.046c0,-0.017 -0.008,-0.031 -0.01,-0.046c-0.002,-0.035 -0.006,-0.067 -0.013,-0.102c-0.006,-0.035 -0.016,-0.069 -0.029,-0.104c-0.01,-0.033 -0.023,-0.062 -0.037,-0.094c-0.008,-0.014 -0.008,-0.031 -0.017,-0.043l-108.385,-187.698c-0.008,-0.012 -0.023,-0.021 -0.029,-0.035c-0.021,-0.027 -0.04,-0.054 -0.065,-0.079c-0.022,-0.03 -0.047,-0.054 -0.077,-0.077c-0.024,-0.023 -0.049,-0.044 -0.079,-0.063c-0.012,-0.008 -0.02,-0.023 -0.035,-0.031c-0.015,-0.008 -0.031,-0.008 -0.044,-0.015c-0.031,-0.014 -0.062,-0.027 -0.095,-0.039c-0.034,-0.013 -0.069,-0.021 -0.104,-0.027c-0.034,-0.006 -0.065,-0.013 -0.1,-0.015c-0.017,0 -0.032,-0.008 -0.048,-0.008l-172.968,0l-64.811,-112.226c-0.008,-0.014 -0.023,-0.023 -0.033,-0.035c-0.017,-0.029 -0.038,-0.056 -0.063,-0.083c-0.025,-0.027 -0.048,-0.05 -0.075,-0.073c-0.027,-0.023 -0.052,-0.046 -0.079,-0.063c-0.014,-0.01 -0.023,-0.023 -0.037,-0.031c-0.015,-0.008 -0.029,-0.008 -0.044,-0.017c-0.031,-0.014 -0.062,-0.027 -0.096,-0.037c-0.035,-0.012 -0.066,-0.021 -0.104,-0.027c-0.033,-0.008 -0.064,-0.013 -0.1,-0.015c-0.016,-0.002 -0.029,-0.01 -0.045,-0.01l-303.492,0c-0.014,0 -0.029,0.008 -0.045,0.01c-0.036,0.002 -0.067,0.007 -0.1,0.013c-0.036,0.006 -0.071,0.017 -0.106,0.029c-0.032,0.01 -0.063,0.023 -0.094,0.037c-0.015,0.009 -0.029,0.009 -0.044,0.017c-0.014,0.008 -0.021,0.021 -0.035,0.029c-0.029,0.019 -0.056,0.042 -0.083,0.065c-0.025,0.023 -0.05,0.048 -0.073,0.075c-0.025,0.025 -0.044,0.052 -0.063,0.079c-0.01,0.014 -0.025,0.023 -0.033,0.037l-97.315,168.535l-108.108,0l0,1.561l107.207,0l-64.135,111.054l-20.779,0l-22.293,-38.608l0,3.126l20.488,35.482l-20.488,0l0,1.561l20.49,0l-9.938,17.211l-10.552,0l0,1.56l9.651,0l-9.651,16.713l0,3.126l11.455,-19.839l19.879,0l-31.334,54.26l0,3.125l33.138,-57.385l171.609,0l-53.292,92.285l-151.455,0l0,1.561l150.552,0l-9.932,17.204l-140.62,0l0,1.561l139.719,0l-42.452,73.52l-64.129,0l-33.138,-57.385l0,3.125l31.334,54.26l-19.879,0l-11.455,-19.841l0,3.121l9.653,16.72l-9.653,0l0,1.561l10.552,0l9.936,17.208l-20.488,0l0,1.561l21.391,0l9.945,17.208l-31.336,0l0,1.561l32.235,0l9.936,17.204l-42.171,0l0,1.561l43.072,0l32.062,55.533l-21.22,36.762l-53.914,0l0,1.561l53.012,0l-9.94,17.202l-42.454,0l-0.618,-1.069l0,3.123l20.938,36.269l-9.934,17.204l-11.004,-19.058l0,3.125l10.103,17.496l-10.103,17.494l0,3.125l11.455,-19.839l19.879,0l-10.169,17.6l-21.165,36.656l0,3.126l21.841,-37.83l42.005,72.738l-63.846,0l0,1.56l64.747,0l9.936,17.2l-74.683,0l0,1.561l75.584,0l9.94,17.217l-85.524,0l0,1.561l86.425,0l9.941,17.204l-96.366,0l0,1.561l97.267,0l9.94,17.208l-107.207,0l0,1.561l108.108,0l9.934,17.208l-118.042,0l0,1.561l118.941,0l9.939,17.215l-128.262,0l-0.618,-1.072l0,3.125l45.185,78.244l1.804,0l-45.47,-78.737l127.358,0l-45.469,78.737l1.804,0l45.47,-78.737l42.454,0l10.617,18.376c0.008,0.015 0.023,0.021 0.031,0.033c0.021,0.032 0.042,0.059 0.064,0.086c0.025,0.027 0.046,0.05 0.073,0.07c0.027,0.025 0.054,0.046 0.081,0.065c0.015,0.01 0.023,0.023 0.038,0.031c0.014,0.008 0.031,0.008 0.046,0.017c0.031,0.014 0.06,0.025 0.089,0.037c0.038,0.013 0.071,0.023 0.108,0.029c0.036,0.005 0.067,0.011 0.104,0.013c0.015,0 0.025,0.008 0.042,0.008l21.221,0l32.073,55.523l-2.571,4.449l1.807,0l1.665,-2.886l1.667,2.886l1.804,0l-2.568,-4.449l9.934,-17.202l9.932,17.202l-2.566,4.449l1.802,0l1.665,-2.886l1.669,2.886l1.805,0l-2.571,-4.449l32.073,-55.523l20.773,0l34.629,59.972l1.806,0l-34.63,-59.972l83.998,0l-34.628,59.972l1.804,0l34.629,-59.972l19.874,0l-34.628,59.972l1.806,0l34.627,-59.972l19.874,0l-34.627,59.972l1.805,0l34.628,-59.972l84.904,0l-34.626,59.972l1.804,0l34.629,-59.972l64.133,0l34.63,59.972l1.801,0l-34.627,-59.972l19.868,0l34.639,59.972l1.8,0l-34.636,-59.972l105.694,0l-34.635,59.972l1.802,0l34.635,-59.972l42.448,0l34.63,59.972l1.803,0l-34.631,-59.972l19.876,0l32.069,55.523l-2.573,4.449l1.803,0l1.671,-2.888l1.667,2.888l1.803,0l-2.569,-4.449l32.06,-55.523l21.234,0c0.014,0 0.027,-0.008 0.043,-0.008c0.036,-0.002 0.069,-0.008 0.107,-0.013c0.035,-0.008 0.066,-0.016 0.1,-0.029c0.031,-0.01 0.062,-0.023 0.091,-0.037c0.017,-0.009 0.033,-0.009 0.048,-0.017c0.015,-0.008 0.023,-0.023 0.04,-0.033c0.027,-0.019 0.052,-0.038 0.074,-0.06c0.03,-0.023 0.055,-0.048 0.08,-0.077c0.02,-0.025 0.041,-0.05 0.06,-0.082c0.01,-0.012 0.023,-0.018 0.031,-0.033l10.835,-18.767c0.007,-0.015 0.007,-0.029 0.015,-0.044c0.014,-0.031 0.027,-0.062 0.037,-0.093c0.009,-0.023 0.021,-0.042 0.027,-0.065l0.115,0.202l45.692,79.128l1.803,0l-45.468,-78.737l19.872,0l45.472,78.737l1.802,0l-45.474,-78.737l41.551,0l10.619,18.376l10.835,18.769l24.02,41.592l1.805,0l-8.404,-14.549l15.391,-26.652l29.879,0l-23.792,41.201l1.803,0l23.791,-41.201l29.879,0l-23.793,41.201l1.802,0l23.793,-41.201l29.886,0l-23.798,41.201l1.803,0l23.795,-41.201l2.433,0l13.724,23.764l-10.071,17.437l1.802,0l9.17,-15.877l9.17,15.877l1.801,0l-23.794,-41.201l130.32,0l0,-1.56l-131.219,0l-1.44,-2.497l-15.847,-27.432l-3.49,-6.047l41.55,0l10.615,18.376c0.008,0.015 0.023,0.021 0.031,0.035c0.019,0.03 0.04,0.055 0.063,0.08c0.023,0.029 0.048,0.054 0.075,0.074c0.027,0.025 0.052,0.046 0.081,0.065c0.014,0.01 0.023,0.023 0.035,0.031c0.017,0.008 0.031,0.008 0.048,0.017c0.029,0.014 0.058,0.027 0.09,0.037c0.035,0.013 0.068,0.023 0.106,0.029c0.035,0.005 0.068,0.011 0.102,0.013c0.016,0 0.029,0.008 0.045,0.008l99.155,0l0,-1.56l-11.091,0l9.484,-16.424l1.607,2.782l0,-3.122l-0.254,-0.441l0.254,0l0,-1.56l-0.254,0l0.254,-0.442l0,-3.121l-1.607,2.782l-9.484,-16.434l11.091,0l0,-1.561l-98.705,0l-9.938,-17.208l108.643,0l0,-1.561l-109.544,0l-9.934,-17.208l119.478,0l0,-1.561l-120.382,0l-9.938,-17.204l130.32,0l0,-1.561l-131.219,0l-0.322,-0.56l9.623,-16.657l121.918,0l0,-1.561l-121.016,0l9.932,-17.2l111.084,0l0,-1.56l-88.507,0l10.165,-17.606c0.009,-0.015 0.009,-0.032 0.015,-0.046c0.014,-0.031 0.027,-0.06 0.039,-0.096c0.013,-0.033 0.021,-0.066 0.028,-0.104c0.006,-0.031 0.012,-0.064 0.014,-0.098c0,-0.016 0.008,-0.031 0.008,-0.047c0,-0.017 -0.008,-0.03 -0.008,-0.046c-0.002,-0.036 -0.008,-0.069 -0.014,-0.102c-0.009,-0.036 -0.015,-0.067 -0.028,-0.102c-0.012,-0.033 -0.025,-0.065 -0.039,-0.096c-0.006,-0.014 -0.006,-0.031 -0.015,-0.044l-10.841,-18.765l-10.163,-17.599l99.346,0l0,-1.561l-11.091,0l9.936,-17.208l1.155,0l0,-1.561l-0.254,0l0.254,-0.439l0,-3.121l-2.056,3.56l-19.872,0l9.936,-17.209l11.992,0l0,-1.56l-11.091,0l9.936,-17.207l1.155,0l0,-1.56l-0.254,0l0.254,-0.443l0,-3.122l-2.056,3.565l-19.872,0l9.936,-17.213l11.992,0l0,-1.561l-11.091,0l9.936,-17.208l1.155,0l0,-1.561l-0.254,0l0.254,-0.441l0,-3.121l-2.056,3.562l-19.872,0l9.936,-17.202l11.992,0l0,-1.561l-250.45,0l-43.673,-75.64l9.615,-16.655l284.508,0l0,-1.561l-283.606,0l9.94,-17.204l273.666,0l0,-1.561l-272.765,0l9.932,-17.208l262.833,0l0,-1.561l-262.833,0l-9.932,-17.208l272.765,0l0,-1.561l-273.666,0l-97.319,-168.531Zm-725.526,-206.856l63.672,-110.274l63.684,110.274l-127.356,0Zm129.16,0l-64.133,-111.056l300.782,0l-64.129,111.056l-172.52,0Zm174.325,0l63.679,-110.274l63.681,110.274l-127.36,0Zm409.168,827.411l-31.159,53.963l-31.167,-53.963l62.326,0Zm-563.614,0l-31.172,53.96l-9.93,-17.202l21.223,-36.758l19.879,0Zm-21.683,0l-20.322,35.195l-20.324,-35.195l40.646,0Zm-42.45,0l21.227,36.758l-9.936,17.202l-31.17,-53.96l19.879,0Zm-41.549,-1.56l9.482,-16.422l9.483,16.422l-18.965,0Zm108.387,0l9.48,-16.422l9.489,16.422l-18.969,0Zm130.062,0l9.488,-16.422l9.483,16.422l-18.971,0Zm433.553,0l9.492,-16.424l9.485,16.424l-18.977,0Zm29.81,-17.205l-9.48,16.424l-9.487,-16.424l18.967,0Zm-21.67,0l-9.945,17.205l-64.128,0l-9.941,-17.205l84.014,0Zm-85.818,0l9.942,17.205l-19.876,0l-9.94,-17.205l19.874,0Zm-21.679,0l9.943,17.205l-40.646,0l9.932,-17.205l20.771,0Zm-22.573,0l-9.932,17.205l-107.497,0l-9.934,-17.205l127.363,0Zm-129.165,0l9.936,17.205l-19.872,0l-9.944,-17.205l19.88,0Zm-21.681,0l9.943,17.205l-62.333,0l9.944,-17.205l42.446,0Zm-44.248,0l-9.942,17.205l-84.908,0l9.934,-17.205l84.916,0Zm-86.721,0l-9.482,16.422l-9.485,-16.422l18.967,0Zm-21.674,0l-9.939,17.205l-19.876,0l9.942,-17.205l19.873,0Zm-21.673,0l-9.942,17.205l-85.807,0l-9.939,-17.205l105.688,0Zm-108.393,0l-9.932,17.205l-19.881,0l9.943,-17.205l19.87,0Zm-21.671,0l-9.492,16.424l-9.489,-16.424l18.981,0Zm-20.785,0l9.938,17.205l-41.549,0l-9.938,-17.205l41.549,0Zm-43.354,0l9.938,17.205l-19.878,0l-9.932,-17.205l19.872,0Zm-22.577,0l-9.485,16.422l-9.486,-16.422l18.971,0Zm813.618,37.536l-14.49,25.091l-14.49,-25.091l28.98,0Zm228.449,-37.536l-9.487,16.424l-9.484,-16.424l18.971,0Zm-20.774,0l9.936,17.205l-84.009,0l9.938,-17.205l64.135,0Zm-65.937,0l-9.487,16.424l-9.488,-16.424l18.975,0Zm-182.004,17.985l9.934,-17.204l9.938,17.204l-9.938,17.21l-9.934,-17.21Zm138.651,17.991l-0.631,0l0.316,-0.547l0.315,0.547Zm-1.216,-2.108l-1.217,2.108l-29.885,0l16.157,-27.979l14.945,25.871Zm-19.56,-33.868l3.713,6.436l-17.058,29.54l-29.879,0l20.774,-35.976l22.45,0Zm-24.251,0l-20.775,35.976l-29.879,0l20.771,-35.976l29.883,0Zm-31.685,0l-20.772,35.976l-29.881,0l20.776,-35.976l29.877,0Zm-31.677,0l-9.489,16.424l-9.487,-16.424l18.976,0Zm-21.679,0l-9.485,16.424l-9.492,-16.424l18.977,0Zm-800.906,-1.56l9.486,-16.433l9.487,16.433l-18.973,0Zm21.676,0l9.48,-16.433l9.489,16.433l-18.969,0Zm65.03,0l9.486,-16.433l9.493,16.433l-18.979,0Zm21.685,0l9.484,-16.433l9.483,16.433l-18.967,0Zm130.064,0l9.482,-16.433l9.487,16.433l-18.969,0Zm21.674,0l9.487,-16.433l9.484,16.433l-18.971,0Zm303.487,0l9.487,-16.435l9.482,16.435l-18.969,0Zm130.07,0l9.487,-16.435l9.48,16.435l-18.967,0Zm23.217,0l9.482,-16.435l9.489,16.435l-18.971,0Zm65.026,0l9.492,-16.435l9.485,16.435l-18.977,0Zm21.68,0l9.487,-16.435l9.489,16.435l-18.976,0Zm257.429,0l-18.971,0l9.484,-16.435l9.487,16.435Zm-10.838,-17.215l-9.936,17.215l-64.135,0l-9.938,-17.215l84.009,0Zm-85.811,0l9.938,17.215l-19.876,0l-9.934,-17.215l19.872,0Zm-21.675,0l9.934,17.215l-41.551,0l-9.936,-17.215l41.553,0Zm-43.355,0l9.938,17.215l-20.648,0l9.942,-17.215l0.768,0Zm-2.57,0l-9.941,17.215l-29.883,0l9.945,-17.215l29.879,0Zm-31.682,0l-9.944,17.215l-29.875,0l9.94,-17.215l29.879,0Zm-31.681,0l-9.491,16.434l-9.486,-16.434l18.977,0Zm-21.681,0l-9.488,16.434l-9.485,-16.434l18.973,0Zm-21.674,0l-9.495,16.434l-9.483,-16.434l18.978,0Zm-20.78,0l9.934,17.215l-41.551,0l-9.938,-17.215l41.555,0Zm-44.256,0l-9.483,16.434l-9.495,-16.434l18.978,0Zm-23.215,0l-9.485,16.434l-9.494,-16.434l18.979,0Zm-20.782,0l9.945,17.215l-84.917,0l-9.934,-17.215l84.906,0Zm-86.708,0l9.934,17.215l-19.877,0l-9.931,-17.215l19.874,0Zm-22.578,0l-9.489,16.434l-9.48,-16.434l18.969,0Zm-20.771,0l9.932,17.215l-128.262,0l-9.938,-17.215l128.268,0Zm-130.07,0l9.936,17.215l-19.879,0l-9.934,-17.215l19.877,0Zm-21.679,0l9.932,17.215l-41.543,0l-9.942,-17.215l41.553,0Zm-43.357,0l9.942,17.215l-84.013,0l9.938,-17.215l64.133,0Zm-65.938,0l-9.484,16.432l-9.487,-16.432l18.971,0Zm-21.674,0l-9.485,16.432l-9.488,-16.432l18.973,0Zm-21.679,0l-9.932,17.215l-106.589,0l9.939,-17.215l106.582,0Zm-108.387,0l-9.489,16.432l-9.48,-16.432l18.969,0Zm-21.672,0l-9.487,16.432l-9.491,-16.432l18.978,0Zm-21.685,0l-9.938,17.215l-42.452,0l-9.939,-17.215l62.329,0Zm-65.034,0l-9.483,16.432l-9.484,-16.432l18.967,0Zm-21.673,0l-9.94,17.215l-41.551,0l9.938,-17.215l41.553,0Zm-43.357,0l-9.489,16.432l-9.484,-16.432l18.973,0Zm306.193,-1.561l9.484,-16.426l9.482,16.426l-18.966,0Zm108.387,0l9.482,-16.426l9.491,16.426l-18.973,0Zm195.1,0l9.482,-16.428l9.491,16.428l-18.973,0Zm131.604,0l9.492,-16.428l9.483,16.428l-18.975,0Zm65.033,0l9.483,-16.428l9.493,16.428l-18.976,0Zm21.679,0l9.485,-16.428l9.488,16.428l-18.973,0Zm21.677,0l9.486,-16.428l9.491,16.428l-18.977,0Zm139.1,-17.208l9.939,17.208l-19.875,0l-9.938,-17.208l19.874,0Zm-21.676,0l9.94,17.208l-41.553,0l-0.322,-0.553l9.619,-16.655l22.316,0Zm-24.118,0l-8.716,15.094l-8.719,-15.094l17.435,0Zm-20.78,0l9.936,17.208l-29.1,0l9.932,-17.208l9.232,0Zm-11.035,0l-9.932,17.208l-29.878,0l9.931,-17.208l29.879,0Zm-31.681,0l-9.48,16.428l-9.491,-16.428l18.971,0Zm-21.674,0l-9.489,16.428l-9.487,-16.428l18.976,0Zm-21.679,0l-9.485,16.428l-9.492,-16.428l18.977,0Zm-21.681,0l-9.484,16.428l-9.483,-16.428l18.967,0Zm-20.767,0l9.932,17.208l-41.555,0l-9.932,-17.208l41.555,0Zm-45.805,0l-9.48,16.428l-9.487,-16.428l18.967,0Zm-20.769,0l9.936,17.208l-19.881,0l-9.938,-17.208l19.883,0Zm-21.685,0l9.938,17.208l-84.906,0l-9.942,-17.208l84.91,0Zm-87.614,0l-9.482,16.428l-9.487,-16.428l18.969,0Zm-20.771,0l9.938,17.208l-19.87,0l-9.944,-17.208l19.876,0Zm-21.679,0l9.945,17.208l-128.268,0l-9.944,-17.208l128.267,0Zm-130.07,0l9.942,17.208l-19.874,0l-9.944,-17.208l19.876,0Zm-22.58,0l-9.48,16.426l-9.482,-16.426l18.962,0Zm-20.765,0l9.932,17.208l-19.874,0l-9.936,-17.208l19.878,0Zm-21.683,0l9.934,17.208l-62.33,0l9.944,-17.208l42.452,0Zm-44.256,0l-9.491,16.426l-9.484,-16.426l18.975,0Zm-21.683,0l-9.934,17.208l-19.874,0l9.938,-17.208l19.87,0Zm-21.674,0l-9.487,16.426l-9.482,-16.426l18.969,0Zm-20.772,0l9.932,17.208l-105.679,0l9.934,-17.208l85.813,0Zm-87.618,0l-9.934,17.208l-19.872,0l9.932,-17.208l19.874,0Zm-21.676,0l-9.483,16.426l-9.482,-16.426l18.965,0Zm-20.769,0l9.934,17.208l-149.041,0l9.931,-17.208l129.176,0Zm-130.978,0l-9.482,16.426l-9.487,-16.426l18.969,0Zm-20.775,0l9.94,17.208l-19.874,0l-9.932,-17.208l19.866,0Zm229.42,-57.873l9.488,-16.419l9.485,16.419l-18.973,0Zm108.385,0l9.493,-16.421l9.488,16.421l-18.981,0Zm43.357,0l9.489,-16.419l9.484,16.419l-18.973,0Zm216.785,0l9.48,-16.419l9.489,16.419l-18.969,0Zm-640.397,18.778l-9.938,-17.217l19.876,0l9.94,17.217l-19.878,0Zm21.683,0l-9.939,-17.217l84.003,0l-9.94,17.217l-64.124,0Zm65.931,0l9.938,-17.217l84.902,0l-9.938,17.217l-84.902,0Zm86.706,0l9.938,-17.217l63.23,0l-9.936,17.217l-63.232,0Zm65.034,0l9.936,-17.217l19.876,0l-9.932,17.217l-19.88,0Zm21.683,0l9.932,-17.217l20.777,0l9.938,17.217l-40.647,0Zm42.452,0l-9.938,-17.217l84,0l-9.936,17.217l-64.126,0Zm65.929,0l9.938,-17.217l20.784,0l9.932,17.217l-40.654,0Zm32.524,-17.217l18.967,0l-9.485,16.435l-9.482,-16.435Zm10.833,17.217l9.487,-16.434l9.486,16.434l-18.973,0Zm20.78,0l-9.941,-17.217l19.875,0l9.942,17.217l-19.876,0Zm21.68,0l-9.942,-17.217l19.874,0l9.932,17.217l-19.864,0Zm21.669,0l-9.934,-17.217l40.651,0l-9.942,17.217l-20.775,0Zm22.58,0l9.944,-17.217l85.809,0l9.934,17.217l-105.687,0Zm107.488,0l-9.934,-17.217l19.866,0l9.944,17.217l-19.876,0Zm11.734,-17.217l18.988,0l-9.493,16.437l-9.495,-16.437Zm10.846,17.217l9.492,-16.437l9.485,16.437l-18.977,0Zm10.843,-17.217l18.971,0l-9.489,16.437l-9.482,-16.437Zm-629.554,35.982l-9.938,-17.204l19.876,0l9.934,17.204l-19.872,0Zm21.675,0l-9.932,-17.204l62.322,0l-9.936,17.204l-42.454,0Zm44.26,0l9.934,-17.204l85.806,0l9.938,17.204l-105.678,0Zm107.482,0l-9.938,-17.204l62.328,0l-9.934,17.204l-42.456,0Zm44.261,0l9.934,-17.204l19.88,0l-9.942,17.204l-19.872,0Zm21.672,0l9.943,-17.204l42.454,0l9.932,17.204l-62.329,0Zm64.131,0l-9.932,-17.204l62.322,0l-9.934,17.204l-42.456,0Zm44.261,0l9.934,-17.204l41.555,0l-9.932,17.204l-41.557,0Zm43.359,0l9.482,-16.422l9.483,16.422l-18.965,0Zm20.771,0l-9.936,-17.204l19.874,0l9.934,17.204l-19.872,0Zm21.679,0l-9.936,-17.204l19.878,0l9.932,17.204l-19.874,0Zm21.679,0l-9.934,-17.204l19.866,0l9.942,17.204l-19.874,0Zm11.732,-17.204l18.975,0l-9.482,16.424l-9.493,-16.424Zm10.845,17.204l9.934,-17.204l107.488,0l9.932,17.204l-127.354,0Zm129.157,0l-9.932,-17.204l19.876,0l9.945,17.204l-19.889,0Zm11.747,-17.204l18.975,0l-9.483,16.424l-9.492,-16.424Zm-607.869,35.973l-9.939,-17.208l19.868,0l9.936,17.208l-19.865,0Zm21.67,0l-9.934,-17.208l40.652,0l-9.943,17.208l-20.775,0Zm22.576,0l9.942,-17.208l107.488,0l9.942,17.208l-127.372,0Zm129.173,0l-9.943,-17.208l40.652,0l-9.938,17.208l-20.771,0Zm22.575,0l9.939,-17.208l19.87,0l-9.934,17.208l-19.875,0Zm21.679,0l9.934,-17.208l64.133,0l9.942,17.208l-84.009,0Zm85.809,0l-9.942,-17.208l40.652,0l-9.934,17.208l-20.776,0Zm22.58,0l9.936,-17.208l41.555,0l-9.938,17.208l-41.553,0Zm43.358,0l9.938,-17.208l20.769,0l9.938,17.208l-40.645,0Zm42.452,0l-9.941,-17.208l19.877,0l9.942,17.208l-19.878,0Zm21.68,0l-9.944,-17.208l19.876,0l9.932,17.208l-19.864,0Zm11.735,-17.208l18.975,0l-9.491,16.428l-9.484,-16.428Zm10.833,17.208l9.493,-16.428l9.482,16.428l-18.975,0Zm20.779,0l-9.934,-17.208l128.256,0l9.944,17.208l-128.266,0Zm130.068,0l-9.944,-17.208l19.889,0l9.932,17.208l-19.877,0Zm21.679,0l-10.384,-17.989l9.932,-17.204l20.322,35.193l-19.87,0Zm22.574,0l42.01,-72.731l41.999,72.731l-84.009,0Zm130.068,0l21.096,-36.531l0.095,0.164l0,0.002l10.84,18.767l10.169,17.598l-42.2,0Zm65.219,-35.193l9.944,17.204l-9.944,17.209l-9.934,-17.209l9.934,-17.204Zm-21.668,34.413l-9.943,-17.209l9.943,-17.204l9.931,17.204l-9.931,17.209Zm10.833,-18.769l-9.932,-17.205l9.932,-17.217l9.934,17.217l-9.934,17.205Zm0.901,-35.982l9.934,-17.2l9.944,17.2l-9.944,17.217l-9.934,-17.217Zm-11.734,17.217l-9.943,-17.217l9.943,-17.2l9.931,17.2l-9.931,17.217Zm-22.453,-1.34l-9.168,-15.877l9.938,-17.2l9.164,15.868l-9.934,17.209Zm11.609,-14.317l9.942,17.217l-9.942,17.205l-9.938,-17.205l9.938,-17.217Zm12.194,53.971l9.483,-16.428l9.484,16.428l-18.967,0Zm21.671,0l9.492,-16.428l9.485,16.428l-18.977,0Zm21.68,0l9.487,-16.428l9.489,16.428l-18.976,0Zm21.679,0l9.491,-16.428l9.48,16.428l-18.971,0Zm53.356,0l4.487,-7.764l4.165,7.208l-0.321,0.556l-8.331,0Zm64.07,-17.208l9.934,17.208l-19.874,0l-9.934,-17.208l19.874,0Zm-21.676,0l9.934,17.208l-20.513,0l9.938,-17.208l0.641,0Zm-2.444,0l-9.938,17.208l-19.237,0l-0.319,-0.553l9.614,-16.655l19.88,0Zm-21.68,0l-8.715,15.094l-4.391,-7.599l-4.327,-7.495l17.433,0Zm-19.236,0l4.552,7.884l-5.388,9.324l-29.879,0l9.94,-17.208l20.775,0Zm-22.578,0l-9.488,16.428l-9.482,-16.428l18.97,0Zm-21.674,0l-9.491,16.428l-9.486,-16.428l18.977,0Zm-21.231,-0.781l-9.938,17.209l-9.934,-17.209l9.934,-17.204l9.938,17.204Zm2.254,-0.78l9.486,-16.424l9.491,16.424l-18.977,0Zm31.163,-16.424l9.488,16.424l-18.97,0l9.482,-16.424Zm21.674,0l9.491,16.424l-18.973,0l9.482,-16.424Zm64.587,-0.78l9.94,17.204l-19.878,0l-0.321,-0.551l9.618,-16.653l0.641,0Zm-2.441,0l-8.719,15.092l-8.712,-15.092l17.431,0Zm-19.234,0l9.612,16.653l-0.317,0.551l-19.876,0l9.94,-17.204l0.641,0Zm-2.443,0l-9.94,17.204l-19.238,0l-9.938,-17.204l39.116,0Zm-41.819,0l-9.483,16.424l-9.49,-16.424l18.973,0Zm-21.677,0l-9.48,16.424l-9.491,-16.424l18.971,0Zm-21.674,0l-9.489,16.424l-9.487,-16.424l18.976,0Zm-21.23,-0.781l-9.934,17.205l-9.944,-17.205l9.944,-17.217l9.934,17.217Zm2.254,-0.78l9.487,-16.437l9.489,16.437l-18.976,0Zm31.17,-16.437l9.48,16.437l-18.971,0l9.491,-16.437Zm21.674,0l9.483,16.437l-18.973,0l9.49,-16.437Zm83.822,-0.78l-8.723,15.097l-8.712,-15.097l17.435,0Zm-19.237,0l9.613,16.659l-0.32,0.558l-19.234,0l-0.322,-0.56l9.622,-16.657l0.641,0Zm-2.444,0l-8.72,15.097l-8.713,-15.097l17.433,0Zm-19.235,0l9.613,16.657l-0.318,0.56l-40.918,0l-9.932,-17.217l41.555,0Zm-44.259,0l-9.488,16.437l-9.482,-16.437l18.97,0Zm-21.674,0l-9.491,16.437l-9.486,-16.437l18.977,0Zm-21.231,-0.78l-9.938,17.217l-9.934,-17.217l9.934,-17.2l9.938,17.2Zm2.254,-0.781l9.486,-16.419l9.491,16.419l-18.977,0Zm31.163,-16.419l9.488,16.419l-18.97,0l9.482,-16.419Zm105.498,-0.781l-9.934,17.2l-19.239,0l-0.323,-0.553l9.618,-16.647l19.878,0Zm-21.681,0l-8.716,15.088l-8.712,-15.088l17.428,0Zm-19.231,0l9.614,16.649l-0.317,0.551l-19.235,0l-9.94,-17.2l19.878,0Zm-21.68,0l9.94,17.2l-41.555,0l-9.94,-17.2l41.555,0Zm-44.259,0l-9.48,16.42l-9.491,-16.42l18.971,0Zm-21.674,0l-9.489,16.42l-9.487,-16.42l18.976,0Zm-21.679,0l-9.485,16.42l-9.492,-16.42l18.977,0Zm-21.681,0l-9.484,16.42l-9.483,-16.42l18.967,0Zm-23.217,0l-8.718,15.088l-8.715,-15.088l17.433,0Zm-20.134,0l-9.489,16.42l-9.482,-16.42l18.971,0Zm-20.771,0l20.45,35.418l-21.999,38.094l-20.769,0l-42.456,-73.512l64.774,0Zm-66.577,0l42.457,73.512l-19.883,0l-42.45,-73.512l19.876,0Zm-22.579,0l-42.009,72.732l-20.771,-35.974l10.612,-18.386c0.008,-0.015 0.008,-0.031 0.017,-0.046c0.014,-0.029 0.027,-0.06 0.037,-0.096c0.013,-0.033 0.021,-0.066 0.027,-0.101c0.009,-0.034 0.013,-0.067 0.015,-0.1c0.002,-0.017 0.008,-0.032 0.008,-0.048c0,-0.017 -0.006,-0.029 -0.008,-0.046c-0.002,-0.035 -0.006,-0.067 -0.013,-0.1c-0.008,-0.037 -0.016,-0.071 -0.029,-0.106c-0.01,-0.033 -0.023,-0.062 -0.037,-0.094c-0.009,-0.014 -0.009,-0.031 -0.017,-0.043l-10.163,-17.592l62.331,0Zm-65.034,0l-9.483,16.42l-9.492,-16.42l18.975,0Zm-20.778,0l9.945,17.2l-19.889,0l-9.932,-17.2l19.876,0Zm-21.679,0l9.932,17.2l-19.863,0l-9.939,-17.2l19.87,0Zm-21.672,0l9.938,17.2l-84.007,0l9.936,-17.2l64.133,0Zm-65.937,0l-9.936,17.2l-42.454,0l-9.932,-17.2l62.322,0Zm-64.127,0l9.93,17.2l-19.872,0l-9.936,-17.2l19.878,0Zm-22.586,0l-9.486,16.42l-9.485,-16.42l18.971,0Zm-20.775,0l9.934,17.2l-19.866,0l-9.94,-17.2l19.872,0Zm-22.576,0l-9.942,17.2l-85.808,0l-9.934,-17.2l105.684,0Zm-108.391,0l-9.938,17.2l-19.877,0l9.943,-17.2l19.872,0Zm-21.673,0l-9.942,17.2l-63.232,0l9.943,-17.2l63.231,0Zm-65.032,0l-9.942,17.2l-19.872,0l9.93,-17.2l19.884,0Zm-21.689,0l-9.48,16.418l-9.482,-16.418l18.962,0Zm-20.767,0l9.934,17.2l-62.324,0l9.934,-17.2l42.456,0Zm-44.26,0l-9.937,17.2l-85.809,0l-9.938,-17.2l105.684,0Zm-107.489,0l9.941,17.2l-19.879,0l-9.934,-17.2l19.872,0Zm532.904,-95.41l9.492,-16.426l9.483,16.426l-18.975,0Zm21.229,0.78l9.936,-17.206l9.942,17.206l-9.942,17.209l-9.936,-17.209Zm-132.322,36.758l-19.866,0l-9.938,-17.208l19.87,0l9.934,17.208Zm-8.13,-17.208l18.971,0l-9.486,16.426l-9.485,-16.426Zm20.778,0l64.126,0l9.943,17.208l-84.01,0l9.941,-17.208Zm65.927,0l41.561,0l9.932,17.208l-41.549,0l-9.944,-17.208Zm74.526,16.428l-9.94,-17.209l9.94,-17.208l9.938,17.208l-9.938,17.209Zm10.84,-15.648l9.488,16.428l-18.975,0l9.487,-16.428Zm-12.191,16.428l-18.979,0l9.487,-16.428l9.492,16.428Zm-636.792,-18.769l9.491,-16.428l9.486,16.428l-18.977,0Zm20.782,0l-9.937,-17.209l106.581,0l9.934,17.209l-106.578,0Zm108.38,0l-9.931,-17.209l19.874,0l9.936,17.209l-19.879,0Zm21.683,0l-9.934,-17.209l19.872,0l9.937,17.209l-19.875,0Zm21.679,0l-9.934,-17.209l62.324,0l-9.934,17.209l-42.456,0Zm44.261,0l9.934,-17.209l63.227,0l-9.938,17.209l-63.223,0Zm65.027,0l9.938,-17.209l150.838,0l9.942,17.209l-170.718,0Zm172.522,0l-9.944,-17.209l19.885,0l9.932,17.209l-19.873,0Zm21.677,0l-9.934,-17.209l40.643,0l-9.934,17.209l-20.775,0Zm22.58,0l9.936,-17.209l42.454,0l9.932,17.209l-62.322,0Zm64.126,0l-9.934,-17.209l62.327,0l-9.932,17.209l-42.461,0Zm53.743,-16.428l9.939,17.208l-9.939,17.209l-9.929,-17.209l9.929,-17.208Zm-347.285,72.731l-19.879,0l31.613,-54.742l19.874,0l-31.608,54.742Zm32.963,-53.96l31.161,53.96l-62.32,0l31.159,-53.96Zm-109.292,35.978l-9.941,17.2l-31.156,-53.96l19.874,0l21.223,36.76Zm-19.419,-36.76l40.65,0l-20.33,35.197l-20.32,-35.197Zm20.32,38.32l9.488,16.422l-18.977,0l9.489,-16.422Zm0.901,-1.558l21.233,-36.762l63.224,0l-31.613,54.742l-42.454,0l-10.39,-17.98Zm-152.192,36.758l-42.454,-73.52l19.876,0l42.452,73.52l-19.874,0Zm21.679,0l-42.452,-73.52l106.578,0l42.459,73.52l-106.585,0Zm261.037,0l9.482,-16.435l9.487,16.435l-18.969,0Zm21.674,0l9.487,-16.435l9.486,16.435l-18.973,0Zm151.743,0l9.486,-16.435l9.491,16.435l-18.977,0Zm86.71,0l9.483,-16.437l9.495,16.437l-18.978,0Zm283.353,0l9.482,-16.437l9.489,16.437l-18.971,0Zm21.672,0l9.489,-16.437l9.164,15.879l-0.321,0.558l-18.332,0Zm21.683,0l8.713,-15.095l8.714,15.095l-17.427,0Zm21.671,0l9.492,-16.437l9.485,16.437l-18.977,0Zm21.68,0l9.487,-16.437l9.489,16.437l-18.976,0Zm21.679,0l9.491,-16.437l9.48,16.437l-18.971,0Zm128.524,0l9.484,-16.437l9.489,16.437l-18.973,0Zm29.814,-17.217l-9.488,16.436l-9.489,-16.436l18.977,0Zm-21.681,0l-9.934,17.217l-19.878,0l9.944,-17.217l19.868,0Zm-21.67,0l-9.942,17.217l-19.236,0l-9.936,-17.217l39.114,0Zm-40.916,0l9.938,17.217l-19.878,0l-9.938,-17.217l19.878,0Zm-21.681,0l9.938,17.217l-41.552,0l-9.934,-17.217l41.548,0Zm-44.252,0l-9.491,16.436l-9.486,-16.436l18.977,0Zm-21.681,0l-9.488,16.436l-9.485,-16.436l18.973,0Zm-23.219,0l-8.716,15.096l-8.717,-15.096l17.433,0Zm-21.674,0l-8.723,15.096l-8.714,-15.096l17.437,0Zm-20.139,0l-9.488,16.436l-9.489,-16.436l18.977,0Zm-21.678,0l-9.483,16.436l-9.495,-16.436l18.978,0Zm-20.778,0l9.942,17.217l-64.771,0l-9.945,-17.217l64.774,0Zm-66.576,0l9.944,17.217l-19.876,0l-9.938,-17.217l19.87,0Zm-21.673,0l9.939,17.217l-84.911,0l-9.944,-17.217l84.916,0Zm-86.718,0l9.944,17.217l-19.876,0l-9.934,-17.217l19.866,0Zm-21.667,0l9.934,17.217l-19.872,0l-9.938,-17.217l19.876,0Zm-21.678,0l9.938,17.217l-40.654,0l9.934,-17.217l20.782,0Zm-22.584,0l-9.483,16.436l-9.492,-16.436l18.975,0Zm-21.677,0l-9.936,17.217l-64.127,0l-9.942,-17.217l84.005,0Zm-86.711,0l-9.484,16.434l-9.489,-16.434l18.973,0Zm-20.777,0l9.938,17.217l-19.872,0l-9.934,-17.217l19.868,0Zm-21.67,0l9.932,17.217l-105.682,0l9.932,-17.217l85.818,0Zm-87.62,0l-9.481,16.434l-9.488,-16.434l18.969,0Zm-21.675,0l-9.484,16.434l-9.489,-16.434l18.973,0Zm-21.679,0l-9.932,17.217l-63.229,0l9.936,-17.217l63.225,0Zm-65.027,0l-9.936,17.217l-19.883,0l9.938,-17.217l19.881,0Zm-21.685,0l-9.938,17.217l-20.77,0l-9.938,-17.217l40.646,0Zm-64.36,-0.389c0.008,0.012 0.023,0.021 0.031,0.033c0.021,0.031 0.042,0.058 0.065,0.085c0.023,0.025 0.048,0.05 0.071,0.071c0.029,0.023 0.056,0.046 0.085,0.067c0.012,0.008 0.021,0.02 0.035,0.029c0.015,0.008 0.034,0.008 0.046,0.016c0.029,0.015 0.058,0.025 0.087,0.038c0.038,0.012 0.073,0.021 0.111,0.027c0.035,0.008 0.068,0.012 0.104,0.015c0.014,0 0.027,0.008 0.041,0.008l21.234,0l9.938,17.217l-41.553,0l-42.458,-73.52l19.876,0l32.287,55.914Zm163.264,-17.594l9.485,16.422l-18.973,0l9.488,-16.422Zm21.679,0l9.48,16.422l-18.968,0l9.488,-16.422Zm98.907,16.422l9.48,-16.42l9.483,16.42l-18.963,0Zm151.734,0l9.487,-16.422l9.49,16.422l-18.977,0Zm323.364,0l-18.335,0l9.483,-16.422l9.17,15.873l-0.318,0.549Zm12.829,-16.422l9.488,16.422l-18.973,0l9.485,-16.422Zm-96.197,16.422l9.492,-16.422l9.483,16.422l-18.975,0Zm31.165,-16.422l9.488,16.422l-18.977,0l9.489,-16.422Zm20.904,1.328l8.723,15.094l-17.437,0l8.714,-15.094Zm65.806,-1.328l9.491,16.422l-18.977,0l9.486,-16.422Zm119.044,16.422l9.482,-16.422l9.484,16.422l-18.966,0Zm40.647,0l-18.977,0l9.489,-16.422l9.488,16.422Zm-10.841,-17.202l-9.489,16.422l-9.484,-16.422l18.973,0Zm-21.675,0l-9.934,17.202l-40.916,0l-9.94,-17.202l60.79,0Zm-62.592,0l9.94,17.202l-19.881,0l-9.938,-17.202l19.879,0Zm-21.681,0l9.938,17.202l-41.547,0l-9.94,-17.202l41.549,0Zm-44.252,0l-9.489,16.422l-9.487,-16.422l18.976,0Zm-23.226,0l-8.71,15.092l-8.72,-15.092l17.43,0Zm-21.674,0l-8.714,15.092l-8.713,-15.092l17.427,0Zm-20.775,0l0.318,0.547l-9.164,15.875l-9.489,-16.422l18.335,0Zm-21.036,0l-9.489,16.422l-9.482,-16.422l18.971,0Zm-21.675,0l-9.492,16.424l-9.493,-16.424l18.985,0Zm-20.787,0l9.942,17.202l-63.869,0l9.943,-17.202l43.984,0Zm-45.787,0l-9.492,16.422l-9.483,-16.422l18.975,0Zm-20.777,0l9.932,17.202l-19.87,0l-9.941,-17.202l19.879,0Zm-21.683,0l9.942,17.202l-84.916,0l-9.932,-17.202l84.906,0Zm-86.709,0l9.932,17.202l-19.863,0l-9.939,-17.202l19.87,0Zm-21.672,0l9.938,17.202l-19.876,0l-9.942,-17.202l19.88,0Zm-22.584,0l-9.938,17.202l-19.876,0l9.944,-17.202l19.87,0Zm-21.675,0l-9.492,16.422l-9.481,-16.422l18.973,0Zm-20.777,0l9.934,17.202l-84.904,0l-9.936,-17.202l84.906,0Zm-86.711,0l9.934,17.202l-19.872,0l-9.936,-17.202l19.874,0Zm-22.582,0l-9.929,17.202l-85.818,0l-9.93,-17.202l105.677,0Zm-108.385,0l-9.486,16.42l-9.485,-16.42l18.971,0Zm758.715,-1.561l-18.973,0l9.484,-16.43l9.489,16.43Zm-10.84,-17.21l-9.934,17.21l-62.592,0l-9.938,-17.21l82.464,0Zm-84.267,0l9.938,17.21l-19.88,0l-9.932,-17.21l19.874,0Zm-21.676,0l9.934,17.21l-41.551,0l-9.936,-17.21l41.553,0Zm-64.581,0.78l9.168,15.873l-0.324,0.557l-18.336,0l9.492,-16.43Zm-12.835,16.43l-18.328,0l9.483,-16.43l9.168,15.875l-0.323,0.555Zm34.51,-16.43l9.489,16.43l-18.976,0l9.487,-16.43Zm-2.893,-0.78l-8.712,15.094l-8.719,-15.094l17.431,0Zm-21.677,0l-8.716,15.094l-8.717,-15.094l17.433,0Zm-20.136,0l-9.482,16.43l-9.493,-16.43l18.975,0Zm-12.382,17.21l-17.433,0l8.715,-15.096l8.718,15.096Zm-9.938,-17.21l0.319,0.553l-9.164,15.877l-9.489,-16.43l18.334,0Zm-10.196,17.21l-18.971,0l9.482,-16.43l9.489,16.43Zm-10.839,-17.21l-9.483,16.43l-9.492,-16.43l18.975,0Zm-10.836,17.21l-18.985,0l9.493,-16.43l9.492,16.43Zm-10.845,-17.21l-9.493,16.43l-9.482,-16.43l18.975,0Zm-20.776,0l9.932,17.21l-42.181,0l9.932,-17.21l22.317,0Zm-24.12,0l-9.932,17.21l-20.777,0l-9.938,-17.21l40.647,0Zm-42.45,0l9.939,17.21l-19.881,0l-9.934,-17.21l19.876,0Zm-21.678,0l9.934,17.21l-84.906,0l-9.932,-17.21l84.904,0Zm-86.707,0l9.932,17.21l-19.87,0l-9.938,-17.21l19.876,0Zm-11.74,17.21l-18.979,0l9.49,-16.43l9.489,16.43Zm-10.84,-17.21l-9.492,16.43l-9.487,-16.43l18.979,0Zm-10.843,17.21l-18.969,0l9.48,-16.43l9.489,16.43Zm-10.839,-17.21l-9.932,17.21l-20.778,0l-9.936,-17.21l40.646,0Zm-42.45,0l9.936,17.21l-84.906,0l-9.941,-17.21l84.911,0Zm-76.777,17.21l-18.971,0l9.485,-16.428l9.486,16.428Zm-10.841,-17.21l-9.483,16.428l-9.482,-16.428l18.965,0Zm-20.767,0l9.932,17.21l-106.583,0l-9.938,-17.21l106.589,0Zm-98.456,17.21l-18.971,0l9.485,-16.428l9.486,16.428Zm-9.53,-18.763c-0.035,0.002 -0.071,0.009 -0.108,0.015c-0.033,0.008 -0.067,0.017 -0.102,0.027c-0.029,0.01 -0.06,0.023 -0.092,0.037c-0.012,0.009 -0.031,0.009 -0.045,0.017c-0.017,0.008 -0.025,0.025 -0.04,0.033c-0.025,0.019 -0.05,0.038 -0.077,0.061c-0.025,0.023 -0.05,0.048 -0.075,0.075c-0.023,0.027 -0.044,0.052 -0.062,0.081c-0.011,0.014 -0.025,0.023 -0.034,0.037l-10.837,18.769l-10.163,17.592l-31.163,-53.96l149.942,0l9.938,17.208l-107.038,0c-0.017,0 -0.029,0.008 -0.044,0.008Zm584.888,-0.008l-18.335,0l9.483,-16.428l9.17,15.875l-0.318,0.553Zm12.829,-16.428l9.17,15.872l-0.321,0.556l-18.334,0l9.485,-16.428Zm-117.878,16.428l9.482,-16.428l9.493,16.428l-18.975,0Zm31.173,-16.428l9.483,16.428l-18.975,0l9.492,-16.428Zm20.903,1.334l8.714,15.094l-17.433,0l8.719,-15.094Zm22.453,-1.334l9.482,16.428l-18.975,0l9.493,-16.428Zm98.896,16.428l9.482,-16.428l9.491,16.428l-18.973,0Zm203.234,-17.208l-9.937,17.208l-19.88,0l9.944,-17.208l19.873,0Zm-21.675,0l-9.942,17.208l-19.874,0l9.936,-17.208l19.88,0Zm-21.681,0l-9.938,17.208l-19.872,0l9.934,-17.208l19.876,0Zm-21.678,0l-9.934,17.208l-19.879,0l9.938,-17.208l19.875,0Zm-21.677,0l-9.938,17.208l-19.872,0l9.934,-17.208l19.876,0Zm-21.679,0l-9.934,17.208l-19.874,0l9.934,-17.208l19.874,0Zm-21.676,0l-9.934,17.208l-19.877,0l9.936,-17.208l19.875,0Zm-21.675,0l-9.938,17.208l-19.878,0l9.938,-17.208l19.878,0Zm-21.681,0l-9.488,16.428l-9.489,-16.428l18.977,0Zm-21.68,0l-9.934,17.208l-19.872,0l9.931,-17.208l19.875,0Zm-21.677,0l-9.932,17.208l-19.878,0l9.936,-17.208l19.874,0Zm-23.217,0l-8.712,15.094l-8.721,-15.094l17.433,0Zm-21.683,0l-8.71,15.094l-8.72,-15.094l17.43,0Zm-20.134,0l-9.484,16.428l-9.483,-16.428l18.967,0Zm-21.668,0l-9.493,16.428l-9.489,-16.428l18.982,0Zm-22.322,0l0.318,0.553l-9.168,15.875l-9.482,-16.428l18.332,0Zm-21.036,0l-9.492,16.428l-9.493,-16.428l18.985,0Zm336.001,-18.77l-9.936,17.209l-19.88,0l9.936,-17.209l19.88,0Zm-21.683,0l-9.934,17.209l-19.876,0l9.938,-17.209l19.872,0Zm-21.674,0l-9.938,17.209l-19.874,0l9.94,-17.209l19.872,0Zm-21.675,0l-9.94,17.209l-19.876,0l9.938,-17.209l19.878,0Zm-21.68,0l-9.939,17.209l-19.874,0l9.938,-17.209l19.875,0Zm-21.675,0l-9.94,17.209l-19.872,0l9.938,-17.209l19.874,0Zm-21.676,0l-9.939,17.209l-19.878,0l9.94,-17.209l19.877,0Zm-21.679,0l-9.94,17.209l-19.879,0l9.938,-17.209l19.881,0Zm-21.681,0l-9.94,17.209l-19.874,0l9.94,-17.209l19.874,0Zm-21.677,0l-9.488,16.429l-9.482,-16.429l18.97,0Zm-10.841,17.209l-18.971,0l9.491,-16.428l9.48,16.428Zm-12.379,-17.209l-9.937,17.209l-18.334,0l9.936,-17.209l18.335,0Zm-31.615,17.209l-18.336,0l9.492,-16.428l9.168,15.872l-0.324,0.556Zm9.938,-17.209l-8.712,15.095l-8.719,-15.095l17.431,0Zm-20.134,0l-9.493,16.429l-9.483,-16.429l18.976,0Zm-10.844,17.209l-18.967,0l9.483,-16.428l9.484,16.428Zm-10.835,-17.209l-9.482,16.429l-9.493,-16.429l18.975,0Zm-10.833,17.209l-18.982,0l9.489,-16.428l9.493,16.428Zm-10.844,-17.209l-9.488,16.429l-9.489,-16.429l18.977,0Zm-12.381,17.209l-17.429,0l8.719,-15.094l8.71,15.094Zm-9.941,-17.209l0.327,0.556l-9.166,15.873l-9.492,-16.429l18.331,0Zm-10.192,17.209l-18.985,0l9.493,-16.428l9.492,16.428Zm346.839,-35.976l-9.937,17.207l-19.88,0l9.944,-17.207l19.873,0Zm-21.675,0l-9.942,17.207l-19.874,0l9.936,-17.207l19.88,0Zm-21.681,0l-9.938,17.207l-19.872,0l9.934,-17.207l19.876,0Zm-21.678,0l-9.934,17.207l-19.879,0l9.938,-17.207l19.875,0Zm-21.677,0l-9.938,17.207l-19.872,0l9.934,-17.207l19.876,0Zm-21.679,0l-9.934,17.207l-19.874,0l9.934,-17.207l19.874,0Zm-21.676,0l-9.934,17.207l-19.877,0l9.936,-17.207l19.875,0Zm-21.675,0l-9.938,17.207l-19.878,0l9.938,-17.207l19.878,0Zm-21.681,0l-9.938,17.207l-19.874,0l9.932,-17.207l19.88,0Zm-42.004,0.781l9.488,16.426l-18.97,0l9.482,-16.426Zm-12.829,16.426l-18.334,0l9.486,-16.426l9.168,15.872l-0.32,0.554Zm33.153,-17.207l-9.483,16.426l-9.49,-16.426l18.973,0Zm-23.213,0l-8.718,15.093l-8.717,-15.093l17.435,0Zm-21.681,0l-9.938,17.207l-18.332,0l9.934,-17.207l18.336,0Zm-20.136,0l-9.485,16.426l-9.492,-16.426l18.977,0Zm-10.837,17.207l-18.976,0l9.483,-16.426l9.493,16.426Zm-10.844,-17.207l-9.484,16.426l-9.483,-16.426l18.967,0Zm-10.835,17.207l-18.975,0l9.493,-16.426l9.482,16.426Zm-10.833,-17.207l-9.493,16.426l-9.489,-16.426l18.982,0Zm-10.844,17.207l-18.977,0l9.489,-16.426l9.488,16.426Zm-10.839,-17.207l-9.489,16.426l-9.482,-16.426l18.971,0Zm-12.388,17.207l-17.429,0l8.719,-15.095l8.71,15.095Zm-9.932,-17.207l0.321,0.552l-9.845,17.044l-10.845,18.771l-10.607,18.378l-21.416,0l31.623,-54.745l20.769,0Zm-22.571,0l-31.623,54.745l-42.45,0l-31.621,-54.745l105.694,0Zm-107.497,0l31.621,54.745l-19.876,0l-31.615,-54.745l19.87,0Zm-21.672,0l31.615,54.745l-84.904,0l-10.388,-17.989l21.221,-36.756l42.456,0Zm-44.259,0l-20.321,35.196l-9.936,-17.209l10.387,-17.987l19.87,0Zm-21.672,0l-9.489,16.426l-9.49,-16.426l18.979,0Zm-21.683,0l-9.489,16.426l-9.48,-16.426l18.969,0Zm-21.675,0l-9.492,16.426l-9.483,-16.426l18.975,0Zm-20.777,0l9.936,17.207l-41.551,0l-9.944,-17.207l41.559,0Zm-43.359,0l9.942,17.207l-40.654,0l9.944,-17.207l20.768,0Zm-22.57,0l-9.942,17.207l-42.45,0l-9.938,-17.207l62.33,0Zm-64.135,0l9.938,17.207l-19.88,0l-9.936,-17.207l19.878,0Zm-21.683,0l9.934,17.207l-149.933,0l-9.939,-17.207l149.938,0Zm-151.742,0l9.938,17.207l-62.326,0l9.932,-17.207l42.456,0Zm-44.259,0l-9.932,17.207l-64.13,0l-9.938,-17.207l84,0Zm-85.807,0l9.94,17.207l-19.876,0l-9.942,-17.207l19.878,0Zm-21.679,0l9.943,17.207l-19.877,0l-9.938,-17.207l19.872,0Zm-21.678,0l9.94,17.207l-105.68,0l9.937,-17.207l85.803,0Zm-87.608,0l-9.936,17.207l-19.878,0l9.936,-17.207l19.878,0Zm219.478,-1.56l20.332,-35.202l20.32,35.202l-40.652,0Zm281.817,0l9.482,-16.431l9.48,16.431l-18.962,0Zm86.708,0l9.48,-16.433l9.489,16.433l-18.969,0Zm43.355,0l9.487,-16.433l9.482,16.433l-18.969,0Zm195.1,0l9.487,-16.433l9.48,16.433l-18.967,0Zm23.217,0l9.482,-16.433l9.489,16.433l-18.971,0Zm21.672,0l9.489,-16.433l9.493,16.433l-18.982,0Zm21.683,0l9.483,-16.433l9.484,16.433l-18.967,0Zm43.351,0l9.487,-16.433l9.168,15.875l-0.321,0.558l-18.334,0Zm21.679,0l8.717,-15.097l8.718,15.097l-17.435,0Zm224.912,-17.213l-9.936,17.213l-19.88,0l9.936,-17.213l19.88,0Zm-21.683,0l-9.934,17.213l-19.876,0l9.938,-17.213l19.872,0Zm-21.674,0l-9.938,17.213l-19.874,0l9.94,-17.213l19.872,0Zm-21.675,0l-9.94,17.213l-19.876,0l9.938,-17.213l19.878,0Zm-21.68,0l-9.939,17.213l-19.874,0l9.938,-17.213l19.875,0Zm-21.675,0l-9.94,17.213l-19.872,0l9.938,-17.213l19.874,0Zm-21.676,0l-9.939,17.213l-19.878,0l9.94,-17.213l19.877,0Zm-21.679,0l-9.94,17.213l-19.879,0l9.938,-17.213l19.881,0Zm-21.681,0l-9.94,17.213l-19.874,0l9.94,-17.213l19.874,0Zm-23.215,0l-8.72,15.094l-8.712,-15.094l17.432,0Zm-21.682,0l-8.713,15.094l-8.718,-15.094l17.431,0Zm-20.135,0l-9.938,17.213l-19.878,0l9.942,-17.213l19.874,0Zm-21.674,0l-9.495,16.432l-9.483,-16.432l18.978,0Zm-21.681,0l-9.482,16.432l-9.493,-16.432l18.975,0Zm-21.677,0l-9.488,16.432l-9.489,-16.432l18.977,0Zm-21.678,0l-9.932,17.213l-0.648,0l-9.931,-17.213l20.511,0Zm-23.215,0l-9.936,17.213l-107.497,0l-9.931,-17.213l127.364,0Zm-129.167,0l9.932,17.213l-19.87,0l-9.932,-17.213l19.87,0Zm-21.672,0l9.932,17.213l-41.555,0l-9.932,-17.213l41.555,0Zm-44.259,0l-9.938,17.213l-19.88,0l9.942,-17.213l19.876,0Zm-21.679,0l-9.492,16.432l-9.487,-16.432l18.979,0Zm-21.682,0l-9.483,16.432l-9.492,-16.432l18.975,0Zm-20.778,0l9.945,17.213l-19.877,0l-9.938,-17.213l19.87,0Zm-21.672,0l9.936,17.213l-41.557,0l-9.934,-17.213l41.555,0Zm-44.259,0l-9.932,17.213l-64.135,0l-9.942,-17.213l84.009,0Zm-85.813,0l9.942,17.213l-19.878,0l-9.937,-17.213l19.873,0Zm-21.675,0l9.936,17.213l-40.645,0l9.932,-17.213l20.777,0Zm-22.58,0l-9.48,16.428l-9.493,-16.428l18.973,0Zm814.454,-18.769l-9.937,17.208l-19.88,0l9.944,-17.208l19.873,0Zm-21.675,0l-9.942,17.208l-19.874,0l9.936,-17.208l19.88,0Zm-21.681,0l-9.938,17.208l-19.872,0l9.934,-17.208l19.876,0Zm-21.678,0l-9.934,17.208l-19.879,0l9.938,-17.208l19.875,0Zm-21.677,0l-9.938,17.208l-19.872,0l9.934,-17.208l19.876,0Zm-21.679,0l-9.934,17.208l-19.874,0l9.934,-17.208l19.874,0Zm-21.676,0l-9.934,17.208l-19.877,0l9.936,-17.208l19.875,0Zm-21.675,0l-9.938,17.208l-19.878,0l9.938,-17.208l19.878,0Zm-21.681,0l-9.938,17.208l-19.874,0l9.932,-17.208l19.88,0Zm-21.68,0l-9.934,17.208l-0.637,0l-9.622,-16.655l0.321,-0.553l19.872,0Zm-21.094,2.114l8.72,15.094l-17.432,0l8.712,-15.094Zm-12.059,15.094l-18.334,0l9.486,-16.428l9.168,15.873l-0.32,0.555Zm9.94,-17.208l-8.718,15.092l-8.717,-15.092l17.435,0Zm-20.138,0l-9.489,16.428l-9.487,-16.428l18.976,0Zm-10.84,17.208l-18.973,0l9.485,-16.428l9.488,16.428Zm-10.839,-17.208l-9.934,17.208l-19.879,0l9.932,-17.208l19.881,0Zm-21.681,0l-9.484,16.428l-9.483,-16.428l18.967,0Zm-10.835,17.208l-18.975,0l9.493,-16.428l9.482,16.428Zm-10.833,-17.208l-9.493,16.428l-9.489,-16.428l18.982,0Zm-10.844,17.208l-18.977,0l9.489,-16.428l9.488,16.428Zm-10.839,-17.208l-9.938,17.208l-21.412,0l9.931,-17.208l21.419,0Zm-23.221,0l-9.932,17.208l-129.167,0l-9.938,-17.208l149.037,0Zm-150.839,0l9.938,17.208l-19.87,0l-9.944,-17.208l19.876,0Zm-21.679,0l9.945,17.208l-40.654,0l9.932,-17.208l20.777,0Zm-22.58,0l-9.482,16.428l-9.487,-16.428l18.969,0Zm-10.833,17.208l-18.975,0l9.487,-16.428l9.488,16.428Zm-10.839,-17.208l-9.938,17.208l-19.881,0l9.938,-17.208l19.881,0Zm-21.683,0l-9.489,16.428l-9.48,-16.428l18.969,0Zm-20.771,0l9.932,17.208l-19.877,0l-9.934,-17.208l19.879,0Zm-21.681,0l9.936,17.208l-19.872,0l-9.944,-17.208l19.88,0Zm-21.683,0l9.942,17.208l-128.265,0l-9.936,-17.208l128.259,0Zm-130.064,0l9.934,17.208l-19.868,0l-9.936,-17.208l19.87,0Zm-21.674,0l9.934,17.208l-19.874,0l-9.932,-17.208l19.872,0Zm-11.743,17.208l-18.975,0l9.493,-16.428l9.482,16.428Zm-10.835,-17.208l-9.491,16.426l-9.482,-16.426l18.973,0Zm-20.775,0l10.606,18.378l10.169,17.604l-106.589,0l-20.769,-35.982l106.583,0Zm-109.289,0l-20.783,35.982l-85.806,0l-20.779,-35.982l127.368,0Zm-129.173,0l20.78,35.982l-19.879,0l-20.771,-35.982l19.87,0Zm-21.676,0l20.773,35.982l-19.87,0l-20.769,-35.982l19.866,0Zm-21.671,0l20.772,35.982l-84.003,0l20.773,-35.982l42.458,0Zm-44.262,0l-20.774,35.982l-19.876,0l20.78,-35.982l19.87,0Zm-21.675,0l-20.33,35.197l-20.322,-35.197l40.652,0Zm468.772,-132.945l9.489,-16.426l9.482,16.426l-18.971,0Zm21.677,0l9.493,-16.428l9.482,16.428l-18.975,0Zm-488.644,18.765l-9.937,-17.204l19.875,0l9.934,17.204l-19.872,0Zm21.674,0l-9.932,-17.204l19.866,0l9.94,17.204l-19.874,0Zm21.679,0l-9.938,-17.204l40.651,0l-9.934,17.204l-20.779,0Zm22.584,0l9.932,-17.204l19.874,0l-9.94,17.204l-19.866,0Zm21.672,0l9.938,-17.204l63.226,0l-9.932,17.204l-63.232,0Zm65.034,0l9.48,-16.422l9.489,16.422l-18.969,0Zm20.774,0l-9.939,-17.204l149.041,0l-9.932,17.204l-129.17,0Zm130.973,0l9.932,-17.204l150.841,0l9.938,17.204l-170.711,0Zm172.518,0l-9.941,-17.204l19.877,0l9.942,17.204l-19.878,0Zm11.736,-17.204l18.975,0l-9.482,16.424l-9.493,-16.424Zm10.396,17.985l9.932,-17.203l31.159,53.961l-19.874,0l-21.217,-36.758Zm-445.297,17.212l-9.487,-16.432l18.975,0l-9.488,16.432Zm11.293,-16.432l19.868,0l-20.322,35.197l-9.938,-17.2l10.392,-17.997Zm-12.195,17.995l-9.94,17.2l-20.324,-35.195l19.872,0l10.392,17.995Zm0.902,1.561l9.488,16.422l-18.977,0l9.489,-16.422Zm32.963,-19.556l63.232,0l-20.778,35.978l-63.223,0l20.769,-35.978Zm65.036,0l20.773,0l20.78,35.978l-62.328,0l20.775,-35.978Zm22.578,0l127.364,0l-20.779,35.978l-85.806,0l-20.779,-35.978Zm129.169,0l20.773,0l20.775,35.978l-62.328,0l20.78,-35.978Zm22.577,0l149.938,0l20.78,35.978l-149.942,0l-20.776,-35.978Zm151.743,0l19.878,0l20.765,35.978l-19.864,0l-20.779,-35.978Zm-445.298,54.753l-31.61,-54.753l19.87,0l21.454,37.149c0.008,0.015 0.023,0.023 0.031,0.035c0.019,0.03 0.042,0.057 0.064,0.084c0.023,0.025 0.046,0.05 0.071,0.072c0.029,0.023 0.054,0.044 0.086,0.065c0.012,0.008 0.02,0.023 0.035,0.031c0.012,0.009 0.031,0.009 0.046,0.015c0.029,0.014 0.056,0.025 0.087,0.037c0.038,0.013 0.071,0.023 0.11,0.029c0.036,0.009 0.069,0.011 0.104,0.015c0.015,0 0.025,0.006 0.042,0.006l20.33,0l-9.94,17.215l-20.78,0Zm22.586,0l9.487,-16.432l9.482,16.432l-18.969,0Zm20.772,0l-9.932,-17.215l62.324,0l-9.938,17.215l-42.454,0Zm44.258,0l9.936,-17.215l64.135,0l9.936,17.215l-84.007,0Zm85.81,0l-9.936,-17.215l84.002,0l-9.936,17.215l-64.13,0Zm65.933,0l9.936,-17.215l64.135,0l9.932,17.215l-84.003,0Zm85.805,0l-9.932,-17.215l149.944,0l9.932,17.215l-149.944,0Zm151.749,0l-9.934,-17.215l19.863,0l9.943,17.215l-19.872,0Zm21.678,0l-9.944,-17.215l19.874,0l9.942,17.215l-19.872,0Zm21.679,0l-9.944,-17.215l84.914,0l9.938,17.215l-84.908,0Zm-541.039,37.542l20.769,-35.981l20.78,0l9.94,17.204l-20.33,0c-0.017,0 -0.027,0.008 -0.042,0.008c-0.037,0.002 -0.07,0.009 -0.108,0.015c-0.035,0.008 -0.066,0.016 -0.102,0.029c-0.031,0.01 -0.06,0.023 -0.091,0.035c-0.015,0.009 -0.034,0.009 -0.046,0.017c-0.017,0.008 -0.025,0.025 -0.04,0.035c-0.029,0.019 -0.05,0.038 -0.077,0.059c-0.027,0.025 -0.05,0.047 -0.075,0.072c-0.022,0.03 -0.045,0.057 -0.064,0.086c-0.008,0.012 -0.023,0.021 -0.031,0.035l-10.617,18.386l-19.866,0Zm550.072,-18.777l-19.879,0l-9.934,-17.204l19.877,0l9.936,17.204Zm-8.132,-17.204l84.007,0l-9.938,17.204l-64.133,0l-9.936,-17.204Zm-13.551,17.204l-19.874,0l-9.934,-17.204l19.876,0l9.932,17.204Zm-21.679,0l-149.934,0l-9.942,-17.204l149.944,0l9.932,17.204Zm-151.734,0l-105.688,0l9.939,-17.204l85.807,0l9.942,17.204Zm-107.492,0l-42.456,0l-9.932,-17.204l62.326,0l-9.938,17.204Zm-44.259,0l-105.685,0l9.942,-17.204l85.811,0l9.932,17.204Zm-107.486,0l-20.775,0l-9.934,-17.204l40.652,0l-9.943,17.204Zm-22.58,0l-19.865,0l-9.939,-17.204l19.868,0l9.936,17.204Zm-51.486,18.777l9.486,-16.434l9.489,16.434l-18.975,0Zm20.779,0l-9.938,-17.216l19.876,0l9.934,17.216l-19.872,0Zm21.675,0l-9.932,-17.216l19.866,0l9.94,17.216l-19.874,0Zm11.74,-17.216l18.969,0l-9.482,16.434l-9.487,-16.434Zm10.84,17.216l9.931,-17.216l107.489,0l9.938,17.216l-127.358,0Zm129.162,0l-9.938,-17.216l40.652,0l-9.932,17.216l-20.782,0Zm22.584,0l9.932,-17.216l107.492,0l9.932,17.216l-127.356,0Zm129.159,0l-9.932,-17.216l149.931,0l9.943,17.216l-149.942,0Zm151.748,0l-9.944,-17.216l19.874,0l9.942,17.216l-19.872,0Zm21.679,0l-9.944,-17.216l19.878,0l9.936,17.216l-19.87,0Zm21.67,0l-9.934,-17.216l62.333,0l-9.938,17.216l-42.461,0Zm44.263,0l9.938,-17.216l19.872,0l-9.934,17.216l-19.876,0Zm-617.813,18.763l9.938,-17.202l19.868,0l-9.936,17.202l-19.87,0Zm21.676,0l9.934,-17.202l20.78,0l9.94,17.202l-40.654,0Zm42.456,0l-9.938,-17.202l19.87,0l9.936,17.202l-19.868,0Zm21.673,0l-9.934,-17.202l19.872,0l9.932,17.202l-19.87,0Zm21.674,0l-9.929,-17.202l128.261,0l9.942,17.202l-128.274,0Zm120.132,-17.202l18.978,0l-9.487,16.422l-9.491,-16.422Zm10.848,17.202l9.934,-17.202l106.576,0l-9.929,17.202l-106.581,0Zm108.385,0l9.482,-16.422l9.491,16.422l-18.973,0Zm20.773,0l-9.942,-17.202l19.876,0l9.939,17.202l-19.873,0Zm11.737,-17.202l18.973,0l-9.485,16.422l-9.488,-16.422Zm10.843,17.202l9.485,-16.42l9.482,16.42l-18.967,0Zm20.772,0l-9.934,-17.202l128.263,0l9.932,17.202l-128.261,0Zm130.065,0l-9.931,-17.202l19.874,0l9.936,17.202l-19.879,0Zm21.683,0l-9.936,-17.202l19.868,0l9.942,17.202l-19.874,0Zm21.679,0l-9.944,-17.202l40.655,0l-9.94,17.202l-20.771,0Zm22.574,0l9.942,-17.202l19.876,0l-9.938,17.202l-19.88,0Zm21.682,0l9.487,-16.422l9.482,16.422l-18.969,0Zm20.772,0l-10.384,-17.982l9.932,-17.217l20.328,35.199l-19.876,0Zm21.678,0l-21.454,-37.149c-0.008,-0.014 -0.02,-0.021 -0.029,-0.033c-0.018,-0.029 -0.041,-0.058 -0.066,-0.086c-0.021,-0.024 -0.046,-0.049 -0.073,-0.072c-0.027,-0.025 -0.052,-0.044 -0.079,-0.063c-0.015,-0.01 -0.023,-0.025 -0.038,-0.033c-0.014,-0.008 -0.031,-0.008 -0.048,-0.017c-0.029,-0.012 -0.058,-0.023 -0.087,-0.035c-0.035,-0.013 -0.071,-0.023 -0.108,-0.029c-0.036,-0.009 -0.069,-0.013 -0.104,-0.015c-0.015,0 -0.027,-0.008 -0.044,-0.008l-20.32,0l9.939,-17.204l20.765,0l31.623,54.744l-19.877,0Zm197.539,0l9.489,-16.422l9.491,16.422l-18.98,0Zm43.354,0l9.492,-16.422l9.485,16.422l-18.977,0Zm21.68,0l9.487,-16.422l9.489,16.422l-18.976,0Zm246.591,-17.202l-9.936,17.202l-19.88,0l9.936,-17.202l19.88,0Zm-21.683,0l-9.934,17.202l-19.876,0l9.938,-17.202l19.872,0Zm-21.674,0l-9.938,17.202l-19.874,0l9.94,-17.202l19.872,0Zm-21.677,0l-9.938,17.202l-19.876,0l9.938,-17.202l19.876,0Zm-21.678,0l-9.939,17.202l-19.874,0l9.938,-17.202l19.875,0Zm-21.677,0l-9.938,17.202l-19.872,0l9.938,-17.202l19.872,0Zm-21.674,0l-9.939,17.202l-19.878,0l9.94,-17.202l19.877,0Zm-21.679,0l-9.94,17.202l-19.879,0l9.938,-17.202l19.881,0Zm-21.683,0l-9.938,17.202l-19.874,0l9.94,-17.202l19.872,0Zm-21.675,0l-9.94,17.202l-19.872,0l9.94,-17.202l19.872,0Zm-21.674,0l-9.491,16.422l-9.486,-16.422l18.977,0Zm-21.681,0l-9.488,16.422l-9.485,-16.422l18.973,0Zm-21.676,0l-9.943,17.202l-19.868,0l9.932,-17.202l19.879,0Zm-21.679,0l-9.482,16.422l-9.491,-16.422l18.973,0Zm-21.677,0l-9.938,17.202l-21.418,0l9.932,-17.202l21.424,0Zm-23.227,0l-9.932,17.202l-18.34,0l9.942,-17.202l18.33,0Zm88.259,-1.561l-19.874,0l-32.841,-56.865l9.941,-17.214l42.774,74.079Zm-21.674,0l-63.881,0l31.939,-55.304l31.942,55.304Zm-12.386,-92.295l-8.714,15.094l-8.713,-15.094l17.427,0Zm-19.227,0l9.611,16.655l-9.94,17.215l-19.554,-33.87l19.883,0Zm-21.683,0l20.453,35.43l-32.839,56.865l-19.233,0l-53.289,-92.295l84.908,0Zm-86.708,0l53.738,93.076l-9.944,17.202l-63.677,-110.278l19.883,0Zm138.459,-18.765l-9.94,17.204l-19.229,0l-9.94,-17.204l39.109,0Zm-30.971,17.204l-18.98,0l9.489,-16.424l9.491,16.424Zm-10.842,-17.204l-9.938,17.204l-85.809,0l-9.94,-17.204l105.687,0Zm-97.55,17.204l-18.979,0l9.489,-16.424l9.49,16.424Zm-10.843,-17.204l-9.487,16.424l-9.482,-16.424l18.969,0Zm161.039,-18.769l-9.931,17.208l-148.405,0l9.943,-17.208l148.393,0Zm-150.196,0l-9.49,16.428l-9.489,-16.428l18.979,0Zm-10.843,17.208l-18.969,0l9.482,-16.428l9.487,16.428Zm-10.837,-17.208l-10.159,17.597c-0.008,0.015 -0.008,0.032 -0.015,0.046c-0.016,0.031 -0.027,0.061 -0.039,0.094c-0.013,0.033 -0.021,0.068 -0.027,0.106c-0.007,0.033 -0.013,0.067 -0.015,0.098c0,0.016 -0.008,0.031 -0.008,0.048c0,0.016 0.008,0.031 0.008,0.045c0.002,0.034 0.008,0.065 0.015,0.098c0.006,0.04 0.014,0.073 0.027,0.11c0.012,0.032 0.023,0.061 0.039,0.092c0.007,0.015 0.007,0.031 0.015,0.044l75.186,130.214l-129.795,0l-32.073,-55.525l53.745,-93.067l43.096,0Zm-44.898,0l-53.295,92.287l-20.765,0l-9.939,-17.215l20.32,0c0.017,0 0.029,-0.006 0.046,-0.006c0.035,-0.004 0.068,-0.008 0.106,-0.015c0.033,-0.008 0.067,-0.016 0.1,-0.029c0.031,-0.01 0.062,-0.023 0.091,-0.037c0.017,-0.006 0.034,-0.006 0.048,-0.015c0.015,-0.008 0.025,-0.025 0.04,-0.035c0.027,-0.019 0.05,-0.038 0.075,-0.058c0.027,-0.025 0.052,-0.05 0.077,-0.075c0.023,-0.027 0.043,-0.054 0.062,-0.084c0.011,-0.014 0.023,-0.02 0.031,-0.035l43.133,-74.683l19.87,0Zm-21.672,0l-42.007,72.731l-42.002,-72.731l84.009,0Zm-85.812,0l42.454,73.512l-19.87,0l-42.454,-73.512l19.87,0Zm-21.672,0l42.454,73.512l-84.915,0l-32.062,-55.523l10.384,-17.989l64.139,0Zm-65.944,0l-9.48,16.426l-9.482,-16.426l18.962,0Zm-21.666,0l-9.491,16.428l-9.486,-16.428l18.977,0Zm-21.685,0l-9.938,17.208l-149.938,0l9.938,-17.208l149.938,0Zm-151.742,0l-9.938,17.208l-149.943,0l9.939,-17.208l149.942,0Zm-151.747,0l-9.938,17.208l-63.225,0l9.931,-17.208l63.232,0Zm-65.034,0l-9.934,17.208l-19.872,0l9.934,-17.208l19.872,0Zm-21.677,0l-9.936,17.208l-41.55,0l9.938,-17.208l41.548,0Zm-43.353,0l-9.94,17.208l-20.767,0l-9.94,-17.208l40.647,0Zm-42.452,0l9.94,17.208l-19.876,0l-9.942,-17.208l19.878,0Zm584.399,-187.692l-31.166,53.963l-31.171,-53.963l62.337,0Zm-303.494,0l-31.159,53.963l-31.169,-53.963l62.328,0Zm-63.683,0.783l31.623,54.742l-9.936,17.209l-31.617,-54.747l9.93,-17.204Zm-21.67,34.41l-9.938,-17.206l9.938,-17.204l9.936,17.204l-9.936,17.206Zm616.456,-53.962l-9.938,17.209l-150.841,0l-9.932,-17.209l170.711,0Zm-172.514,0l9.932,17.209l-62.324,0l9.932,-17.209l42.46,0Zm-44.262,0l-9.932,17.209l-63.24,0l9.944,-17.209l63.228,0Zm-65.032,0l-9.943,17.209l-172.511,0l-9.938,-17.209l192.392,0Zm-194.197,0l9.938,17.209l-62.328,0l9.934,-17.209l42.456,0Zm-44.26,0l-9.934,17.209l-63.232,0l9.938,-17.209l63.228,0Zm-65.032,0l-10.165,17.6l-10.157,17.593l-9.934,-17.204l10.386,-17.989l19.87,0Zm-21.223,-0.78l-9.936,17.206l-20.328,-35.197l19.878,0l10.386,17.991Zm22.126,-0.78l-19.872,0l9.932,-17.211l19.882,0l-9.942,17.211Zm11.747,-17.211l63.227,0l-9.942,17.211l-63.228,0l9.943,-17.211Zm-32.972,16.428l-9.484,-16.428l18.966,0l-9.482,16.428Zm247.94,-93.065l-172.069,0c-0.016,0 -0.031,0.008 -0.048,0.01c-0.035,0.002 -0.066,0.006 -0.1,0.015c-0.035,0.006 -0.07,0.014 -0.106,0.027c-0.031,0.01 -0.062,0.023 -0.091,0.037c-0.015,0.009 -0.032,0.009 -0.046,0.017c-0.015,0.008 -0.021,0.021 -0.035,0.029c-0.03,0.021 -0.057,0.042 -0.084,0.065c-0.025,0.022 -0.05,0.047 -0.073,0.074c-0.025,0.027 -0.043,0.052 -0.062,0.079c-0.01,0.015 -0.025,0.023 -0.033,0.038l-10.161,17.595l-9.938,-17.206l10.389,-17.991l172.525,0l9.932,17.211Zm-8.13,-17.211l127.356,0l-9.936,17.211l-107.486,0l-9.934,-17.211Zm149.934,111.059l-63.225,0l52.841,-91.507l31.615,54.742l-21.231,36.765Zm22.132,-35.204l20.328,35.204l-40.658,0l20.33,-35.204Zm-87.162,35.204l-19.874,0l53.293,-92.288l19.877,0l-53.296,92.288Zm-21.227,-0.781l-52.842,-91.507l105.684,0l-52.842,91.507Zm-1.355,0.781l-171.617,0l-53.291,-92.288l171.617,0l53.291,92.288Zm303.487,0l-171.612,0l-21.227,-36.765l85.805,-148.59l107.034,185.355Zm-108.385,-186.135l-85.358,147.81l-31.839,-55.132c-0.009,-0.015 -0.023,-0.021 -0.032,-0.035c-0.018,-0.03 -0.039,-0.055 -0.062,-0.082c-0.025,-0.027 -0.048,-0.052 -0.077,-0.077c-0.025,-0.02 -0.05,-0.041 -0.079,-0.06c-0.013,-0.01 -0.021,-0.023 -0.035,-0.031c-0.015,-0.008 -0.032,-0.008 -0.046,-0.017c-0.029,-0.014 -0.061,-0.027 -0.094,-0.037c-0.035,-0.013 -0.069,-0.021 -0.104,-0.027c-0.033,-0.009 -0.067,-0.013 -0.1,-0.015c-0.016,-0.002 -0.031,-0.01 -0.048,-0.01l-20.328,0l10.159,-17.6c0.008,-0.015 0.008,-0.031 0.015,-0.044c0.016,-0.031 0.029,-0.062 0.039,-0.095c0.013,-0.036 0.021,-0.069 0.027,-0.104c0.009,-0.034 0.013,-0.065 0.015,-0.1c0.002,-0.017 0.008,-0.032 0.008,-0.048c0,-0.015 -0.006,-0.029 -0.008,-0.046c-0.002,-0.035 -0.006,-0.067 -0.015,-0.1c-0.006,-0.035 -0.014,-0.071 -0.027,-0.104c-0.01,-0.033 -0.023,-0.064 -0.039,-0.094c-0.007,-0.014 -0.007,-0.031 -0.015,-0.045l-42.672,-73.907l170.715,0Zm-172.52,0l42.452,73.516l-128.257,0l-42.458,-73.516l128.263,0Zm-130.068,0l42.458,73.516l-171.621,0l-42.454,-73.516l171.617,0Zm-334.192,54.748l31.157,-53.966l31.163,53.966l-62.32,0Zm172.745,0.39c-0.009,-0.015 -0.025,-0.025 -0.036,-0.04c-0.019,-0.027 -0.037,-0.052 -0.058,-0.075c-0.025,-0.027 -0.048,-0.052 -0.075,-0.077c-0.027,-0.023 -0.054,-0.044 -0.083,-0.064c-0.015,-0.009 -0.021,-0.021 -0.036,-0.03c-0.014,-0.008 -0.031,-0.008 -0.045,-0.016c-0.03,-0.015 -0.061,-0.027 -0.094,-0.038c-0.033,-0.012 -0.069,-0.02 -0.104,-0.027c-0.033,-0.008 -0.067,-0.012 -0.1,-0.014c-0.017,-0.002 -0.031,-0.009 -0.048,-0.009l-107.942,0l-31.612,-54.748l128.259,0l42.906,74.296l-9.941,17.21l-20.991,-36.368Zm-2.032,1.171l-52.846,91.501l-52.839,-91.501l105.685,0Zm-235.751,111.054l64.135,-111.054l64.124,0l53.745,93.061l-10.39,17.993l-171.614,0Zm173.419,0l9.486,-16.43l9.489,16.43l-18.975,0Zm20.779,0l-10.389,-17.993l53.295,-92.281l20.769,35.978l-42.905,74.296l-20.77,0Zm22.574,0l42.002,-72.733l9.941,17.206l-32.06,55.527l-19.883,0Zm21.687,0l31.157,-53.964l31.167,53.964l-62.324,0Zm64.355,1.17c0.009,-0.015 0.009,-0.031 0.017,-0.048c0.013,-0.029 0.025,-0.058 0.035,-0.088c0.013,-0.035 0.023,-0.07 0.03,-0.108c0.006,-0.033 0.012,-0.068 0.014,-0.102c0,-0.016 0.006,-0.029 0.006,-0.043c0,-0.017 -0.006,-0.03 -0.006,-0.044c-0.002,-0.035 -0.008,-0.071 -0.014,-0.104c-0.007,-0.038 -0.017,-0.071 -0.03,-0.108c-0.01,-0.029 -0.022,-0.059 -0.035,-0.088c-0.008,-0.016 -0.008,-0.033 -0.017,-0.048l-32.295,-55.916l9.936,-17.206l52.84,91.505l-40.65,0l10.169,-17.602Zm-335.334,17.602l9.936,-17.211l19.88,0l-9.938,17.211l-19.878,0Zm194.421,0.391c-0.008,-0.015 -0.023,-0.023 -0.033,-0.036c-0.019,-0.031 -0.04,-0.056 -0.063,-0.083c-0.025,-0.027 -0.05,-0.052 -0.075,-0.075c-0.027,-0.023 -0.052,-0.041 -0.081,-0.06c-0.012,-0.011 -0.021,-0.025 -0.035,-0.033c-0.015,-0.009 -0.031,-0.009 -0.046,-0.015c-0.029,-0.015 -0.06,-0.027 -0.096,-0.04c-0.033,-0.01 -0.066,-0.02 -0.102,-0.027c-0.033,-0.006 -0.066,-0.012 -0.1,-0.014c-0.016,0 -0.031,-0.008 -0.048,-0.008l-172.06,0l9.937,-17.211l172.515,0l21.232,36.76l-9.941,17.204l-21.004,-36.362Zm-53.518,93.454l52.839,-91.502l20.782,35.973l-32.064,55.529l-41.557,0Zm43.361,0l31.161,-53.966l9.941,17.206l-21.232,36.76l-19.87,0Zm21.675,0l20.328,-35.197l20.319,35.197l-40.647,0Zm42.45,0l-21.219,-36.76l9.934,-17.206l31.167,53.966l-19.882,0Zm22.588,0l9.484,-16.428l9.483,16.428l-18.967,0Zm20.769,0l-10.381,-17.991l32.06,-55.525l64.135,0l42.45,73.516l-128.264,0Zm130.068,0l-42.45,-73.516l171.608,0l32.073,55.525l-10.394,17.991l-150.837,0Zm152.642,0l9.492,-16.428l9.485,16.428l-18.977,0Zm20.781,0l-10.387,-17.991l32.066,-55.525l64.126,0l42.457,73.516l-128.262,0Zm-465.167,18.765l9.929,-17.204l41.558,0l-9.937,17.204l-41.55,0Zm43.357,0l9.934,-17.204l19.87,0l-9.938,17.204l-19.866,0Zm21.668,0l9.938,-17.204l42.455,0l9.938,17.204l-62.331,0Zm64.133,0l-9.938,-17.204l41.555,0l9.938,17.204l-41.555,0Zm43.357,0l-9.938,-17.204l127.363,0l-9.939,17.204l-107.486,0Zm-215.869,75.081l42.45,-73.52l41.553,0l-42.456,73.52l-41.547,0Zm43.354,0l42.454,-73.52l19.866,0l-42.448,73.52l-19.872,0Zm21.678,0l42.446,-73.52l63.232,0l-42.45,73.52l-63.228,0Zm65.032,0l42.45,-73.52l42.456,0l42.45,73.52l-127.356,0Zm129.161,0l-42.45,-73.52l105.677,0l-42.45,73.52l-20.777,0Zm22.582,0l42.45,-73.52l149.942,0l-42.454,73.52l-149.938,0Zm-358.587,18.769l-9.936,-17.208l19.878,0l9.936,17.208l-19.878,0Zm21.683,0l-9.937,-17.208l62.327,0l-9.941,17.208l-42.449,0Zm44.256,0l9.938,-17.208l41.549,0l-9.94,17.208l-41.547,0Zm43.353,0l9.938,-17.208l19.875,0l-9.943,17.208l-19.87,0Zm21.673,0l9.942,-17.208l63.229,0l-9.938,17.208l-63.233,0Zm65.038,0l9.938,-17.208l129.163,0l9.938,17.208l-149.039,0Zm140.905,-17.208l18.971,0l-9.482,16.426l-9.489,-16.426Zm10.841,17.208l9.934,-17.208l149.938,0l-9.934,17.208l-149.938,0Zm151.743,0l9.936,-17.208l19.874,0l-9.932,17.208l-19.878,0Zm21.681,0l9.482,-16.426l9.48,16.426l-18.962,0Zm20.767,0l-10.609,-18.38c-0.008,-0.014 -0.025,-0.021 -0.033,-0.035c-0.019,-0.031 -0.039,-0.056 -0.062,-0.081c-0.023,-0.027 -0.044,-0.05 -0.071,-0.073c-0.029,-0.023 -0.054,-0.046 -0.085,-0.067c-0.013,-0.008 -0.021,-0.023 -0.036,-0.029c-0.014,-0.008 -0.031,-0.008 -0.046,-0.017c-0.029,-0.014 -0.056,-0.025 -0.087,-0.037c-0.037,-0.013 -0.073,-0.021 -0.11,-0.029c-0.036,-0.004 -0.067,-0.011 -0.102,-0.013c-0.015,0 -0.027,-0.008 -0.044,-0.008l-20.326,0l42.005,-72.738l52.844,91.507l-63.238,0Zm65.04,0l-53.97,-93.461c-0.008,-0.014 -0.023,-0.02 -0.031,-0.033c-0.019,-0.031 -0.042,-0.058 -0.065,-0.085c-0.023,-0.025 -0.045,-0.05 -0.07,-0.071c-0.03,-0.023 -0.055,-0.046 -0.086,-0.067c-0.012,-0.008 -0.021,-0.022 -0.035,-0.029c-0.013,-0.008 -0.031,-0.008 -0.046,-0.016c-0.029,-0.015 -0.058,-0.025 -0.087,-0.038c-0.038,-0.012 -0.071,-0.023 -0.111,-0.029c-0.033,-0.006 -0.068,-0.01 -0.104,-0.012c-0.012,0 -0.025,-0.009 -0.041,-0.009l-150.396,0l9.938,-17.204l150.839,0l64.135,111.054l-19.87,0Zm21.672,0l-64.132,-111.054l19.878,0l64.135,111.054l-19.881,0Zm-42.45,-111.054l127.361,0l-63.679,110.274l-63.682,-110.274Zm65.034,111.054l64.354,-111.443c0.008,-0.015 0.008,-0.031 0.016,-0.046c0.015,-0.029 0.028,-0.06 0.038,-0.096c0.012,-0.033 0.021,-0.066 0.027,-0.104c0.008,-0.031 0.012,-0.064 0.015,-0.098c0.002,-0.016 0.008,-0.031 0.008,-0.047c0,-0.017 -0.006,-0.032 -0.008,-0.046c-0.003,-0.036 -0.007,-0.067 -0.015,-0.1c-0.006,-0.038 -0.015,-0.071 -0.027,-0.106c-0.01,-0.031 -0.023,-0.063 -0.038,-0.094c-0.008,-0.014 -0.008,-0.029 -0.016,-0.044l-42.681,-73.907l149.039,0l-107.484,186.131l-63.228,0Zm65.03,0l107.484,-186.131l19.883,0l-107.497,186.131l-19.87,0Zm66.568,0l9.489,-16.428l9.49,16.428l-18.979,0Zm159.244,-17.208l9.931,17.208l-148.393,0l-9.943,-17.208l148.405,0Zm-149.903,-1.54c-0.038,0.008 -0.071,0.016 -0.106,0.029c-0.031,0.01 -0.061,0.023 -0.09,0.037c-0.014,0.009 -0.031,0.009 -0.048,0.017c-0.012,0.006 -0.02,0.021 -0.035,0.031c-0.029,0.019 -0.054,0.04 -0.081,0.065c-0.027,0.023 -0.052,0.048 -0.075,0.075c-0.023,0.025 -0.042,0.05 -0.063,0.079c-0.008,0.014 -0.022,0.021 -0.031,0.035l-10.612,18.38l-43.095,0l107.046,-185.35l96.191,166.581l-148.853,0c-0.015,0 -0.029,0.008 -0.044,0.008c-0.035,0.002 -0.069,0.009 -0.104,0.013Z" style="fill:#fff;"/></svg>