<?xml version="1.0" encoding="UTF-8"?>
<svg width="72px" height="72px" viewBox="0 0 72 72" version="1.1" xmlns="http://www.w3.org/2000/svg" xmlns:xlink="http://www.w3.org/1999/xlink">
    <!-- Generator: Sketch 46.2 (44496) - http://www.bohemiancoding.com/sketch -->
    <title>API icon</title>
    <desc>Created with Sketch.</desc>
    <defs></defs>
    <g id="Design-draft-2" stroke="none" stroke-width="1" fill="none" fill-rule="evenodd">
        <g id="Block-5-Copy" transform="translate(-143.000000, 0.000000)">
            <g id="Seamless_plug_and_play">
                <g id="API-icon" transform="translate(143.000000, 0.000000)">
                    <path d="M40.4756491,1.28593793 C43.0727522,1.28593793 43.2127272,3.42598401 43.2127272,6.02301601 C43.0078595,6.78069262 43.0208753,7.34895008 43.2517748,7.72778838 C43.4653198,8.07815307 44.1189706,8.6037001 45.2127272,9.30442947 C46.1453789,9.63139839 47.0606613,9.99302693 47.951311,10.4146821 C49.2265948,11.1919938 50.1830577,11.4416442 50.8206997,11.1636334 C51.3651185,10.9262677 52.1817467,9.90355244 53.2705844,8.09548767 C55.1068338,6.25925409 55.120566,6.25925409 56.9567364,8.09548767 L63.6428853,14.781676 C65.4792136,16.6179096 63.4792136,18.656303 61.6428853,20.4925208 L61.3237698,23.8117153 C61.7477382,24.7067073 62.1303363,25.6130682 62.4586158,26.5503781 L63.7400687,28.5503781 C66.3371718,28.5503781 70.4771468,28.690432 70.4771468,31.2874561 L70.4771468,40.7616123 C70.4771468,43.3586364 67.3371718,43.4986904 64.7400687,43.4986904 L62.433983,45.4986904 C62.1098089,46.4215521 61.7407116,47.3308343 61.3237698,48.2126414 L61.3237698,51 C63.1600981,52.8362494 65.4792136,55.4064471 63.6428853,57.2426965 L56.9567364,63.9288453 C55.120566,65.7650947 52.8361704,62.8362494 51,61 L47.951311,61.6096508 C47.0607403,62.0313297 46.1453789,62.3929267 45.2127272,62.719943 L43.2127272,66.0260287 C43.2127272,68.6230528 43.0727522,70.7631068 40.4756491,70.7631068 L31.0014929,70.7631068 C28.4044688,70.7631068 29.2644149,66.6230528 29.2644149,64.0260287 L26.2644149,62.719943 C25.3388688,62.3930057 24.432271,62.0287243 23.5504639,61.6096508 C22.3723558,61.1659751 21.6554414,60.999885 21.3997207,61.1113804 C20.4733982,61.5152615 19.4172478,62.4544165 18.2312694,63.9288453 C16.395099,65.7650947 16.381291,65.7650947 14.5451205,63.9288453 L7.83425992,57.2426965 C5.9979316,55.4064471 9.9979316,52.3680852 11.8342599,50.5318358 L10.1780872,48.1879296 C9.76098748,47.3197021 9.37373135,46.4187888 9.04316225,45.4986904 C8.98301052,44.3923386 8.77123006,43.7292414 8.40782086,43.5093988 C8.03654434,43.2847969 7.14629622,43.2812275 5.7370765,43.4986904 C3.1400524,43.4986904 0.999998421,43.3586364 0.999998421,40.7616123 L0.999998421,31.2874561 C0.999998421,28.690432 6.1400524,28.5503781 8.7370765,28.5503781 L9.04316225,26.5503781 C9.3772052,25.6188316 9.75553984,24.7147603 10.1780872,23.8364271 L10.8342599,21.4925208 C8.9979316,19.656303 5.9979316,16.6179096 7.83425992,14.781676 L14.5451205,8.09548767 C16.3813699,6.25925409 18.395099,8.25925409 20.2312694,10.0954877 C20.9708504,10.8332771 21.5255361,11.2199524 21.8953266,11.2555138 C22.2631349,11.2908845 22.8148473,11.0106073 23.5504639,10.4146821 C24.432271,9.99560075 25.3388688,9.63134313 26.2644149,9.30442947 C27.5891044,8.5846811 28.4159549,8.04486983 28.7449663,7.68499564 C29.0826215,7.31566684 29.2557711,6.76167363 29.2644149,6.02301601 C29.2644149,3.42598401 28.4044688,1.28593793 31.0014929,1.28593793 L40.4756491,1.28593793 Z" id="Shape" fill="#FFFFFF" fill-rule="nonzero"></path>
                    <path d="M41.2840453,0 C42.7172224,0 43.818412,1.10120073 43.818412,2.53436581 L43.8184106,7.37661048 C43.8191798,7.78288202 44.1254714,8.1980766 44.5106977,8.31786498 C46.3450742,8.880868 48.0290598,9.56340042 49.5726064,10.3831409 C49.9314298,10.573648 50.4418929,10.4987773 50.7275469,10.2165599 L54.140162,6.80394589 C55.1537206,5.79039257 56.7242833,5.79039257 57.7378367,6.80394562 L65.1961285,14.262191 C66.2095505,15.2757382 66.2095505,16.8186841 65.1960967,17.832263 L61.782534,21.2458494 C61.4906659,21.5367089 61.4152254,22.0578915 61.6168143,22.4273311 C62.4478325,23.9921345 63.1282097,25.6567389 63.6848904,27.4711786 C63.7997359,27.8629171 64.2168747,28.1767986 64.6219235,28.181602 L69.4656334,28.181602 C70.8988179,28.181602 72,29.2827837 72,30.7159678 L72,41.2840586 C72,42.7171794 70.8987931,43.8184244 69.4656334,43.8184244 L64.6233872,43.8184231 C64.217143,43.8191923 63.8018924,44.1255018 63.6820905,44.5106148 C63.1190481,46.3451816 62.4365979,48.0290467 61.616866,49.5725979 C61.4263783,49.931409 61.5012442,50.4419276 61.7834809,50.7275572 L65.1961285,54.1402037 C66.2095505,55.1537508 66.2095505,56.6966967 65.1960946,57.7102777 L57.7378383,65.1685317 C56.7242833,66.1820864 55.1537206,66.1820864 54.1401606,65.1685317 L50.7308501,61.7592024 C50.4418687,61.4736825 49.9314029,61.3987916 49.5726846,61.5892525 C48.0289182,62.4090981 46.3449931,63.0916265 44.5132958,63.6538116 C44.1207677,63.7757979 43.8125746,64.2003538 43.818412,64.6219259 L43.818412,69.4656342 C43.818412,70.898755 42.7172051,72 41.2840453,72 L30.7159511,72 C29.2828547,72 28.1815845,70.8987302 28.1815845,69.4656342 L28.181658,64.6112646 C28.1873261,64.2003337 27.8791636,63.7757777 27.4886986,63.6544295 C25.6866664,63.0997516 24.0096971,62.4149459 22.4549409,61.5892864 C22.0961509,61.3987875 21.5856549,61.4736806 21.2999266,61.755919 L17.8873129,65.1685317 C16.8737577,66.1820866 15.303194,66.1820866 14.2906447,65.1695358 L6.80387155,57.7102439 C5.79044949,56.6966967 5.79044949,55.1537508 6.80391237,54.1401628 L10.2487122,50.6954911 C10.5390748,50.409984 10.6208442,49.898963 10.4379216,49.5445529 C9.54160978,47.8533523 8.82961534,46.1783996 8.31877598,44.5134192 C8.19793434,44.1249447 7.78274484,43.8184244 7.37807645,43.8184244 L2.53436661,43.8184244 C1.10127016,43.8184244 4.54747351e-13,42.7171546 4.54747351e-13,41.2840586 L4.54747351e-13,30.7159678 C4.54747351e-13,29.2828085 1.10124539,28.181602 2.53436661,28.181602 L7.37300046,28.1816186 C7.7826921,28.1789284 8.19978643,27.8643825 8.31789084,27.4619072 C8.8231717,25.8150633 9.52477742,24.1784432 10.4382303,22.4548036 C10.6319234,22.0900863 10.549549,21.5683411 10.2440891,21.2723861 L6.80387155,17.8322312 C5.79044949,16.8186841 5.79044949,15.2757382 6.80491293,14.2611515 L14.2896388,6.80394724 C15.303194,5.79039234 16.8737577,5.79039234 17.8873129,6.80394724 L21.2965823,10.2132359 C21.5856307,10.4987793 22.0961239,10.5736521 22.4548676,10.3831874 C24.0092758,9.55766296 25.6863341,8.87285739 27.4865599,8.31871115 C27.8749989,8.19791432 28.1815845,7.78267333 28.1815845,7.37807411 L28.1815845,2.53436581 C28.1815845,1.10122549 29.2828373,0 30.7159511,0 L41.2840453,0 Z M41.2840453,1.54603467 L30.7159511,1.54603467 C30.1366805,1.54603467 29.7276197,1.95508534 29.7276197,2.53436581 L29.7276197,7.37807411 C29.7276197,8.46051947 28.9797612,9.47342233 27.9435308,9.7956661 C26.2319693,10.3225229 24.6453047,10.9704173 23.179936,11.7486541 C22.2241089,12.2561233 20.9799438,12.0736446 20.2067147,11.3097715 L16.7941009,7.89715884 C16.38431,7.48736803 15.7926416,7.48736803 15.3818431,7.89816455 L7.89715114,15.355335 C7.48740318,15.7651335 7.48740318,16.3292887 7.89711242,16.7390486 L11.3284608,20.1704748 C12.1197861,20.9368187 12.320335,22.2070614 11.8039731,23.1793521 C10.9340626,24.8208301 10.2704019,26.3689366 9.79867846,27.9062051 C9.49126586,28.9543537 8.47540957,29.7204476 7.37807645,29.7276367 L2.53436661,29.7276367 C1.95508492,29.7276367 1.54603516,30.136672 1.54603516,30.7159678 L1.54603516,41.2840586 C1.54603516,41.8633033 1.9551218,42.2723898 2.53436661,42.2723898 L7.37807645,42.2723898 C8.46054424,42.2723898 9.47336825,43.0201232 9.79592172,44.0570683 C10.2773983,45.626328 10.9514222,47.2119557 11.8078217,48.8279437 C12.305478,49.7918803 12.1061982,51.037286 11.3372892,51.7932987 L7.89715114,55.2333476 C7.48740318,55.6431461 7.48740318,56.2073014 7.89611137,56.616062 L15.3828507,64.0753201 C15.7926416,64.4851109 16.38431,64.4851109 16.7941009,64.0753201 L20.2100637,60.6593789 C20.9799628,59.8988284 22.2241355,59.7163001 23.1800065,60.2238183 C24.645715,61.0021886 26.2322921,61.6500818 27.9455184,62.1774276 C28.9921081,62.5026773 29.7426616,63.5367164 29.7276197,64.6219259 L29.7276197,69.4656342 C29.7276197,70.0448788 30.1367063,70.4539653 30.7159511,70.4539653 L41.2840453,70.4539653 C41.8633413,70.4539653 42.2723768,70.0449157 42.2723768,69.4656342 L42.2724528,64.6327679 C42.2570807,63.536863 43.0077941,62.5027066 44.0570727,62.1766262 C45.8010539,61.6413583 47.3943974,60.9955444 48.8476113,60.2237884 C49.8034395,59.7162929 51.0476414,59.898831 51.8207588,60.6627074 L55.2333712,64.0753187 C55.6431658,64.4851111 56.2348352,64.4851111 56.6446263,64.0753201 L64.1028489,56.6170999 C64.5125968,56.2073014 64.5125968,55.6431461 64.1028827,55.2333814 L60.6870313,51.8175118 C59.926372,51.0477607 59.7439014,49.8034742 60.2513837,48.8475582 C61.0230346,47.3945434 61.6687713,45.8012645 62.2049634,44.0542033 C62.5263873,43.0209089 63.5383429,42.2744401 64.6219235,42.2723898 L69.4656334,42.2723898 C70.0449294,42.2723898 70.4539648,41.8633401 70.4539648,41.2840586 L70.4539648,30.7159678 C70.4539648,30.1366351 70.0449663,29.7276367 69.4656334,29.7276367 L64.6128586,29.7275835 C63.521409,29.7147836 62.5079791,28.9522151 62.2040831,27.9154086 C61.6782942,26.2018533 61.0350678,24.6281416 60.2555736,23.1602501 C59.7290426,22.195584 59.9127352,20.9265376 60.6902668,20.1516947 L64.1028489,16.7390873 C64.5125968,16.3292887 64.5125968,15.7651335 64.1028843,15.3553704 L56.6446263,7.89715884 C56.2348352,7.48736781 55.6431658,7.48736781 55.2333726,7.89715884 L51.8174602,11.3130503 C51.0476604,12.073642 49.8034662,12.2561305 48.8475434,11.7486104 C47.3945413,10.976956 45.801141,10.3311385 44.0543633,9.79501566 C43.020949,9.47368413 42.2744272,8.46173389 42.2723768,7.37807411 L42.2723768,2.53436581 C42.2723768,1.95504847 41.8633672,1.54603467 41.2840453,1.54603467 Z" id="Shape" fill="#FFFFFF" fill-rule="nonzero"></path>
                    <text id="API" font-family="Exo-Medium, Exo" font-size="13.86" font-weight="400" fill="#4A8EDA">
                        <tspan x="24.86938" y="42">API</tspan>
                    </text>
                </g>
            </g>
        </g>
    </g>
</svg>