<?xml version="1.0" encoding="UTF-8"?>
<svg width="61px" height="60px" viewBox="0 0 61 60" version="1.1" xmlns="http://www.w3.org/2000/svg" xmlns:xlink="http://www.w3.org/1999/xlink">
    <!-- Generator: Sketch 46.2 (44496) - http://www.bohemiancoding.com/sketch -->
    <title>Icon</title>
    <desc>Created with Sketch.</desc>
    <defs></defs>
    <g id="Design-draft-2" stroke="none" stroke-width="1" fill="none" fill-rule="evenodd">
        <g id="Block-5-Copy" transform="translate(-141.000000, -150.000000)">
            <g id="Seamless_plug_and_play">
                <g id="Icon" transform="translate(139.000000, 150.000000)">
                    <path d="M42.7453336,7.33252695 L59.6310265,17.173801 C61.0796869,18.0181053 61.9710526,19.5766154 61.9710526,21.2621743 L61.9710526,40.9447223 C61.9710526,42.6302811 61.0796869,44.1887912 59.6310265,45.0330956 L42.7453336,54.8743696 C41.2943333,55.7200377 39.5056667,55.7200377 38.0546664,54.8743696 L21.1689735,45.0330956 C19.7203131,44.1887912 18.8289474,42.6302811 18.8289474,40.9447223 L18.8289474,21.2621743 C18.8289474,19.5766154 19.7203131,18.0181053 21.1689735,17.173801 L38.0546664,7.33252695 C39.5056667,6.48685883 41.2943333,6.48685883 42.7453336,7.33252695 Z" id="Mask-Copy-26" stroke="#FFFFFF" stroke-width="1.5" stroke-linecap="round" stroke-linejoin="round"></path>
                    <path d="M59.2185712,18.1864 C60.4216858,18.1864 61.3969249,17.2140851 61.3969249,16.014578 C61.3969249,14.815071 60.4216858,13.8427561 59.2185712,13.8427561 C58.1874913,13.8427561 57.3273179,14.559761 57.1022628,15.519704 L46.3627871,17.691526 C45.845555,16.676472 44.8748282,15.9330363 43.7157094,15.7244019 L43.546495,11.0056661 C44.4354348,10.6271999 45.059836,9.74879863 45.059836,8.72305984 C45.0592719,7.35259633 43.9447129,6.24137931 42.5695637,6.24137931 C41.1949785,6.24137931 40.0798554,7.35259633 40.0798554,8.7236222 C40.0798554,9.89669847 40.8982892,10.8729499 41.9953627,11.1321963 L42.1617569,15.7744517 C41.2384102,16.0016438 40.4521271,16.5701865 39.9456119,17.3411777 L31.1419493,12.0330919 C31.1831248,11.8666343 31.2113272,11.6945531 31.2113272,11.5157237 C31.2113272,10.3156543 30.2360881,9.34390174 29.0329735,9.34390174 C27.830423,9.34390174 26.8546198,10.3156543 26.8546198,11.5157237 C26.8546198,12.7157931 27.8298589,13.6875456 29.0329735,13.6875456 C29.4870322,13.6875456 29.9083762,13.5480811 30.2569579,13.3113289 L39.3849481,18.8162396 C39.3578738,18.9956314 39.3398243,19.1783973 39.3398243,19.3650998 C39.3398243,19.9066494 39.4594025,20.4195188 39.6686643,20.8829008 L25.8009779,34.6763882 C25.1607834,34.1545211 24.3434777,33.840726 23.4517176,33.840726 C22.6942011,33.840726 21.9908331,34.0679182 21.403659,34.4559443 L14.8229099,27.8949276 C15.1703636,27.4028654 15.3784973,26.8056425 15.3784973,26.1583699 C15.3784973,24.4876078 14.0202695,23.1334527 12.3444826,23.1334527 C10.6686957,23.1334527 9.31046793,24.4876078 9.31046793,26.1583699 C9.31046793,27.8291319 10.6692598,29.1832871 12.3444826,29.1832871 C12.8030537,29.1832871 13.2339865,29.0741898 13.6237437,28.8919862 L20.3161743,35.5649119 C19.9517992,36.1379535 19.738025,36.8150311 19.738025,37.5432831 C19.738025,37.8227745 19.7718679,38.0938304 19.8305289,38.3553264 L10.3471883,41.5326422 C9.95686704,40.9466665 9.29072624,40.5603273 8.53264561,40.5603273 C7.32953103,40.5603273 6.35429188,41.5326422 6.35429188,42.7321493 C6.35429188,43.9316563 7.32953103,44.9028465 8.53264561,44.9028465 C9.62351462,44.9028465 10.5186589,44.1014881 10.6777205,43.0583162 L20.4910292,39.7707784 C21.0539492,40.5130894 21.8893044,41.0355188 22.8504424,41.191854 L22.8487502,46.7507509 C21.7358833,46.9976256 20.9027843,47.9851241 20.9027843,49.1694475 C20.9027843,50.5404734 22.0173433,51.651128 23.3924926,51.651128 C24.7676418,51.651128 25.8822009,50.539911 25.8822009,49.1694475 C25.8822009,48.15833 25.274157,47.2923005 24.4043949,46.9059614 L24.4066511,41.1170606 C25.4772143,40.8330704 26.3554372,40.0868229 26.8157005,39.1038232 L39.3668986,41.623744 C39.348285,41.7553355 39.3262871,41.8852399 39.3262871,42.0213303 C39.3262871,43.6128 40.6207775,44.9034089 42.2170336,44.9034089 C42.4279876,44.9034089 42.632173,44.8781028 42.8301539,44.8353637 L44.8827249,49.8909513 C44.2904744,50.3610815 43.9029734,51.075837 43.9029734,51.8901297 C43.9029734,52.3062737 44.0118346,52.6942999 44.1895098,53.041274 L40.0240146,57.3956027 C40.005401,57.388292 39.9890437,57.3764825 39.969302,57.3697342 C38.8378215,56.9631503 37.5895831,57.5496884 37.1829044,58.6777762 C36.7762257,59.8058639 37.3633998,61.0497971 38.4948803,61.4558187 C39.6274888,61.8618403 40.8745992,61.2753022 41.2818419,60.1472145 C41.4916678,59.5651752 41.4330068,58.9544557 41.1752368,58.4404616 L45.2820709,54.1457428 C45.6391134,54.3330076 46.0390235,54.4482907 46.4693922,54.4482907 C47.1434296,54.4482907 47.7514735,54.183983 48.2100446,53.759966 L55.9335551,58.9364603 C55.8557165,59.1591536 55.8049521,59.3947811 55.8049521,59.6455922 C55.8049521,60.8450992 56.7801913,61.8162894 57.9821778,61.8162894 C59.1852924,61.8162894 60.1605315,60.8439745 60.1605315,59.6455922 C60.1605315,58.4455228 59.1852924,57.4737703 57.9821778,57.4737703 C57.6053937,57.4737703 57.2551198,57.5783686 56.9454574,57.7470757 L48.9816624,52.4097473 C49.0166334,52.2416027 49.036375,52.0678344 49.036375,51.8890049 C49.036375,50.4746776 47.886845,49.3291568 46.4688281,49.3291568 C46.4237043,49.3291568 46.3825288,49.3398416 46.338533,49.3415287 L44.2210965,44.0908033 C44.7659669,43.5666868 45.107216,42.8344982 45.107216,42.0202056 C45.107216,40.4287358 43.8127257,39.138127 42.2164696,39.138127 C41.3173769,39.138127 40.5237612,39.5559581 39.9941201,40.1987319 L27.16259,37.5826481 C27.16259,37.5691516 27.1642822,37.5562173 27.1642822,37.5427208 C27.1642822,36.948872 27.021014,36.3898894 26.7717047,35.892766 L40.591447,22.1307705 C41.2468709,22.7105604 42.1076083,23.0659699 43.0523888,23.0659699 C43.81611,23.0659699 44.5245544,22.8354036 45.1145487,22.4417538 L52.2796516,29.5853722 C52.1408957,29.8946684 52.0591088,30.2354566 52.0591088,30.5959273 C52.0591088,31.9675155 53.1742318,33.0781702 54.548817,33.0781702 C55.9234022,33.0781702 57.0379613,31.9675155 57.0379613,30.5959273 C57.0379613,29.2249015 55.9234022,28.1136844 54.548817,28.1136844 C54.1049112,28.1136844 53.6937201,28.23909 53.3338575,28.4421008 L46.198085,21.3271626 C46.5562556,20.7574952 46.7666455,20.0860412 46.7666455,19.3645374 C46.7666455,19.3066147 46.760441,19.2509414 46.7576208,19.193581 L57.3194213,17.0583122 C57.6905649,17.7280792 58.3973172,18.1864 59.2185712,18.1864 Z" id="Shape-Copy-4" fill="#FFFFFF" fill-rule="nonzero" transform="translate(33.875608, 34.028834) rotate(-165.000000) translate(-33.875608, -34.028834) "></path>
                </g>
            </g>
        </g>
    </g>
</svg>